<svg width="24" height="25" viewBox="0 0 24 25" fill="none" xmlns="http://www.w3.org/2000/svg">
    <path d="m12 5.5.64-.768-.64-.534-.64.534.64.768zm-7.5 6.25-.64-.768-.36.3v.468h1zm15 0h1v-.468l-.36-.3-.64.768zm-5.625 8.75h-1v1h1v-1zm-3.75 0v1h1v-1h-1zM11.36 4.732l-7.5 6.25 1.28 1.536 7.5-6.25-1.28-1.536zm8.78 6.25-7.5-6.25-1.28 1.536 7.5 6.25 1.28-1.536zm.36 8.518v-7.75h-2v7.75h2zm-2 2a2 2 0 0 0 2-2h-2v2zm-4.625 0H18.5v-2h-4.625v2zm-1-5v4h2v-4h-2zm0 0h2a2 2 0 0 0-2-2v2zm-1.75 0h1.75v-2h-1.75v2zm0 0v-2a2 2 0 0 0-2 2h2zm0 4v-4h-2v4h2zm-5.625 1h4.625v-2H5.5v2zm-2-2a2 2 0 0 0 2 2v-2h-2zm0-7.75v7.75h2v-7.75h-2z" fill="#4374C9"/>
</svg>
