<svg width="80" height="80" viewBox="0 0 80 80" fill="none" xmlns="http://www.w3.org/2000/svg">
<path d="M52.026 24.3536C50.24 24.2956 48.752 25.3176 48.752 27.0856V23.9176C48.752 22.2236 47.392 20.8356 45.696 20.8136C43.942 20.7896 42.496 21.6156 42.496 23.3596V21.6676C42.496 19.9696 41.134 18.5776 39.436 18.5556C37.686 18.5336 36.242 19.3896 36.242 21.1316V24.7636C36.242 23.0436 34.834 21.9636 33.114 21.9636C31.394 21.9636 29.986 23.3716 29.986 25.0916V37.1816C29.552 34.5296 29.068 30.5676 26.174 30.5676C23.846 30.5676 23.854 32.5016 23.854 32.5016V43.0416C23.854 44.7056 24.308 46.3376 25.168 47.7636L28.982 55.9056C29.596 57.2136 30.91 58.0496 32.356 58.0496H50.142C52.068 58.0496 53.676 56.5816 53.852 54.6636L55.01 41.9876V27.4616C55.01 25.7936 53.694 24.4056 52.028 24.3516L52.026 24.3536Z" fill="white"/>
<path d="M50.14 59.0516H32.3521C30.5261 59.0516 28.848 57.9836 28.074 56.3316L24.2821 48.2356C23.3461 46.6656 22.8521 44.8716 22.8521 43.0436V32.5036C22.8521 32.3876 22.8701 31.3156 23.7041 30.4796C24.3041 29.8776 25.134 29.5716 26.172 29.5716C27.426 29.5716 28.3261 30.0856 28.9841 30.8736V25.0976C28.9841 22.8216 30.8361 20.9696 33.1121 20.9696C33.9061 20.9696 34.63 21.1456 35.24 21.4616V21.1356C35.24 20.1716 35.578 19.3276 36.218 18.6956C36.962 17.9596 38.08 17.5576 39.368 17.5576C39.394 17.5576 39.422 17.5576 39.448 17.5576C41.22 17.5796 42.7321 18.7476 43.2781 20.3496C43.9561 19.9876 44.7901 19.7996 45.7101 19.8136C47.9101 19.8436 49.7061 21.6376 49.7521 23.8336C50.4221 23.4936 51.2121 23.3276 52.0601 23.3556C54.2741 23.4276 56.0101 25.2336 56.0101 27.4656V41.9916C56.0101 42.0216 56.0101 42.0516 56.0061 42.0836L54.848 54.7596C54.624 57.2076 52.602 59.0556 50.142 59.0556L50.14 59.0516ZM26.172 31.5696C25.054 31.5696 24.8641 32.1636 24.8521 32.5156V43.0416C24.8521 44.5236 25.256 45.9776 26.022 47.2476C26.04 47.2776 26.056 47.3076 26.072 47.3396L29.8861 55.4816C30.3321 56.4356 31.3021 57.0516 32.3541 57.0516H50.142C51.56 57.0516 52.7261 55.9856 52.8561 54.5736L54.0101 41.9436V27.4636C54.0101 26.3356 53.106 25.3896 51.994 25.3536C51.268 25.3316 50.618 25.5396 50.214 25.9296C49.908 26.2256 49.7541 26.6136 49.7541 27.0856C49.7541 27.6376 49.3061 28.0856 48.7541 28.0856C48.2021 28.0856 47.7541 27.6376 47.7541 27.0856V23.9176C47.7541 22.7736 46.8261 21.8296 45.6861 21.8136C44.9001 21.7996 44.238 22.0056 43.87 22.3676C43.62 22.6136 43.5 22.9376 43.5 23.3596C43.5 23.9116 43.052 24.3596 42.5 24.3596C41.948 24.3596 41.5 23.9116 41.5 23.3596V21.6676C41.5 20.5176 40.57 19.5696 39.4261 19.5556C38.654 19.5416 37.998 19.7496 37.626 20.1156C37.368 20.3696 37.244 20.7016 37.244 21.1316V24.7636C37.244 25.3156 36.796 25.7636 36.244 25.7636C35.692 25.7636 35.244 25.3156 35.244 24.7636C35.244 23.5216 34.176 22.9636 33.116 22.9636C31.942 22.9636 30.988 23.9176 30.988 25.0916V37.1816C30.988 37.7016 30.588 38.1356 30.07 38.1776C29.55 38.2216 29.0861 37.8556 29.0021 37.3416L28.9361 36.9316C28.4641 33.9956 27.932 31.5656 26.176 31.5656L26.172 31.5696Z" fill="#1B2E50"/>
<path d="M36.2397 37.3536C35.6877 37.3536 35.2397 36.9056 35.2397 36.3536V24.7656C35.2397 24.2136 35.6877 23.7656 36.2397 23.7656C36.7917 23.7656 37.2397 24.2136 37.2397 24.7656V36.3536C37.2397 36.9056 36.7917 37.3536 36.2397 37.3536Z" fill="#1B2E50"/>
<path d="M42.4961 37.3536C41.9441 37.3536 41.4961 36.9056 41.4961 36.3536V22.7856C41.4961 22.2336 41.9441 21.7856 42.4961 21.7856C43.0481 21.7856 43.4961 22.2336 43.4961 22.7856V36.3536C43.4961 36.9056 43.0481 37.3536 42.4961 37.3536Z" fill="#1B2E50"/>
<path d="M48.7378 37.3537C48.1858 37.3537 47.7378 36.9057 47.7378 36.3537V26.2317C47.7378 25.6797 48.1858 25.2317 48.7378 25.2317C49.2898 25.2317 49.7378 25.6797 49.7378 26.2317V36.3537C49.7378 36.9057 49.2898 37.3537 48.7378 37.3537Z" fill="#1B2E50"/>
<path d="M29.9858 43.9155C29.4338 43.9155 28.9858 43.4675 28.9858 42.9155V37.1855C28.9858 36.6335 29.4338 36.1855 29.9858 36.1855C30.5378 36.1855 30.9858 36.6335 30.9858 37.1855V42.9155C30.9858 43.4675 30.5378 43.9155 29.9858 43.9155Z" fill="#1B2E50"/>
<path d="M39.9939 69.4376C23.7899 69.4376 10.606 56.2536 10.606 40.0496C10.606 23.8456 23.7899 10.6616 39.9939 10.6616C56.1979 10.6616 69.382 23.8456 69.382 40.0496C69.382 56.2536 56.1979 69.4376 39.9939 69.4376ZM39.9939 14.2616C25.7739 14.2616 14.206 25.8296 14.206 40.0496C14.206 54.2696 25.7739 65.8376 39.9939 65.8376C54.2139 65.8376 65.782 54.2696 65.782 40.0496C65.782 25.8296 54.2139 14.2616 39.9939 14.2616Z" fill="#4374C9"/>
<path d="M21.5061 60.3377C21.0461 60.3377 20.5841 60.1617 20.2341 59.8097C19.5301 59.1077 19.5301 57.9677 20.2341 57.2637L57.2081 20.2897C57.9101 19.5877 59.05 19.5877 59.7541 20.2897C60.458 20.9917 60.458 22.1317 59.7541 22.8357L22.7801 59.8097C22.4281 60.1617 21.9681 60.3377 21.5081 60.3377H21.5061Z" fill="#4374C9"/>
</svg>
