<svg width="80" height="80" viewBox="0 0 80 80" fill="none" xmlns="http://www.w3.org/2000/svg">
<path d="M39.9861 46.8683C29.0441 46.8683 20.1421 37.9663 20.1421 27.0223C20.1421 16.0783 29.0441 7.17822 39.9861 7.17822C50.9281 7.17822 59.8301 16.0803 59.8301 27.0223C59.8301 37.9643 50.9281 46.8683 39.9861 46.8683ZM39.9861 9.17822C30.1461 9.17822 22.1421 17.1843 22.1421 27.0223C22.1421 36.8603 30.1481 44.8683 39.9861 44.8683C49.8241 44.8683 57.8301 36.8623 57.8301 27.0223C57.8301 17.1823 49.8241 9.17822 39.9861 9.17822Z" fill="#4374C9"/>
<path d="M39.9862 46.8682C36.7002 46.8682 33.6522 44.7302 31.4062 40.8502C29.2582 37.1402 28.0762 32.2302 28.0762 27.0242C28.0762 21.8182 29.2582 16.9062 31.4062 13.1982C33.6542 9.31619 36.7002 7.18018 39.9862 7.18018C43.2722 7.18018 46.3202 9.31819 48.5662 13.1982C50.7142 16.9082 51.8962 21.8182 51.8962 27.0242C51.8962 32.2302 50.7142 37.1422 48.5662 40.8502C46.3182 44.7322 43.2722 46.8682 39.9862 46.8682ZM39.9862 9.17817C37.4442 9.17817 35.0102 10.9622 33.1362 14.1982C31.1622 17.6082 30.0742 22.1622 30.0742 27.0222C30.0742 31.8822 31.1622 36.4362 33.1362 39.8462C35.0102 43.0842 37.4442 44.8662 39.9862 44.8662C42.5282 44.8662 44.9622 43.0822 46.8362 39.8462C48.8102 36.4362 49.8982 31.8822 49.8982 27.0222C49.8982 22.1622 48.8102 17.6082 46.8362 14.1982C44.9622 10.9602 42.5282 9.17817 39.9862 9.17817Z" fill="#4374C9"/>
<path d="M58.8302 28.0242H21.1401C20.5881 28.0242 20.1401 27.5762 20.1401 27.0242C20.1401 26.4722 20.5881 26.0242 21.1401 26.0242H58.8302C59.3822 26.0242 59.8302 26.4722 59.8302 27.0242C59.8302 27.5762 59.3822 28.0242 58.8302 28.0242Z" fill="#4374C9"/>
<path d="M55.2881 17.9443H24.6841C24.1321 17.9443 23.6841 17.4963 23.6841 16.9443C23.6841 16.3923 24.1321 15.9443 24.6841 15.9443H55.2881C55.8401 15.9443 56.2881 16.3923 56.2881 16.9443C56.2881 17.4963 55.8401 17.9443 55.2881 17.9443Z" fill="#4374C9"/>
<path d="M55.6282 37.5361H24.3442C23.7922 37.5361 23.3442 37.0881 23.3442 36.5361C23.3442 35.9841 23.7922 35.5361 24.3442 35.5361H55.6282C56.1802 35.5361 56.6282 35.9841 56.6282 36.5361C56.6282 37.0881 56.1802 37.5361 55.6282 37.5361Z" fill="#4374C9"/>
<path d="M39.9863 46.7223C39.4343 46.7223 38.9863 46.2743 38.9863 45.7223V8.17822C38.9863 7.62622 39.4343 7.17822 39.9863 7.17822C40.5383 7.17822 40.9863 7.62622 40.9863 8.17822V45.7223C40.9863 46.2743 40.5383 46.7223 39.9863 46.7223Z" fill="#4374C9"/>
<path d="M43.1878 57.2781L32.2978 50.4562C31.8078 48.9581 31.2398 47.5781 30.5778 46.4041C30.3278 45.9601 30.1378 45.4941 30.4998 45.1361C32.0818 43.5701 33.0618 41.3981 33.0618 38.9981C33.0618 34.0881 28.9658 30.1342 24.0038 30.3662C19.5658 30.5762 15.9738 34.1861 15.7878 38.6261C15.6818 41.1661 16.6718 43.4742 18.3258 45.1202C18.6938 45.4862 18.5538 45.9962 18.2478 46.4142C14.1318 52.0022 13.6618 65.3362 13.5158 69.5682C13.4798 70.5842 14.0278 71.5081 15.0438 71.5561C17.4578 71.6702 19.3258 71.8401 24.4218 71.8401C29.5178 71.8401 31.2038 71.6702 33.6178 71.5561C34.6318 71.5081 35.1838 71.1162 35.1458 69.5682C35.0918 67.3822 34.8598 63.4602 34.2478 59.2722L39.7738 62.7341C41.2738 63.6741 43.2678 63.2162 44.2078 61.7162C45.1478 60.2162 44.6898 58.2221 43.1898 57.2821L43.1878 57.2781Z" fill="white"/>
<path d="M24.42 72.8362C20.308 72.8362 18.316 72.7282 16.39 72.6242C15.926 72.5982 15.472 72.5742 14.994 72.5522C13.498 72.4822 12.456 71.2102 12.514 69.5302C12.668 65.1102 13.138 51.6622 17.44 45.8182C17.47 45.7782 17.492 45.7442 17.506 45.7142C15.664 43.8202 14.676 41.2302 14.786 38.5822C14.992 33.6462 19.018 29.5962 23.954 29.3642C26.618 29.2382 29.148 30.1802 31.074 32.0182C33 33.8562 34.062 36.3342 34.062 38.9942C34.062 41.6542 33.098 43.8942 31.342 45.7042C31.364 45.7542 31.398 45.8222 31.45 45.9122C32.06 46.9962 32.626 48.3022 33.134 49.7982L43.72 56.4302C45.69 57.6642 46.29 60.2722 45.054 62.2422C43.82 64.2122 41.212 64.8122 39.242 63.5762L35.52 61.2442C36.008 65.2842 36.12 68.5302 36.146 69.5402C36.194 71.4862 35.382 72.4702 33.666 72.5522C33.158 72.5762 32.684 72.6022 32.202 72.6302C30.366 72.7322 28.47 72.8382 24.422 72.8382L24.42 72.8362ZM24.424 31.3562C24.3 31.3562 24.176 31.3582 24.05 31.3642C20.14 31.5482 16.95 34.7562 16.788 38.6682C16.698 40.8402 17.494 42.8802 19.032 44.4102C19.71 45.0842 19.718 46.1042 19.054 47.0062C16.442 50.5522 14.916 58.1542 14.516 69.6002C14.516 69.6382 14.49 70.5262 15.092 70.5542C15.574 70.5762 16.034 70.6022 16.502 70.6262C18.402 70.7282 20.366 70.8362 24.424 70.8362C28.482 70.8362 30.284 70.7322 32.092 70.6322C32.578 70.6042 33.06 70.5782 33.572 70.5542C34.068 70.5302 34.17 70.5262 34.148 69.5902C34.12 68.4362 33.972 64.2942 33.26 59.4142C33.204 59.0282 33.376 58.6462 33.704 58.4322C34.03 58.2202 34.452 58.2162 34.782 58.4222L40.308 61.8842C40.806 62.1962 41.4 62.2962 41.98 62.1622C42.56 62.0282 43.05 61.6802 43.364 61.1822C44.014 60.1462 43.698 58.7762 42.662 58.1262L31.772 51.3042C31.574 51.1802 31.426 50.9902 31.352 50.7682C30.856 49.2522 30.304 47.9482 29.712 46.8962C29.14 45.8822 29.17 45.0502 29.8 44.4262C31.26 42.9802 32.066 41.0522 32.066 38.9982C32.066 36.9442 31.226 34.9262 29.698 33.4682C28.262 32.0982 26.404 31.3562 24.428 31.3562H24.424Z" fill="#1B2E50"/>
<path d="M27.2438 48.6202L27.8458 47.0881C28.0338 46.7481 27.7378 46.3582 27.2918 46.3582H24.6958C24.2498 46.3582 23.9538 46.7481 24.1418 47.0881L24.7438 48.6202C24.9258 48.9502 24.9759 49.3201 24.8839 49.6761L23.3499 56.6222C23.2259 57.1062 23.4238 57.6101 23.8678 57.9361L25.2458 58.9461C25.6738 59.2601 26.3138 59.2601 26.7418 58.9461L28.1198 57.9361C28.5638 57.6101 28.7638 57.1062 28.6378 56.6222L27.1039 49.6761C27.0119 49.3201 27.0618 48.9502 27.2438 48.6202Z" fill="#4374C9"/>
<path d="M61.7264 46.4124C61.4184 45.9944 61.2804 45.4844 61.6484 45.1184C63.3004 43.4744 64.2924 41.1644 64.1864 38.6244C64.0004 34.1844 60.4104 30.5724 55.9704 30.3644C51.0084 30.1304 46.9124 34.0844 46.9124 38.9964C46.9124 41.3984 47.8924 43.5703 49.4744 45.1343C49.8364 45.4923 49.6444 45.9604 49.3964 46.4024C48.4244 48.1264 47.6524 50.3003 47.0384 52.6383L39.6364 57.2763C38.1364 58.2163 37.6784 60.2104 38.6184 61.7104C39.5584 63.2104 41.5524 63.6683 43.0524 62.7283L45.4664 61.2164C45.0484 64.6464 44.8744 67.7224 44.8304 69.5644C44.7924 71.1124 45.3444 71.5044 46.3584 71.5524C48.7724 71.6664 50.4584 71.8363 55.5544 71.8363C60.6504 71.8363 62.5184 71.6664 64.9324 71.5524C65.9464 71.5044 66.4964 70.5804 66.4604 69.5644C66.3124 65.3324 65.8444 52.0004 61.7284 46.4104L61.7264 46.4124Z" fill="white"/>
<path d="M55.5522 72.8362C51.5062 72.8362 49.6082 72.7302 47.7722 72.6282C47.2902 72.6022 46.8162 72.5742 46.3082 72.5502C44.5922 72.4702 43.7802 71.4842 43.8282 69.5382C43.8522 68.5562 43.9382 66.2102 44.2422 63.1602L43.5802 63.5742C41.6102 64.8083 39.0022 64.2102 37.7682 62.2402C36.5342 60.2702 37.1322 57.6622 39.1022 56.4282L46.1702 52.0002C46.8382 49.5422 47.6282 47.4942 48.5202 45.9102C48.5702 45.8202 48.6042 45.7522 48.6282 45.7022C46.8742 43.8942 45.9082 41.5202 45.9082 38.9922C45.9082 36.3302 46.9682 33.8542 48.8962 32.0162C50.8222 30.1802 53.3502 29.2362 56.0162 29.3622C60.9502 29.5942 64.9762 33.6442 65.1842 38.5802C65.2942 41.2282 64.3042 43.8182 62.4642 45.7122C62.4802 45.7422 62.5022 45.7762 62.5302 45.8162C66.8342 51.6582 67.3022 65.1082 67.4582 69.5282C67.5162 71.2082 66.4742 72.4802 64.9782 72.5502C64.5022 72.5722 64.0462 72.5982 63.5822 72.6222C61.6562 72.7262 59.6642 72.8342 55.5522 72.8342V72.8362ZM45.4642 60.2182C45.6502 60.2182 45.8362 60.2703 46.0002 60.3743C46.3262 60.5802 46.5022 60.9562 46.4562 61.3402C45.9602 65.4042 45.8482 68.6842 45.8262 69.5902C45.8042 70.5262 45.9062 70.5322 46.4022 70.5542C46.9162 70.5782 47.3962 70.6042 47.8822 70.6322C49.6902 70.7322 51.5602 70.8362 55.5502 70.8362C59.5402 70.8362 61.5722 70.7302 63.4722 70.6262C63.9402 70.6002 64.4002 70.5762 64.8822 70.5542C65.4822 70.5262 65.4582 69.6382 65.4582 69.6002C65.0582 58.1542 63.5322 50.5522 60.9202 47.0062C60.2562 46.1042 60.2642 45.0862 60.9422 44.4102C62.4802 42.8802 63.2762 40.8402 63.1862 38.6682C63.0222 34.7562 59.8322 31.5482 55.9242 31.3642C53.8102 31.2622 51.8062 32.0122 50.2802 33.4662C48.7542 34.9222 47.9122 36.8862 47.9122 38.9962C47.9122 41.1062 48.7162 42.9783 50.1782 44.4243C50.8082 45.0483 50.8382 45.8802 50.2662 46.8942C49.4122 48.4102 48.6502 50.4282 48.0042 52.8942C47.9402 53.1402 47.7842 53.3522 47.5682 53.4882L40.1662 58.1262C39.1302 58.7762 38.8162 60.1462 39.4642 61.1822C40.1142 62.2182 41.4842 62.5322 42.5202 61.8842L44.9342 60.3722C45.0962 60.2702 45.2802 60.2202 45.4642 60.2202V60.2182Z" fill="#1B2E50"/>
<path d="M47.0361 53.6403C46.6941 53.6403 46.3601 53.4643 46.1721 53.1463C45.8921 52.6703 46.0521 52.0583 46.5281 51.7783L50.3901 49.5083C50.8661 49.2283 51.4781 49.3883 51.7581 49.8643C52.0381 50.3403 51.8781 50.9523 51.4021 51.2323L47.5401 53.5023C47.3801 53.5963 47.2061 53.6403 47.0341 53.6403H47.0361Z" fill="#1B2E50"/>
<path d="M45.466 62.2182C45.13 62.2182 44.802 62.0482 44.612 61.7422C44.324 61.2722 44.47 60.6562 44.94 60.3662L51.964 56.0522C52.434 55.7642 53.05 55.9102 53.34 56.3802C53.628 56.8502 53.482 57.4662 53.012 57.7562L45.988 62.0702C45.824 62.1702 45.644 62.2182 45.466 62.2182Z" fill="#1B2E50"/>
<path d="M34.2459 60.2682C33.7379 60.2682 33.3039 59.8842 33.2519 59.3682C33.2479 59.3282 33.0579 57.5402 32.3319 54.9802C32.1819 54.4482 32.4899 53.8962 33.0219 53.7462C33.5539 53.5962 34.1059 53.9042 34.2559 54.4362C35.0359 57.1962 35.2339 59.0902 35.2399 59.1682C35.2959 59.7182 34.8939 60.2082 34.3439 60.2642C34.3099 60.2682 34.2759 60.2702 34.2419 60.2702L34.2459 60.2682Z" fill="#1B2E50"/>
</svg>
