<svg width="80" height="80" viewBox="0 0 80 80" fill="none" xmlns="http://www.w3.org/2000/svg">
<g clip-path="url(#clip0_384_23412)">
<path d="M38.6081 23.984C35.0541 23.984 32.1641 21.094 32.1641 17.54V15.258C32.1641 11.704 35.0541 8.81396 38.6081 8.81396C42.1621 8.81396 45.0521 11.704 45.0521 15.258V17.54C45.0521 21.094 42.1621 23.984 38.6081 23.984ZM38.6081 10.814C36.1581 10.814 34.1641 12.808 34.1641 15.258V17.54C34.1641 19.99 36.1581 21.984 38.6081 21.984C41.0581 21.984 43.0521 19.99 43.0521 17.54V15.258C43.0521 12.808 41.0581 10.814 38.6081 10.814Z" fill="#1B2E50"/>
<path d="M66.4521 38.574H16.1001C15.5699 38.574 15.1401 39.0038 15.1401 39.534V65.16C15.1401 65.6902 15.5699 66.12 16.1001 66.12H66.4521C66.9823 66.12 67.4121 65.6902 67.4121 65.16V39.534C67.4121 39.0038 66.9823 38.574 66.4521 38.574Z" fill="white"/>
<path d="M66.4541 67.12H16.1001C15.0201 67.12 14.1401 66.242 14.1401 65.16V39.534C14.1401 38.454 15.0181 37.574 16.1001 37.574H66.4541C67.5341 37.574 68.4141 38.452 68.4141 39.534V65.16C68.4141 66.24 67.5361 67.12 66.4541 67.12ZM16.1401 65.12H66.4121V39.574H16.1401V65.12Z" fill="#1B2E50"/>
<path d="M62.312 42.6399H11.96C11.4298 42.6399 11 43.0697 11 43.5999V69.2259C11 69.7561 11.4298 70.1859 11.96 70.1859H62.312C62.8422 70.1859 63.272 69.7561 63.272 69.2259V43.5999C63.272 43.0697 62.8422 42.6399 62.312 42.6399Z" fill="white"/>
<path d="M62.314 71.1859H11.96C10.88 71.1859 10 70.3079 10 69.2259V43.5999C10 42.5199 10.878 41.6399 11.96 41.6399H62.314C63.394 41.6399 64.274 42.5179 64.274 43.5999V69.2259C64.274 70.3059 63.396 71.1859 62.314 71.1859ZM12 69.1859H62.272V43.6399H12V69.1859Z" fill="#1B2E50"/>
<path d="M11 50.6839C10.448 50.6839 10 50.2359 10 49.6839C10 49.1319 10.448 48.6839 11 48.6839C14.332 48.6839 17.044 45.9719 17.044 42.6399C17.044 42.0879 17.492 41.6399 18.044 41.6399C18.596 41.6399 19.044 42.0879 19.044 42.6399C19.044 47.0759 15.436 50.6839 11 50.6839Z" fill="#1B2E50"/>
<path d="M62.5601 50.6839C58.1241 50.6839 54.5161 47.0759 54.5161 42.6399C54.5161 42.0879 54.9641 41.6399 55.5161 41.6399C56.0681 41.6399 56.5161 42.0879 56.5161 42.6399C56.5161 45.9719 59.2281 48.6839 62.5601 48.6839C63.1121 48.6839 63.5601 49.1319 63.5601 49.6839C63.5601 50.2359 63.1121 50.6839 62.5601 50.6839Z" fill="#1B2E50"/>
<path d="M55.5161 70.336C54.9641 70.336 54.5161 69.888 54.5161 69.336C54.5161 64.9 58.1241 61.292 62.5601 61.292C63.1121 61.292 63.5601 61.74 63.5601 62.292C63.5601 62.844 63.1121 63.292 62.5601 63.292C59.2281 63.292 56.5161 66.004 56.5161 69.336C56.5161 69.888 56.0681 70.336 55.5161 70.336Z" fill="#1B2E50"/>
<path d="M18.044 70.336C17.492 70.336 17.044 69.888 17.044 69.336C17.044 66.004 14.332 63.292 11 63.292C10.448 63.292 10 62.844 10 62.292C10 61.74 10.448 61.292 11 61.292C15.436 61.292 19.044 64.9 19.044 69.336C19.044 69.888 18.596 70.336 18.044 70.336Z" fill="#1B2E50"/>
<path d="M39.4887 66.3898C44.9982 65.0894 48.4104 59.5689 47.11 54.0593C45.8097 48.5498 40.2892 45.1376 34.7796 46.438C29.2701 47.7383 25.8579 53.2588 27.1582 58.7684C28.4586 64.2779 33.9791 67.6901 39.4887 66.3898Z" fill="#4374C9"/>
<path d="M32.3851 56.0838L31.6379 52.9995H33.5178L34.211 56.0838H35.3311L35.9841 52.9995H38.1176L38.7581 56.0838H39.892L40.6392 52.9995H42.3332L41.6136 56.0838H43V57.5791H41.1603L40.4408 60.9995H38.2671L37.6003 57.5791H36.4274L35.7468 60.9995H33.5605L32.8271 57.5791H31.0138L31 56.0838H32.3864H32.3851ZM34.7585 59.2887L35.0385 57.5778H34.4784L34.7585 59.2887ZM36.7853 56.0838H37.2788L37.0251 54.4808L36.7853 56.0838ZM39.3596 59.3026L39.6396 57.5791H39.0657L39.3596 59.3026Z" fill="white"/>
<path d="M32.4378 16.78H44.7758C46.1518 16.78 47.2698 17.898 47.2698 19.274V31.612C47.2698 32.988 46.1518 34.106 44.7758 34.106H32.4378C31.0618 34.106 29.9438 32.988 29.9438 31.612V19.274C29.9438 17.898 31.0618 16.78 32.4378 16.78Z" fill="white"/>
<path d="M44.7778 35.108H32.4398C30.5138 35.108 28.9458 33.54 28.9458 31.614V19.276C28.9458 17.35 30.5138 15.782 32.4398 15.782H44.7778C46.7038 15.782 48.2718 17.35 48.2718 19.276V31.614C48.2718 33.54 46.7038 35.108 44.7778 35.108ZM32.4378 17.78C31.6138 17.78 30.9438 18.45 30.9438 19.274V31.612C30.9438 32.436 31.6138 33.106 32.4378 33.106H44.7758C45.5998 33.106 46.2698 32.436 46.2698 31.612V19.274C46.2698 18.45 45.5998 17.78 44.7758 17.78H32.4378Z" fill="#1B2E50"/>
<path d="M40.4937 25.9337C41.5356 24.8918 41.5356 23.2025 40.4937 22.1606C39.4517 21.1186 37.7625 21.1186 36.7205 22.1606C35.6786 23.2025 35.6786 24.8918 36.7205 25.9337C37.7625 26.9756 39.4517 26.9756 40.4937 25.9337Z" fill="#4374C9"/>
<path d="M39 23.782H38.218C37.89 23.782 37.624 24.0479 37.624 24.376V29.874C37.624 30.202 37.89 30.468 38.218 30.468H39C39.3281 30.468 39.594 30.202 39.594 29.874V24.376C39.594 24.0479 39.3281 23.782 39 23.782Z" fill="#4374C9"/>
<path d="M53.124 22.1419C52.868 22.1419 52.612 22.0439 52.416 21.8499C52.026 21.4599 52.026 20.8259 52.416 20.4359L56.274 16.5779C56.664 16.1879 57.298 16.1879 57.688 16.5779C58.078 16.9679 58.078 17.6019 57.688 17.9919L53.83 21.8499C53.634 22.0459 53.378 22.1419 53.122 22.1419H53.124Z" fill="#1B2E50"/>
<path d="M58.4122 26.4438H53.6782C53.1262 26.4438 52.6782 25.9958 52.6782 25.4438C52.6782 24.8918 53.1262 24.4438 53.6782 24.4438H58.4122C58.9642 24.4438 59.4122 24.8918 59.4122 25.4438C59.4122 25.9958 58.9642 26.4438 58.4122 26.4438Z" fill="#1B2E50"/>
<path d="M24.0919 22.1419C23.8359 22.1419 23.5799 22.0439 23.3839 21.8499L19.5279 17.9919C19.1379 17.6019 19.1379 16.9679 19.5279 16.5779C19.9179 16.1879 20.5519 16.1879 20.9419 16.5779L24.7979 20.4359C25.1879 20.8259 25.1879 21.4599 24.7979 21.8499C24.6019 22.0459 24.3459 22.1419 24.0899 22.1419H24.0919Z" fill="#1B2E50"/>
<path d="M23.5382 26.4438H18.8042C18.2522 26.4438 17.8042 25.9958 17.8042 25.4438C17.8042 24.8918 18.2522 24.4438 18.8042 24.4438H23.5382C24.0902 24.4438 24.5382 24.8918 24.5382 25.4438C24.5382 25.9958 24.0902 26.4438 23.5382 26.4438Z" fill="#1B2E50"/>
</g>
<defs>
<clipPath id="clip0_384_23412">
<rect width="58.414" height="62.372" fill="white" transform="translate(10 8.81396)"/>
</clipPath>
</defs>
</svg>
