<svg width="32" height="33" viewBox="0 0 32 33" fill="none" xmlns="http://www.w3.org/2000/svg">
<rect width="32" height="4" fill="#4374C9"/>
<rect y="12" width="32" height="4" fill="#4374C9"/>
<path d="M0.836364 24.221H2.83049L4.99175 29.4931H5.08291L7.24417 24.221H9.2345V32H7.66958V26.9064H7.60121L5.5729 31.9658H4.49797L2.46585 26.8874H2.40508V32H0.836364V24.221ZM10.5151 32V24.221H15.7378V25.558H12.1294V27.442H15.4643V28.7752H12.1294V30.663H15.753V32H10.5151ZM23.4518 24.221V32H22.054L18.6355 27.0584H18.5747V32H16.9604V24.221H18.381L21.7767 29.1588H21.8451V24.221H23.4518ZM29.5433 24.221H31.1614V29.2728C31.1614 30.9744 29.8699 32.1102 27.9442 32.1102C26.007 32.1102 24.727 30.9744 24.727 29.2728V24.221H26.3413V29.136C26.3413 30.0401 26.9756 30.6858 27.9442 30.6858C28.9128 30.6858 29.5433 30.0401 29.5433 29.136V24.221Z" fill="#4374C9"/>
</svg>
