<svg width="80" height="80" viewBox="0 0 80 80" fill="none" xmlns="http://www.w3.org/2000/svg">
<path d="M23.5662 19.304V36.4939H6.6582V68.2319H57.9322V51.0439V36.4939V19.304H23.5662Z" fill="white"/>
<path d="M57.9322 69.2319H6.6582C6.1062 69.2319 5.6582 68.7839 5.6582 68.2319V36.4919C5.6582 35.9399 6.1062 35.4919 6.6582 35.4919H22.5662V19.304C22.5662 18.752 23.0142 18.304 23.5662 18.304H57.9322C58.4842 18.304 58.9322 18.752 58.9322 19.304V68.2319C58.9322 68.7839 58.4842 69.2319 57.9322 69.2319ZM7.6582 67.2319H56.9322V20.304H24.5662V36.4919C24.5662 37.0439 24.1182 37.4919 23.5662 37.4919H7.6582V67.2319Z" fill="#1B2E50"/>
<path d="M51.5801 32.342H30.3721V37.3021H51.5801V32.342Z" fill="#4374C9"/>
<path d="M51.5801 38.3021H30.3721C29.8201 38.3021 29.3721 37.8541 29.3721 37.3021V32.342C29.3721 31.79 29.8201 31.342 30.3721 31.342H51.5801C52.1321 31.342 52.5801 31.79 52.5801 32.342V37.3021C52.5801 37.8541 52.1321 38.3021 51.5801 38.3021ZM31.3721 36.3021H50.5801V33.342H31.3721V36.3021Z" fill="#1B2E50"/>
<path d="M51.5801 44.188H30.3721V49.148H51.5801V44.188Z" fill="#4374C9"/>
<path d="M51.5801 50.148H30.3721C29.8201 50.148 29.3721 49.7 29.3721 49.148V44.188C29.3721 43.636 29.8201 43.188 30.3721 43.188H51.5801C52.1321 43.188 52.5801 43.636 52.5801 44.188V49.148C52.5801 49.7 52.1321 50.148 51.5801 50.148ZM31.3721 48.148H50.5801V45.188H31.3721V48.148Z" fill="#1B2E50"/>
<path d="M51.5801 56.032H30.3721V60.992H51.5801V56.032Z" fill="#4374C9"/>
<path d="M51.5801 61.992H30.3721C29.8201 61.992 29.3721 61.544 29.3721 60.992V56.032C29.3721 55.48 29.8201 55.032 30.3721 55.032H51.5801C52.1321 55.032 52.5801 55.48 52.5801 56.032V60.992C52.5801 61.544 52.1321 61.992 51.5801 61.992ZM31.3721 59.992H50.5801V57.032H31.3721V59.992Z" fill="#1B2E50"/>
<path d="M21.554 44.188H13.75V49.148H21.554V44.188Z" fill="#4374C9"/>
<path d="M21.554 50.148H13.75C13.198 50.148 12.75 49.7 12.75 49.148V44.188C12.75 43.636 13.198 43.188 13.75 43.188H21.554C22.106 43.188 22.554 43.636 22.554 44.188V49.148C22.554 49.7 22.106 50.148 21.554 50.148ZM14.75 48.148H20.554V45.188H14.75V48.148Z" fill="#1B2E50"/>
<path d="M21.554 56.032H13.75V60.992H21.554V56.032Z" fill="#4374C9"/>
<path d="M21.554 61.992H13.75C13.198 61.992 12.75 61.544 12.75 60.992V56.032C12.75 55.48 13.198 55.032 13.75 55.032H21.554C22.106 55.032 22.554 55.48 22.554 56.032V60.992C22.554 61.544 22.106 61.992 21.554 61.992ZM14.75 59.992H20.554V57.032H14.75V59.992Z" fill="#1B2E50"/>
<path d="M53.9243 20.228H28.0303C27.4783 20.228 27.0303 19.78 27.0303 19.228V11.9661C27.0303 11.4141 27.4783 10.9661 28.0303 10.9661H53.9243C54.4763 10.9661 54.9243 11.4141 54.9243 11.9661V19.228C54.9243 19.78 54.4763 20.228 53.9243 20.228ZM29.0303 18.228H52.9243V12.9661H29.0303V18.228Z" fill="#1B2E50"/>
<path d="M40.9761 20.228C40.4241 20.228 39.9761 19.78 39.9761 19.228V11.9661C39.9761 11.4141 40.4241 10.9661 40.9761 10.9661C41.5281 10.9661 41.9761 11.4141 41.9761 11.9661V19.228C41.9761 19.78 41.5281 20.228 40.9761 20.228Z" fill="#1B2E50"/>
<path d="M47.3804 20.228C46.8284 20.228 46.3804 19.78 46.3804 19.228V11.9661C46.3804 11.4141 46.8284 10.9661 47.3804 10.9661C47.9324 10.9661 48.3804 11.4141 48.3804 11.9661V19.228C48.3804 19.78 47.9324 20.228 47.3804 20.228Z" fill="#1B2E50"/>
<path d="M34.5742 20.228C34.0222 20.228 33.5742 19.78 33.5742 19.228V11.9661C33.5742 11.4141 34.0222 10.9661 34.5742 10.9661C35.1262 10.9661 35.5742 11.4141 35.5742 11.9661V19.228C35.5742 19.78 35.1262 20.228 34.5742 20.228Z" fill="#1B2E50"/>
<path d="M67.0061 64.9461C66.9661 64.9461 66.9241 64.9441 66.8841 64.9381C66.4941 64.8901 66.1681 64.6181 66.0501 64.2421L61.4981 49.6401C61.3341 49.1121 61.6281 48.5521 62.1561 48.3881L67.4101 46.7501C67.5101 46.7201 67.6101 46.7041 67.7081 46.7041C68.1341 46.7041 68.5281 46.9781 68.6621 47.4061L73.214 62.0081C73.33 62.3841 73.2181 62.7921 72.9241 63.0541C72.7381 63.2201 72.5001 63.3061 72.2601 63.3061C72.1221 63.3061 71.9821 63.2781 71.8521 63.2181L69.3081 62.0801L67.8621 64.4621C67.6801 64.7621 67.3541 64.9421 67.0081 64.9421L67.0061 64.9461Z" fill="white"/>
<path d="M67.7083 47.7061L72.2603 62.3081L68.9123 60.8101L67.0083 63.944L62.4563 49.342L67.7103 47.7041M67.7083 45.7061C67.5103 45.7061 67.3103 45.736 67.1123 45.798L61.8583 47.436C61.3523 47.594 60.9283 47.9461 60.6823 48.4161C60.4363 48.8861 60.3863 49.434 60.5443 49.94L65.0963 64.542C65.3303 65.292 65.9823 65.836 66.7623 65.932C66.8443 65.942 66.9243 65.946 67.0063 65.946C67.6983 65.946 68.3503 65.586 68.7143 64.984L69.7023 63.3561L71.4403 64.134C71.7023 64.252 71.9803 64.3081 72.2563 64.3081C72.7363 64.3081 73.2123 64.1341 73.5843 63.8041C74.1723 63.2821 74.4003 62.4641 74.1663 61.7141L69.6143 47.1121C69.3483 46.2561 68.5583 45.7061 67.7063 45.7061H67.7083Z" fill="#1B2E50"/>
<path d="M55.956 64.946C55.61 64.946 55.284 64.766 55.102 64.466L53.656 62.084L51.112 63.222C50.982 63.28 50.842 63.31 50.704 63.31C50.464 63.31 50.226 63.224 50.04 63.058C49.746 62.796 49.632 62.388 49.75 62.012L54.302 47.41C54.436 46.982 54.83 46.708 55.256 46.708C55.354 46.708 55.454 46.722 55.554 46.754L60.808 48.392C61.336 48.556 61.63 49.116 61.466 49.644L56.914 64.246C56.798 64.622 56.472 64.894 56.08 64.942C56.04 64.946 55.998 64.95 55.958 64.95L55.956 64.946Z" fill="white"/>
<path d="M55.2542 47.7061L60.5082 49.344L55.9562 63.946L54.0522 60.8121L50.7042 62.3101L55.2562 47.7081M55.2542 45.7061C54.4022 45.7061 53.6122 46.2541 53.3462 47.1121L48.7942 61.7141C48.5602 62.4641 48.7882 63.2821 49.3762 63.8041C49.7502 64.1361 50.2242 64.3081 50.7042 64.3081C50.9802 64.3081 51.2582 64.25 51.5202 64.134L53.2582 63.3561L54.2462 64.984C54.6122 65.586 55.2622 65.946 55.9542 65.946C56.0342 65.946 56.1162 65.942 56.1982 65.932C56.9782 65.836 57.6302 65.292 57.8642 64.542L62.4162 49.94C62.5742 49.434 62.5242 48.8861 62.2782 48.4161C62.0322 47.9461 61.6082 47.594 61.1022 47.436L55.8482 45.798C55.6502 45.736 55.4502 45.7061 55.2522 45.7061H55.2542Z" fill="#1B2E50"/>
<path d="M71.4764 39.958C71.4764 40.99 70.4644 41.848 70.1624 42.778C69.8484 43.742 70.1524 45.03 69.5664 45.832C68.9764 46.642 67.6544 46.75 66.8444 47.34C66.0424 47.924 65.5344 49.152 64.5704 49.464C63.6404 49.766 62.5124 49.082 61.4804 49.082C60.4484 49.082 59.3224 49.766 58.3904 49.464C57.4264 49.15 56.9184 47.924 56.1164 47.34C55.3064 46.75 53.9844 46.642 53.3944 45.832C52.8104 45.03 53.1124 43.742 52.7984 42.778C52.4964 41.848 51.4844 40.988 51.4844 39.958C51.4844 38.928 52.4964 38.068 52.7984 37.138C53.1124 36.174 52.8084 34.886 53.3944 34.084C53.9844 33.274 55.3064 33.166 56.1164 32.576C56.9184 31.992 57.4264 30.764 58.3904 30.452C59.3204 30.15 60.4484 30.834 61.4804 30.834C62.5124 30.834 63.6384 30.15 64.5704 30.452C65.5344 30.766 66.0424 31.992 66.8444 32.576C67.6544 33.166 68.9764 33.274 69.5664 34.084C70.1504 34.886 69.8484 36.174 70.1624 37.138C70.4644 38.068 71.4764 38.928 71.4764 39.958Z" fill="white"/>
<path d="M64.0483 50.5439C63.5163 50.5439 63.0043 50.4079 62.5323 50.2839C62.1443 50.1819 61.7763 50.0839 61.4803 50.0839C61.1843 50.0839 60.8163 50.1819 60.4283 50.2839C59.7163 50.4719 58.9083 50.686 58.0823 50.418C57.2263 50.14 56.6923 49.4779 56.2203 48.8939C55.9783 48.5939 55.7483 48.31 55.5283 48.15C55.3043 47.986 54.9583 47.854 54.5943 47.712C53.8983 47.444 53.1103 47.14 52.5863 46.422C52.0683 45.71 52.0203 44.8679 51.9803 44.1259C51.9583 43.7319 51.9383 43.3579 51.8503 43.0879C51.7703 42.8399 51.5743 42.54 51.3663 42.222C50.9743 41.62 50.4883 40.872 50.4883 39.96C50.4883 39.048 50.9763 38.298 51.3663 37.698C51.5743 37.38 51.7683 37.0799 51.8503 36.8319C51.9383 36.5599 51.9583 36.1879 51.9803 35.7939C52.0223 35.0519 52.0683 34.212 52.5863 33.498C53.1083 32.78 53.8983 32.476 54.5943 32.206C54.9603 32.066 55.3043 31.932 55.5283 31.768C55.7463 31.608 55.9763 31.324 56.2203 31.024C56.6923 30.44 57.2263 29.778 58.0823 29.5C58.9083 29.232 59.7163 29.4459 60.4283 29.6339C60.8163 29.7359 61.1843 29.8339 61.4803 29.8339C61.7763 29.8339 62.1443 29.7359 62.5323 29.6339C63.2443 29.4459 64.0523 29.232 64.8783 29.5C65.7343 29.778 66.2683 30.44 66.7403 31.024C66.9823 31.324 67.2123 31.608 67.4323 31.768C67.6563 31.932 68.0023 32.064 68.3663 32.206C69.0623 32.474 69.8503 32.778 70.3743 33.496C70.8923 34.208 70.9403 35.0499 70.9803 35.7919C71.0023 36.1859 71.0223 36.5599 71.1103 36.8299C71.1903 37.0779 71.3863 37.378 71.5943 37.696C71.9863 38.298 72.4723 39.046 72.4723 39.958C72.4723 40.87 71.9843 41.62 71.5943 42.22C71.3863 42.538 71.1923 42.8379 71.1103 43.0859C71.0223 43.3579 71.0023 43.73 70.9803 44.124C70.9383 44.866 70.8923 45.708 70.3743 46.42C69.8523 47.138 69.0623 47.442 68.3663 47.71C68.0003 47.85 67.6563 47.984 67.4303 48.148C67.2103 48.308 66.9823 48.5919 66.7383 48.8919C66.2663 49.4759 65.7323 50.138 64.8763 50.416C64.5963 50.506 64.3183 50.5419 64.0463 50.5419L64.0483 50.5439ZM61.4803 48.0839C62.0363 48.0839 62.5723 48.226 63.0443 48.35C63.5123 48.474 63.9963 48.602 64.2603 48.516C64.5523 48.422 64.8743 48.0219 65.1863 47.6379C65.5003 47.2499 65.8243 46.8479 66.2563 46.5339C66.6943 46.2159 67.2003 46.02 67.6483 45.848C68.1083 45.67 68.5823 45.488 68.7583 45.246C68.9303 45.01 68.9583 44.504 68.9843 44.016C69.0103 43.534 69.0423 42.99 69.2103 42.472C69.3723 41.972 69.6503 41.5439 69.9203 41.1319C70.2063 40.6939 70.4743 40.28 70.4743 39.96C70.4743 39.64 70.2043 39.2259 69.9203 38.7879C69.6503 38.3739 69.3723 37.948 69.2103 37.448C69.0423 36.93 69.0123 36.384 68.9843 35.904C68.9563 35.416 68.9283 34.91 68.7583 34.674C68.5823 34.432 68.1083 34.25 67.6483 34.072C67.2003 33.9 66.6923 33.7039 66.2563 33.3859C65.8243 33.0719 65.5003 32.6699 65.1863 32.2819C64.8743 31.8959 64.5523 31.498 64.2603 31.404C63.9943 31.318 63.5103 31.446 63.0443 31.568C62.5723 31.692 62.0363 31.8339 61.4803 31.8339C60.9243 31.8339 60.3883 31.692 59.9163 31.568C59.4483 31.444 58.9663 31.316 58.7003 31.402C58.4083 31.496 58.0863 31.8959 57.7743 32.2799C57.4603 32.6679 57.1363 33.0699 56.7043 33.3839C56.2683 33.7019 55.7603 33.898 55.3123 34.07C54.8523 34.248 54.3783 34.43 54.2023 34.672C54.0303 34.908 54.0023 35.414 53.9763 35.902C53.9503 36.384 53.9183 36.928 53.7503 37.446C53.5883 37.946 53.3103 38.3739 53.0403 38.7859C52.7543 39.2239 52.4863 39.638 52.4863 39.958C52.4863 40.278 52.7563 40.6919 53.0403 41.1299C53.3103 41.5439 53.5883 41.97 53.7503 42.47C53.9183 42.988 53.9483 43.534 53.9763 44.014C54.0043 44.502 54.0323 45.0079 54.2023 45.2439C54.3783 45.4859 54.8523 45.6679 55.3123 45.846C55.7603 46.018 56.2683 46.2139 56.7043 46.5319C57.1363 46.8459 57.4603 47.2479 57.7743 47.6359C58.0863 48.0219 58.4083 48.42 58.7003 48.514C58.9663 48.6 59.4503 48.472 59.9163 48.35C60.3883 48.226 60.9243 48.0839 61.4803 48.0839Z" fill="#1B2E50"/>
<path d="M66.9039 41.3139C67.6723 38.3147 65.8638 35.2604 62.8646 34.492C59.8654 33.7236 56.8111 35.5321 56.0427 38.5313C55.2743 41.5305 57.0827 44.5848 60.082 45.3532C63.0812 46.1216 66.1355 44.3132 66.9039 41.3139Z" fill="#4374C9"/>
<path d="M70.6022 69.2319H57.9302C57.3782 69.2319 56.9302 68.7839 56.9302 68.2319C56.9302 67.6799 57.3782 67.2319 57.9302 67.2319H70.6022C71.1542 67.2319 71.6022 67.6799 71.6022 68.2319C71.6022 68.7839 71.1542 69.2319 70.6022 69.2319Z" fill="#1B2E50"/>
</svg>
