<svg width="28" height="29" viewBox="0 0 28 29" fill="none" xmlns="http://www.w3.org/2000/svg">
    <path d="M4.9 9.6h18.2v14.1a1.3 1.3 0 0 1-1.3 1.3H6.2a1.3 1.3 0 0 1-1.3-1.3V9.6z" fill="#A1ACC2" stroke="#A1ACC2" stroke-width="1.4"/>
    <mask id="qx5fyk7pca" fill="#fff">
        <path d="M7 6.3a3 3 0 0 1 3-3h8a3 3 0 0 1 3 3v4H7v-4z"/>
    </mask>
    <path d="M5 6.3a5 5 0 0 1 5-5h8a5 5 0 0 1 5 5h-4a1 1 0 0 0-1-1h-8a1 1 0 0 0-1 1H5zm16 4H7h14zm-16 0v-4a5 5 0 0 1 5-5v4a1 1 0 0 0-1 1v4H5zm13-9a5 5 0 0 1 5 5v4h-4v-4a1 1 0 0 0-1-1v-4z" fill="#A1ACC2" mask="url(#qx5fyk7pca)"/>
    <path stroke="#fff" stroke-width="2" d="M13.993 14.5v2.8"/>
</svg>
