<svg width="80" height="80" viewBox="0 0 80 80" fill="none" xmlns="http://www.w3.org/2000/svg">
<path d="M15.9921 47.9599V37.344H8.87212C8.81412 37.344 8.76611 37.392 8.76611 37.45V47.852C8.76611 47.91 8.81412 47.958 8.87212 47.958H15.9921V47.9599Z" fill="#4374C9"/>
<path d="M34.1179 43.278V31.5959C30.7959 33.7079 24.2059 37.336 18.1499 37.37V47.9339C24.2079 47.9659 30.7939 51.596 34.1179 53.708V43.278Z" fill="white"/>
<path d="M10.1841 57.8441H12.1041L14.8841 50.1201H11.7021L10.1841 57.8441Z" fill="white"/>
<path d="M55.5421 22.1599C47.9341 22.1599 41.4481 26.446 40.1161 32.352C39.9521 33.074 39.8701 33.8059 39.8701 34.5299C39.8701 37.7559 41.4421 40.8119 44.3001 43.1339C44.7841 43.5479 44.9401 44.1859 44.7141 44.7419L42.8601 49.5919L49.5041 46.328C49.8481 46.176 50.1901 46.1519 50.5061 46.2459C52.1181 46.6759 53.8201 46.898 55.5421 46.898C64.1821 46.898 71.2141 41.3499 71.2141 34.5299C71.2141 33.8039 71.1321 33.072 70.9701 32.354C69.6381 26.446 63.1501 22.1599 55.5441 22.1599H55.5421ZM62.9021 33.6219C62.9021 34.7739 62.5561 35.89 61.9301 36.866C62.3221 37.12 62.7141 37.3719 63.1061 37.6259C63.1121 37.6159 63.1161 37.6039 63.1221 37.5959C63.5361 36.9539 64.3941 36.7699 65.0361 37.1839C65.6781 37.5999 65.8621 38.456 65.4481 39.098C65.2541 39.4 64.9601 39.596 64.6381 39.682C64.5901 39.804 64.5221 39.918 64.4401 40.016C64.4881 40.338 64.4301 40.676 64.2401 40.97C63.8261 41.612 62.9681 41.796 62.3261 41.382C61.6841 40.968 61.5001 40.1099 61.9141 39.4679C61.9201 39.4579 61.9281 39.45 61.9361 39.44C61.4461 39.124 60.9581 38.8079 60.4681 38.4919C60.1221 38.7719 59.7441 39.0239 59.3381 39.2459V40.4059C59.3381 41.2139 58.6801 41.8719 57.8721 41.8719H52.9841C52.1761 41.8719 51.5181 41.2139 51.5181 40.4059V39.2459C51.2301 39.0899 50.9581 38.918 50.7001 38.732C50.1841 39.066 49.6681 39.398 49.1521 39.732C49.1581 39.742 49.1681 39.7499 49.1741 39.7599C49.5881 40.4019 49.4041 41.258 48.7621 41.674C48.1201 42.088 47.2641 41.904 46.8481 41.262C46.6581 40.968 46.6001 40.63 46.6481 40.308C46.5661 40.208 46.5001 40.0939 46.4501 39.9719C46.1281 39.8859 45.8341 39.6919 45.6401 39.3879C45.2261 38.7459 45.4101 37.89 46.0521 37.474C46.6941 37.058 47.5501 37.244 47.9661 37.886C47.9721 37.896 47.9761 37.906 47.9821 37.916C48.3661 37.668 48.7501 37.4199 49.1341 37.1719C48.3781 36.1259 47.9541 34.8979 47.9541 33.6219C47.9541 32.6579 48.1961 31.7439 48.6181 30.9179C48.3041 30.7139 47.9881 30.512 47.6741 30.308C47.2581 30.946 46.4041 31.13 45.7641 30.716C45.1221 30.302 44.9381 29.444 45.3521 28.802C45.6001 28.416 46.0101 28.1999 46.4341 28.1759C46.2821 27.7779 46.3121 27.316 46.5601 26.932C46.9741 26.29 47.8321 26.106 48.4741 26.52C49.1161 26.934 49.3001 27.7919 48.8861 28.4339C48.8721 28.4559 48.8541 28.4719 48.8401 28.4919C49.1981 28.7239 49.5561 28.954 49.9161 29.186C51.2841 27.864 53.2461 27.028 55.4321 27.028C57.7621 27.028 59.8461 27.974 61.2181 29.454C61.5641 29.23 61.9101 29.0059 62.2561 28.7839C62.2421 28.7639 62.2241 28.7479 62.2101 28.7259C61.7961 28.0839 61.9801 27.228 62.6221 26.812C63.2641 26.398 64.1201 26.582 64.5361 27.224C64.7841 27.61 64.8141 28.0699 64.6621 28.4679C65.0881 28.4919 65.4961 28.71 65.7441 29.094C66.1581 29.736 65.9741 30.592 65.3321 31.008C64.6921 31.422 63.8381 31.238 63.4221 30.6C63.0821 30.82 62.7421 31.038 62.4041 31.258C62.7261 31.994 62.9101 32.7879 62.9101 33.6219H62.9021Z" fill="white"/>
<path d="M55.4263 29.188C52.4963 29.188 50.1104 31.176 50.1104 33.622C50.1104 35.17 51.0584 36.58 52.6444 37.398C53.2804 37.726 53.6763 38.374 53.6763 39.092V39.71H57.1763V39.092C57.1763 38.374 57.5703 37.726 58.2063 37.398C59.7943 36.58 60.7424 35.17 60.7424 33.622C60.7424 31.178 58.3583 29.188 55.4263 29.188ZM53.1003 36.5521C52.2023 36.5521 51.4743 35.824 51.4743 34.926C51.4743 34.028 52.2023 33.3 53.1003 33.3C53.9983 33.3 54.7263 34.028 54.7263 34.926C54.7263 35.824 53.9983 36.5521 53.1003 36.5521ZM56.2964 38.116H54.5563C54.4043 38.116 54.3163 37.944 54.4043 37.82L55.2743 36.606C55.3483 36.502 55.5043 36.502 55.5783 36.606L56.4483 37.82C56.5363 37.944 56.4484 38.116 56.2964 38.116ZM57.7503 36.5521C56.8523 36.5521 56.1243 35.824 56.1243 34.926C56.1243 34.028 56.8523 33.3 57.7503 33.3C58.6483 33.3 59.3763 34.028 59.3763 34.926C59.3763 35.824 58.6483 36.5521 57.7503 36.5521Z" fill="#4374C9"/>
<path d="M8.87012 50.1201H9.4981L7.98611 57.8201C7.88011 58.3581 8.01812 58.9121 8.36812 59.3361C8.71612 59.7601 9.2321 60.004 9.7821 60.004H12.3361C13.1061 60.004 13.7981 59.5181 14.0581 58.7941L17.1801 50.1201H17.2501C23.6821 49.6901 31.5241 54.562 33.7801 56.064C34.0501 56.244 34.3601 56.334 34.6701 56.334C34.9301 56.334 35.1901 56.2701 35.4281 56.1441C35.9521 55.8641 36.2761 55.32 36.2761 54.726V30.58C36.2761 29.986 35.9501 29.4421 35.4281 29.1621C34.9041 28.8821 34.2741 28.912 33.7781 29.242C31.5221 30.744 23.6641 35.602 17.2481 35.188H8.86812C7.61812 35.186 6.6001 36.2021 6.6001 37.4521V47.854C6.6001 49.104 7.61812 50.122 8.86812 50.122L8.87012 50.1201ZM18.1521 43.2781V37.3701C24.2081 37.3361 30.7961 33.708 34.1201 31.596V53.708C30.7961 51.596 24.2101 47.964 18.1521 47.934V43.2781ZM12.1041 57.8441H10.1841L11.7021 50.1201H14.8861L12.1041 57.8441ZM8.76411 43.2781V37.4521C8.76411 37.3941 8.81212 37.346 8.87012 37.346H15.9901V47.9621H8.87012C8.81212 47.9621 8.76411 47.914 8.76411 47.856V43.28V43.2781Z" fill="#1B2E50"/>
<path d="M65.3261 31.008C65.9681 30.594 66.1521 29.736 65.7381 29.094C65.4901 28.708 65.0801 28.4919 64.6561 28.4679C64.8081 28.0699 64.7781 27.608 64.5301 27.224C64.1161 26.582 63.2582 26.398 62.6162 26.812C61.9742 27.226 61.7901 28.0839 62.2041 28.7259C62.2181 28.7479 62.2361 28.7639 62.2501 28.7839C61.9041 29.0079 61.5581 29.23 61.2121 29.454C59.8401 27.976 57.7561 27.028 55.4261 27.028C53.2421 27.028 51.2781 27.864 49.9101 29.186C49.5521 28.954 49.1921 28.724 48.8341 28.492C48.8481 28.472 48.8661 28.4559 48.8801 28.4339C49.2941 27.7919 49.1102 26.936 48.4682 26.52C47.8262 26.106 46.9701 26.29 46.5541 26.932C46.3061 27.318 46.2761 27.7779 46.4281 28.1759C46.0021 28.2019 45.5942 28.418 45.3462 28.802C44.9322 29.444 45.1161 30.3 45.7581 30.716C46.3981 31.13 47.2522 30.946 47.6682 30.308C47.9822 30.512 48.2981 30.7139 48.6121 30.9179C48.1881 31.7439 47.9481 32.6579 47.9481 33.6219C47.9481 34.8979 48.3721 36.1279 49.1281 37.1719C48.7441 37.4199 48.3601 37.668 47.9761 37.916C47.9701 37.906 47.9661 37.894 47.9601 37.886C47.5461 37.244 46.6882 37.06 46.0462 37.474C45.4042 37.888 45.2201 38.7459 45.6341 39.3879C45.8301 39.6899 46.1222 39.8859 46.4442 39.9719C46.4922 40.0939 46.5582 40.208 46.6422 40.308C46.5942 40.628 46.6522 40.968 46.8422 41.262C47.2562 41.904 48.1141 42.088 48.7561 41.674C49.3981 41.26 49.5822 40.4019 49.1682 39.7599C49.1622 39.7499 49.1522 39.742 49.1462 39.732C49.6622 39.398 50.1782 39.066 50.6942 38.732C50.9522 38.918 51.2241 39.09 51.5121 39.246V40.4059C51.5121 41.2139 52.1701 41.8719 52.9781 41.8719H57.8662C58.6742 41.8719 59.3321 41.2139 59.3321 40.4059V39.246C59.7381 39.026 60.1161 38.772 60.4621 38.492C60.9521 38.808 61.4401 39.124 61.9301 39.44C61.9241 39.45 61.9161 39.4579 61.9081 39.4679C61.4941 40.1099 61.6782 40.966 62.3202 41.382C62.9622 41.796 63.8181 41.612 64.2341 40.97C64.4241 40.676 64.4821 40.338 64.4341 40.016C64.5161 39.916 64.5841 39.802 64.6321 39.682C64.9541 39.596 65.2482 39.402 65.4422 39.098C65.8562 38.456 65.6721 37.5999 65.0301 37.1839C64.3881 36.7699 63.5322 36.954 63.1162 37.596C63.1102 37.606 63.1061 37.6179 63.1001 37.6259C62.7081 37.3739 62.3161 37.12 61.9241 36.866C62.5501 35.89 62.8962 34.7739 62.8962 33.6219C62.8962 32.7879 62.7122 31.992 62.3902 31.258C62.7302 31.038 63.0701 30.82 63.4081 30.6C63.8241 31.238 64.6782 31.422 65.3182 31.008H65.3261ZM58.2061 37.398C57.5701 37.726 57.1761 38.374 57.1761 39.092V39.7099H53.6761V39.092C53.6761 38.374 53.2822 37.726 52.6442 37.398C51.0582 36.58 50.1101 35.1699 50.1101 33.6219C50.1101 31.1779 52.4961 29.1879 55.4261 29.1879C58.3561 29.1879 60.7422 31.1759 60.7422 33.6219C60.7422 35.1699 59.7941 36.58 58.2061 37.398Z" fill="#4374C9"/>
<path d="M53.1001 36.554C53.9981 36.554 54.7261 35.826 54.7261 34.928C54.7261 34.03 53.9981 33.302 53.1001 33.302C52.2021 33.302 51.4741 34.03 51.4741 34.928C51.4741 35.826 52.2021 36.554 53.1001 36.554Z" fill="white"/>
<path d="M55.5781 36.6039C55.5041 36.4999 55.3481 36.4999 55.2741 36.6039L54.4041 37.8178C54.3161 37.9418 54.4041 38.1138 54.5561 38.1138H56.2962C56.4482 38.1138 56.5361 37.9418 56.4481 37.8178L55.5781 36.6039Z" fill="white"/>
<path d="M57.75 36.554C58.648 36.554 59.376 35.826 59.376 34.928C59.376 34.03 58.648 33.302 57.75 33.302C56.852 33.302 56.124 34.03 56.124 34.928C56.124 35.826 56.852 36.554 57.75 36.554Z" fill="white"/>
<path d="M55.542 20C46.934 20 39.56 24.996 38.008 31.878C37.81 32.754 37.71 33.646 37.71 34.53C37.71 38.258 39.418 41.77 42.512 44.454L40.152 50.624V50.63C39.944 51.176 40.092 51.78 40.524 52.17C40.788 52.408 41.122 52.53 41.458 52.53C41.668 52.53 41.882 52.482 42.078 52.384L50.192 48.398C51.928 48.838 53.728 49.062 55.544 49.062C65.376 49.062 73.376 42.544 73.376 34.532C73.376 33.646 73.276 32.754 73.078 31.88C71.526 24.998 64.152 20.0021 55.544 20.0021L55.542 20ZM55.542 46.898C53.82 46.898 52.116 46.676 50.506 46.246C50.19 46.152 49.848 46.174 49.504 46.328L42.86 49.592L44.714 44.742C44.942 44.186 44.784 43.548 44.3 43.134C41.444 40.81 39.87 37.754 39.87 34.53C39.87 33.806 39.952 33.074 40.116 32.352C41.448 26.4461 47.936 22.16 55.542 22.16C63.148 22.16 69.636 26.446 70.968 32.354C71.13 33.072 71.212 33.804 71.212 34.53C71.212 41.35 64.182 46.898 55.54 46.898H55.542Z" fill="#1B2E50"/>
</svg>
