<svg width="80" height="80" viewBox="0 0 80 80" fill="none" xmlns="http://www.w3.org/2000/svg">
<g clip-path="url(#clip0_231_24526)">
<path d="M32.3564 42.416C24.7984 42.416 18.6484 36.266 18.6484 28.708C18.6484 21.15 24.7984 15 32.3564 15C39.9144 15 46.0644 21.15 46.0644 28.708C46.0644 36.266 39.9144 42.416 32.3564 42.416ZM32.3564 18.6C26.7824 18.6 22.2484 23.134 22.2484 28.708C22.2484 34.282 26.7824 38.816 32.3564 38.816C37.9304 38.816 42.4644 34.282 42.4644 28.708C42.4644 23.134 37.9304 18.6 32.3564 18.6Z" fill="#4374C9"/>
<path d="M48.712 29.7219H16V62.4339H48.712V29.7219Z" fill="white"/>
<path d="M48.712 63.4339H16C15.448 63.4339 15 62.9859 15 62.4339V29.7219C15 29.1699 15.448 28.7219 16 28.7219H48.712C49.264 28.7219 49.712 29.1699 49.712 29.7219V62.4339C49.712 62.9859 49.264 63.4339 48.712 63.4339ZM17 61.4339H47.712V30.7219H17V61.4339Z" fill="#1B2E50"/>
<path d="M35.9261 41.7341C35.9261 39.7621 34.3281 38.1641 32.3561 38.1641C30.3841 38.1641 28.7861 39.7621 28.7861 41.7341C28.7861 43.0841 29.5361 44.2581 30.6401 44.8641V53.9901H34.0741V44.8641C35.1781 44.2561 35.9281 43.0821 35.9281 41.7341H35.9261Z" fill="white"/>
<path d="M34.0721 54.9901H30.6401C30.0881 54.9901 29.6401 54.5421 29.6401 53.9901V45.4101C28.4841 44.5541 27.7861 43.1961 27.7861 41.7341C27.7861 39.2141 29.8361 37.1641 32.3561 37.1641C34.8761 37.1641 36.9261 39.2141 36.9261 41.7341C36.9261 43.1941 36.2281 44.5541 35.0721 45.4101V53.9901C35.0721 54.5421 34.6241 54.9901 34.0721 54.9901ZM31.6401 52.9901H33.0721V44.8641C33.0721 44.5001 33.2701 44.1641 33.5901 43.9881C34.4141 43.5361 34.9261 42.6721 34.9261 41.7341C34.9261 40.3161 33.7721 39.1641 32.3561 39.1641C30.9401 39.1641 29.7861 40.3181 29.7861 41.7341C29.7861 42.6721 30.2981 43.5361 31.1221 43.9881C31.4421 44.1641 31.6401 44.5001 31.6401 44.8641V52.9901Z" fill="#1B2E50"/>
<path d="M65.8981 54.808C65.8981 52.064 64.0121 49.76 61.4641 49.124V32.196H58.6101V34.418H54.1621V36.978H58.6101V39.798H54.1621V42.358H58.6101V49.124C56.0641 49.762 54.1761 52.064 54.1761 54.808C54.1761 58.044 56.8001 60.668 60.0361 60.668C63.2721 60.668 65.8961 58.044 65.8961 54.808H65.8981ZM57.4101 54.808C57.4101 53.358 58.5861 52.18 60.0381 52.18C61.4901 52.18 62.6661 53.356 62.6661 54.808C62.6661 56.26 61.4901 57.436 60.0381 57.436C58.5861 57.436 57.4101 56.26 57.4101 54.808Z" fill="#4374C9"/>
</g>
<defs>
<clipPath id="clip0_231_24526">
<rect width="50.898" height="48.434" fill="white" transform="translate(15 15)"/>
</clipPath>
</defs>
</svg>
