<svg width="80" height="80" viewBox="0 0 80 80" fill="none" xmlns="http://www.w3.org/2000/svg">
<path d="M43.5863 15.9619C44.9043 14.8919 45.7483 13.2579 45.7483 11.4279C45.7483 8.20391 43.1343 5.58789 39.9083 5.58789C36.6823 5.58789 34.0683 8.20191 34.0683 11.4279C34.0683 13.2579 34.9103 14.8919 36.2303 15.9619C32.8783 18.5639 30.5283 24.2119 30.5283 28.0879C30.5283 33.2679 34.7283 33.3139 39.9083 33.3139C45.0883 33.3139 49.2883 33.2679 49.2883 28.0879C49.2883 24.2139 46.9383 18.5639 43.5863 15.9619Z" fill="#4374C9"/>
<path d="M39.9083 34.3139C37.2903 34.3139 34.8163 34.3139 32.9143 33.5759C30.6363 32.6919 29.5283 30.8959 29.5283 28.0879C29.5283 24.4599 31.5023 19.0359 34.7523 15.9219C33.6723 14.6859 33.0703 13.0999 33.0703 11.4279C33.0703 7.65591 36.1383 4.58789 39.9103 4.58789C43.6823 4.58789 46.7503 7.65591 46.7503 11.4279C46.7503 13.0999 46.1483 14.6859 45.0683 15.9219C48.3183 19.0359 50.2923 24.4619 50.2923 28.0879C50.2923 30.8959 49.1843 32.6919 46.9063 33.5759C45.0043 34.3139 42.5303 34.3139 39.9123 34.3139H39.9083ZM39.9083 6.58989C37.2403 6.58989 35.0683 8.75991 35.0683 11.4299C35.0683 12.8939 35.7203 14.2639 36.8603 15.1879C37.0963 15.3799 37.2323 15.6699 37.2303 15.9759C37.2263 16.2819 37.0843 16.5679 36.8443 16.7539C33.6663 19.2219 31.5303 24.6079 31.5303 28.0899C31.5303 31.9339 33.9563 32.3159 39.9103 32.3159C45.8643 32.3159 48.2903 31.9339 48.2903 28.0899C48.2903 24.6079 46.1543 19.2219 42.9763 16.7539C42.7363 16.5659 42.5923 16.2799 42.5903 15.9759C42.5863 15.6699 42.7223 15.3819 42.9603 15.1879C44.0983 14.2639 44.7523 12.8939 44.7523 11.4299C44.7523 8.76191 42.5823 6.58989 39.9123 6.58989H39.9083Z" fill="#1B2E50"/>
<path d="M42.9643 59.87C44.0603 58.98 44.7603 57.624 44.7603 56.102C44.7603 53.422 42.5883 51.25 39.9083 51.25C37.2283 51.25 35.0563 53.422 35.0563 56.102C35.0563 57.622 35.7563 58.98 36.8523 59.87C34.0683 62.032 32.1143 66.726 32.1143 69.944C32.1143 74.248 35.6043 74.286 39.9083 74.286C44.2123 74.286 47.7023 74.248 47.7023 69.944C47.7023 66.724 45.7503 62.032 42.9643 59.87Z" fill="white"/>
<path d="M39.9083 75.2879C35.7863 75.2879 31.1143 75.2879 31.1143 69.9459C31.1143 66.9399 32.7283 62.464 35.3923 59.826C34.5323 58.788 34.0563 57.48 34.0563 56.104C34.0563 52.878 36.6803 50.252 39.9083 50.252C43.1363 50.252 45.7603 52.876 45.7603 56.104C45.7603 57.48 45.2823 58.788 44.4243 59.826C47.0883 62.464 48.7023 66.9379 48.7023 69.9459C48.7023 75.2879 44.0303 75.2879 39.9083 75.2879ZM39.9083 52.252C37.7843 52.252 36.0563 53.98 36.0563 56.104C36.0563 57.268 36.5763 58.3579 37.4823 59.0959C37.7183 59.2879 37.8543 59.578 37.8523 59.884C37.8483 60.19 37.7063 60.476 37.4663 60.662C34.8643 62.682 33.1163 67.0939 33.1163 69.9459C33.1163 72.9999 34.9783 73.2879 39.9103 73.2879C44.8423 73.2879 46.7043 72.9999 46.7043 69.9459C46.7043 67.0919 44.9563 62.682 42.3543 60.662C42.1143 60.474 41.9703 60.188 41.9683 59.884C41.9643 59.578 42.1003 59.2899 42.3383 59.0959C43.2443 58.3599 43.7643 57.27 43.7643 56.104C43.7643 53.98 42.0363 52.252 39.9123 52.252H39.9083Z" fill="#1B2E50"/>
<path d="M66.5003 59.87C67.5963 58.98 68.2963 57.624 68.2963 56.102C68.2963 53.422 66.1243 51.25 63.4443 51.25C60.7643 51.25 58.5923 53.422 58.5923 56.102C58.5923 57.622 59.2923 58.98 60.3883 59.87C57.6043 62.032 55.6523 66.726 55.6523 69.944C55.6523 74.248 59.1423 74.286 63.4463 74.286C67.7503 74.286 71.2403 74.248 71.2403 69.944C71.2403 66.724 69.2883 62.032 66.5023 59.87H66.5003Z" fill="white"/>
<path d="M63.4444 75.2879C59.3224 75.2879 54.6504 75.2879 54.6504 69.9459C54.6504 66.9399 56.2644 62.464 58.9284 59.826C58.0684 58.788 57.5924 57.48 57.5924 56.104C57.5924 52.878 60.2164 50.252 63.4444 50.252C66.6724 50.252 69.2964 52.876 69.2964 56.104C69.2964 57.48 68.8184 58.788 67.9604 59.826C70.6244 62.464 72.2384 66.9379 72.2384 69.9459C72.2384 75.2879 67.5664 75.2879 63.4444 75.2879ZM63.4444 52.252C61.3204 52.252 59.5924 53.98 59.5924 56.104C59.5924 57.268 60.1124 58.3579 61.0184 59.0959C61.2544 59.2879 61.3904 59.578 61.3884 59.884C61.3844 60.19 61.2424 60.476 61.0024 60.662C58.4004 62.682 56.6524 67.0939 56.6524 69.9459C56.6524 72.9999 58.5144 73.2879 63.4464 73.2879C68.3784 73.2879 70.2404 72.9999 70.2404 69.9459C70.2404 67.0919 68.4924 62.682 65.8904 60.662C65.6504 60.474 65.5064 60.188 65.5044 59.884C65.5004 59.578 65.6364 59.2899 65.8744 59.0959C66.7804 58.3599 67.3004 57.27 67.3004 56.104C67.3004 53.98 65.5724 52.252 63.4484 52.252H63.4444Z" fill="#1B2E50"/>
<path d="M13.3142 59.87C12.2182 58.98 11.5182 57.624 11.5182 56.102C11.5182 53.422 13.6902 51.25 16.3702 51.25C19.0502 51.25 21.2222 53.422 21.2222 56.102C21.2222 57.622 20.5222 58.98 19.4262 59.87C22.2102 62.032 24.1642 66.726 24.1642 69.944C24.1642 74.248 20.6742 74.286 16.3702 74.286C12.0662 74.286 8.57617 74.248 8.57617 69.944C8.57617 66.724 10.5282 62.032 13.3142 59.87Z" fill="white"/>
<path d="M16.3702 75.2879C12.2482 75.2879 7.57617 75.2879 7.57617 69.9459C7.57617 66.9399 9.19017 62.464 11.8542 59.826C10.9942 58.788 10.5182 57.48 10.5182 56.104C10.5182 52.878 13.1422 50.252 16.3702 50.252C19.5982 50.252 22.2222 52.876 22.2222 56.104C22.2222 57.48 21.7442 58.788 20.8862 59.826C23.5502 62.464 25.1642 66.9379 25.1642 69.9459C25.1642 75.2879 20.4922 75.2879 16.3702 75.2879ZM16.3702 52.252C14.2462 52.252 12.5182 53.98 12.5182 56.104C12.5182 57.268 13.0382 58.3579 13.9442 59.0959C14.1802 59.2879 14.3162 59.578 14.3142 59.884C14.3102 60.19 14.1682 60.476 13.9282 60.662C11.3262 62.682 9.57817 67.0939 9.57817 69.9459C9.57817 72.9999 11.4402 73.2879 16.3722 73.2879C21.3042 73.2879 23.1662 72.9999 23.1662 69.9459C23.1662 67.0919 21.4182 62.682 18.8162 60.662C18.5762 60.474 18.4322 60.188 18.4302 59.884C18.4262 59.578 18.5622 59.2899 18.8002 59.0959C19.7062 58.3599 20.2262 57.27 20.2262 56.104C20.2262 53.98 18.4982 52.252 16.3742 52.252H16.3702Z" fill="#1B2E50"/>
<path d="M63.4441 42.074H16.3701C15.8181 42.074 15.3701 41.626 15.3701 41.074C15.3701 40.522 15.8181 40.074 16.3701 40.074H63.4441C63.9961 40.074 64.4441 40.522 64.4441 41.074C64.4441 41.626 63.9961 42.074 63.4441 42.074Z" fill="#1B2E50"/>
<path d="M63.4443 51.4C62.8923 51.4 62.4443 50.952 62.4443 50.4V41.074C62.4443 40.522 62.8923 40.074 63.4443 40.074C63.9963 40.074 64.4443 40.522 64.4443 41.074V50.4C64.4443 50.952 63.9963 51.4 63.4443 51.4Z" fill="#1B2E50"/>
<path d="M16.3701 51.4C15.8181 51.4 15.3701 50.952 15.3701 50.4V41.074C15.3701 40.522 15.8181 40.074 16.3701 40.074C16.9221 40.074 17.3701 40.522 17.3701 41.074V50.4C17.3701 50.952 16.9221 51.4 16.3701 51.4Z" fill="#1B2E50"/>
<path d="M39.9082 51.4C39.3562 51.4 38.9082 50.952 38.9082 50.4V33.314C38.9082 32.762 39.3562 32.314 39.9082 32.314C40.4602 32.314 40.9082 32.762 40.9082 33.314V50.4C40.9082 50.952 40.4602 51.4 39.9082 51.4Z" fill="#1B2E50"/>
</svg>
