<svg width="81" height="81" viewBox="0 0 81 81" fill="none" xmlns="http://www.w3.org/2000/svg">
<path d="M61.6142 5.43591H53.2443C46.6763 5.43591 41.3022 10.8099 41.3022 17.3779C41.3022 23.9459 46.6763 29.3199 53.2443 29.3199H55.0022V34.5439C55.0022 35.8759 56.6782 36.4639 57.5102 35.4259L62.4362 29.2879C68.6242 28.8599 73.5563 23.6679 73.5563 17.3779C73.5563 10.8099 68.1822 5.43591 61.6142 5.43591Z" fill="#4374C9"/>
<path d="M56.4262 36.9579C56.1562 36.9579 55.8822 36.9119 55.6122 36.8179C54.6342 36.4739 54.0022 35.5819 54.0022 34.5439V30.3199H53.2443C46.1083 30.3199 40.3022 24.5139 40.3022 17.3779C40.3022 10.2419 46.1083 4.43591 53.2443 4.43591H61.6142C68.7502 4.43591 74.5563 10.2419 74.5563 17.3779C74.5563 24.0019 69.4942 29.5699 62.9502 30.2479L58.2902 36.0519C57.8202 36.6379 57.1382 36.9579 56.4262 36.9579ZM53.2443 6.43591C47.2103 6.43591 42.3022 11.3439 42.3022 17.3779C42.3022 23.4119 47.2103 28.3199 53.2443 28.3199H55.0022C55.5542 28.3199 56.0022 28.7679 56.0022 29.3199V34.5439C56.0022 34.7959 56.1742 34.8939 56.2762 34.9299C56.3782 34.9659 56.5743 34.9959 56.7323 34.7999L61.6582 28.6619C61.8322 28.4439 62.0903 28.3099 62.3682 28.2899C68.0802 27.8959 72.5563 23.1019 72.5563 17.3759C72.5563 11.3419 67.6482 6.43391 61.6142 6.43391H53.2443V6.43591Z" fill="#1B2E50"/>
<path d="M30.0203 75.454H26.1583C25.0443 75.454 23.9823 74.658 23.6343 73.562L14.3263 44.21H22.8743L31.9203 72.736C32.3683 74.152 31.4583 75.454 30.0183 75.454H30.0203Z" fill="white"/>
<path d="M30.0203 76.454H26.1583C24.6203 76.454 23.1563 75.3639 22.6803 73.8639L13.3723 44.512C13.2763 44.208 13.3303 43.8759 13.5183 43.6199C13.7063 43.3619 14.0063 43.21 14.3243 43.21H22.8723C23.3083 43.21 23.6943 43.492 23.8263 43.908L32.8723 72.434C33.1883 73.432 33.0383 74.46 32.4583 75.25C31.8983 76.016 31.0083 76.454 30.0163 76.454H30.0203ZM15.6943 45.21L24.5883 73.26C24.8043 73.942 25.4803 74.454 26.1583 74.454H30.0203C30.3723 74.454 30.6663 74.3179 30.8483 74.0679C31.0463 73.7959 31.0903 73.4219 30.9683 73.0379L22.1443 45.21H15.6943Z" fill="#1B2E50"/>
<path d="M15.9451 48.4198C19.7539 47.5208 22.1128 43.7044 21.2138 39.8956C20.3149 36.0867 16.4984 33.7278 12.6896 34.6268C8.88076 35.5258 6.52185 39.3422 7.42081 43.151C8.31978 46.9599 12.1362 49.3188 15.9451 48.4198Z" fill="white"/>
<path d="M14.3283 49.5999C9.87031 49.5999 6.24231 45.9738 6.24231 41.5138C6.24231 37.0538 9.86831 33.4279 14.3283 33.4279C18.7883 33.4279 22.4143 37.0538 22.4143 41.5138C22.4143 45.9738 18.7883 49.5999 14.3283 49.5999ZM14.3283 35.4299C10.9723 35.4299 8.24231 38.1598 8.24231 41.5158C8.24231 44.8718 10.9723 47.6019 14.3283 47.6019C17.6843 47.6019 20.4143 44.8718 20.4143 41.5158C20.4143 38.1598 17.6843 35.4299 14.3283 35.4299Z" fill="#1B2E50"/>
<path d="M49.205 46.6457C52.6822 45.7445 54.7704 42.1952 53.8692 38.718C52.968 35.2408 49.4187 33.1526 45.9415 34.0538C42.4643 34.955 40.3761 38.5044 41.2773 41.9815C42.1785 45.4587 45.7278 47.5469 49.205 46.6457Z" fill="white"/>
<path d="M47.5643 47.8639C43.4263 47.8639 40.0603 44.498 40.0603 40.36C40.0603 36.222 43.4263 32.856 47.5643 32.856C51.7023 32.856 55.0683 36.222 55.0683 40.36C55.0683 44.498 51.7023 47.8639 47.5643 47.8639ZM47.5643 34.856C44.5283 34.856 42.0603 37.326 42.0603 40.36C42.0603 43.394 44.5303 45.8639 47.5643 45.8639C50.5983 45.8639 53.0683 43.394 53.0683 40.36C53.0683 37.326 50.5983 34.856 47.5643 34.856Z" fill="#1B2E50"/>
<path d="M43.8642 56.014C45.8582 57.246 48.4302 55.806 48.4302 53.462V29.566C48.4302 27.222 45.8582 25.78 43.8642 27.014C38.4282 30.376 28.4282 35.06 15.4482 34.574V48.454C28.4282 47.968 38.4282 52.652 43.8642 56.014Z" fill="white"/>
<path d="M45.4322 57.4679C44.7102 57.4679 43.9882 57.2659 43.3382 56.8639C37.4582 53.2279 27.8522 48.988 15.4862 49.452C15.2142 49.462 14.9502 49.3619 14.7542 49.1719C14.5582 48.9839 14.4482 48.724 14.4482 48.452V34.5719C14.4482 34.2999 14.5582 34.04 14.7542 33.852C14.9502 33.664 15.2142 33.5639 15.4862 33.5719C27.8542 34.0339 37.4582 29.796 43.3382 26.16C44.5842 25.388 46.0942 25.3559 47.3762 26.0699C48.6622 26.7859 49.4282 28.0919 49.4282 29.5639V53.46C49.4282 54.932 48.6602 56.238 47.3762 56.954C46.7622 57.296 46.0962 57.4659 45.4302 57.4659L45.4322 57.4679ZM17.3462 47.4179C29.2842 47.4179 38.5842 51.5719 44.3902 55.1639C45.0122 55.5479 45.7642 55.564 46.4022 55.208C47.0442 54.85 47.4282 54.196 47.4282 53.462V29.5659C47.4282 28.8299 47.0442 28.1779 46.4022 27.8199C45.7622 27.4639 45.0102 27.4799 44.3902 27.8639C38.4382 31.5439 28.8162 35.818 16.4482 35.602V47.426C16.7482 47.42 17.0482 47.4179 17.3462 47.4179Z" fill="#1B2E50"/>
<path d="M26.7223 49.216V33.81C26.7223 32.8038 25.9066 31.988 24.9003 31.988H16.6243C15.618 31.988 14.8023 32.8038 14.8023 33.81L14.8023 49.216C14.8023 50.2223 15.618 51.038 16.6243 51.038H24.9003C25.9066 51.038 26.7223 50.2223 26.7223 49.216Z" fill="#4374C9"/>
<path d="M24.9003 52.04H16.6223C15.0663 52.04 13.8003 50.774 13.8003 49.218V33.812C13.8003 32.256 15.0663 30.99 16.6223 30.99H24.9003C26.4563 30.99 27.7223 32.256 27.7223 33.812V49.218C27.7223 50.774 26.4563 52.04 24.9003 52.04ZM16.6223 32.99C16.1683 32.99 15.8003 33.358 15.8003 33.812V49.218C15.8003 49.672 16.1683 50.04 16.6223 50.04H24.9003C25.3543 50.04 25.7223 49.672 25.7223 49.218V33.812C25.7223 33.358 25.3543 32.99 24.9003 32.99H16.6223Z" fill="#1B2E50"/>
<path d="M65.3383 76.4539H27.5883C27.0363 76.4539 26.5883 76.0059 26.5883 75.4539C26.5883 74.9019 27.0363 74.4539 27.5883 74.4539H65.3383C65.8903 74.4539 66.3383 74.9019 66.3383 75.4539C66.3383 76.0059 65.8903 76.4539 65.3383 76.4539Z" fill="#1B2E50"/>
<path d="M58.5703 9.83984H56.2883C55.8063 9.83984 55.4643 10.4579 55.5223 11.1819L56.1443 19.0158C56.1683 19.3278 56.4303 19.5739 56.7263 19.5739H58.1323C58.4303 19.5739 58.6903 19.3298 58.7143 19.0158L59.3363 11.1819C59.3943 10.4599 59.0523 9.83984 58.5703 9.83984Z" fill="white"/>
<path d="M57.4303 21.5399C56.4283 21.5399 55.6063 22.3599 55.6063 23.3639C55.6063 24.3659 56.4263 25.1879 57.4303 25.1879C58.4323 25.1879 59.2543 24.3679 59.2543 23.3639C59.2543 22.3619 58.4343 21.5399 57.4303 21.5399Z" fill="white"/>
</svg>
