<svg width="80" height="80" viewBox="0 0 80 80" fill="none" xmlns="http://www.w3.org/2000/svg">
<path d="M58.5059 31.6479H21.9179C19.5961 31.6479 17.7139 33.5301 17.7139 35.852V59.316C17.7139 61.6378 19.5961 63.52 21.9179 63.52H58.5059C60.8277 63.52 62.7099 61.6378 62.7099 59.316V35.852C62.7099 33.5301 60.8277 31.6479 58.5059 31.6479Z" fill="white"/>
<path d="M58.5039 64.52H21.9179C19.0479 64.52 16.7139 62.186 16.7139 59.316V35.852C16.7139 32.982 19.0479 30.6479 21.9179 30.6479H58.5039C61.3739 30.6479 63.7079 32.982 63.7079 35.852V59.316C63.7079 62.186 61.3739 64.52 58.5039 64.52ZM21.9179 32.6479C20.1519 32.6479 18.7139 34.086 18.7139 35.852V59.316C18.7139 61.082 20.1519 62.52 21.9179 62.52H58.5039C60.2699 62.52 61.7079 61.082 61.7079 59.316V35.852C61.7079 34.086 60.2699 32.6479 58.5039 32.6479H21.9179Z" fill="#1B2E50"/>
<path d="M48.214 28.5959C50.44 26.3799 51.776 23.2679 51.634 19.8479C51.384 13.8659 46.546 8.99996 40.564 8.71796C33.878 8.40196 28.358 13.7299 28.358 20.3479C28.358 23.5839 29.678 26.51 31.81 28.62C32.296 29.102 32.25 29.9139 31.704 30.3299C26.812 34.0519 23.132 49.0979 21.822 55.1519C21.532 56.4899 22.514 57.7659 23.88 57.8299C27.132 57.9839 33.134 58.212 40.002 58.212C46.87 58.212 52.87 57.9839 56.122 57.8299C57.49 57.7659 58.47 56.4879 58.18 55.1519C56.87 49.1079 53.2 34.1099 48.32 30.3419C47.768 29.9159 47.72 29.0919 48.214 28.5979V28.5959Z" fill="white"/>
<path d="M40.0019 59.21C33.0039 59.21 26.8679 58.97 23.8339 58.828C22.8879 58.784 22.0139 58.328 21.4379 57.576C20.8619 56.826 20.6459 55.864 20.8459 54.938C22.5499 47.066 26.1479 33.298 31.0999 29.532C31.1279 29.51 31.1439 29.478 31.1479 29.438C31.1479 29.408 31.1439 29.364 31.1079 29.328C28.6899 26.934 27.3599 23.746 27.3599 20.346C27.3599 16.946 28.7519 13.606 31.2779 11.196C33.8019 8.78803 37.1179 7.55405 40.6139 7.71605C47.0839 8.02005 52.3639 13.33 52.6359 19.804C52.7839 23.346 51.4299 26.808 48.9239 29.304C48.8819 29.346 48.8739 29.398 48.8759 29.432C48.8779 29.466 48.8899 29.512 48.9339 29.546C53.8719 33.36 57.4599 47.09 59.1599 54.936C59.3599 55.862 59.1439 56.8241 58.5679 57.5741C57.9919 58.3241 57.1179 58.782 56.1719 58.826C53.1359 58.968 46.9999 59.208 40.0039 59.208L40.0019 59.21ZM39.9959 9.70203C37.2439 9.70203 34.6539 10.736 32.6559 12.644C30.5299 14.672 29.3579 17.408 29.3579 20.346C29.3579 23.284 30.4779 25.892 32.5139 27.906C32.9539 28.342 33.1819 28.946 33.1419 29.566C33.1019 30.182 32.7979 30.7501 32.3099 31.1221C29.1139 33.5541 25.5579 42.614 22.7999 55.36C22.7239 55.714 22.8019 56.068 23.0239 56.356C23.2439 56.644 23.5659 56.812 23.9279 56.828C26.9459 56.97 33.0459 57.208 40.0019 57.208C46.9579 57.208 53.0579 56.97 56.0759 56.828C56.4379 56.81 56.7599 56.644 56.9799 56.356C57.1999 56.068 57.2799 55.714 57.2039 55.36C54.4499 42.652 50.8999 33.594 47.7099 31.13C47.2199 30.752 46.9179 30.178 46.8779 29.558C46.8379 28.934 47.0699 28.326 47.5099 27.886C49.6519 25.754 50.7619 22.914 50.6359 19.888C50.4079 14.44 45.9639 9.97205 40.5179 9.71405C40.3439 9.70605 40.1699 9.70203 39.9979 9.70203H39.9959Z" fill="#1B2E50"/>
<path d="M65.1899 46.948H45.2899C44.4869 46.948 43.8359 47.599 43.8359 48.402V52.674C43.8359 53.477 44.4869 54.128 45.2899 54.128H65.1899C65.993 54.128 66.6439 53.477 66.6439 52.674V48.402C66.6439 47.599 65.993 46.948 65.1899 46.948Z" fill="#4374C9"/>
<path d="M70.0639 54.356H9.93792C8.92723 54.356 8.10791 55.1753 8.10791 56.1859V64.774C8.10791 65.7847 8.92723 66.604 9.93792 66.604H70.0639C71.0746 66.604 71.8939 65.7847 71.8939 64.774V56.1859C71.8939 55.1753 71.0746 54.356 70.0639 54.356Z" fill="white"/>
<path d="M70.0639 67.604H9.93791C8.37791 67.604 7.10791 66.334 7.10791 64.774V56.1859C7.10791 54.6259 8.37791 53.356 9.93791 53.356H70.0639C71.6239 53.356 72.8939 54.6259 72.8939 56.1859V64.774C72.8939 66.334 71.6239 67.604 70.0639 67.604ZM9.93791 55.356C9.47991 55.356 9.10791 55.7279 9.10791 56.1859V64.774C9.10791 65.232 9.47991 65.604 9.93791 65.604H70.0639C70.5219 65.604 70.8939 65.232 70.8939 64.774V56.1859C70.8939 55.7279 70.5219 55.356 70.0639 55.356H9.93791Z" fill="#1B2E50"/>
<path d="M32.5279 20.9941C32.1539 20.9941 31.7939 20.7821 31.6239 20.4201C31.3879 19.9201 31.6019 19.3261 32.0999 19.0901C32.1359 19.0741 35.6519 17.384 37.2599 14.83C37.4399 14.546 37.7499 14.3701 38.0859 14.3621C38.4219 14.3601 38.7399 14.5181 38.9299 14.7941C39.0419 14.9541 41.8159 18.8041 47.9279 18.9941C48.4799 19.0121 48.9139 19.4721 48.8959 20.0241C48.8779 20.5761 48.4179 21.0081 47.8659 20.9921C42.7279 20.8321 39.5859 18.3961 38.1699 16.9601C36.1319 19.3781 33.1019 20.8281 32.9559 20.8961C32.8179 20.9621 32.6719 20.9921 32.5299 20.9921L32.5279 20.9941Z" fill="#1B2E50"/>
<path d="M39.9997 42.888C39.6657 42.888 39.3517 42.72 39.1677 42.442L31.2077 30.4601C30.9017 30.0001 31.0277 29.3801 31.4877 29.0741C31.9477 28.7681 32.5677 28.8941 32.8737 29.3541L39.9897 40.0641L47.0557 29.1061C47.3557 28.6421 47.9737 28.5081 48.4377 28.8081C48.9017 29.1081 49.0357 29.726 48.7357 30.19L40.8417 42.432C40.6597 42.716 40.3457 42.888 40.0077 42.89H40.0017L39.9997 42.888Z" fill="#1B2E50"/>
<path d="M43.3418 36.516C43.0258 36.516 42.7157 36.366 42.5217 36.088L39.9737 32.438L37.3397 36.1C37.0177 36.548 36.3917 36.65 35.9437 36.328C35.4957 36.006 35.3937 35.38 35.7157 34.932L39.1737 30.124C39.3637 29.86 39.6738 29.706 39.9918 29.708C40.3158 29.71 40.6198 29.87 40.8038 30.136L44.1597 34.944C44.4757 35.396 44.3657 36.02 43.9117 36.336C43.7377 36.458 43.5377 36.516 43.3397 36.516H43.3418Z" fill="#1B2E50"/>
<path d="M68.7418 66.832H11.2578V71.1701H68.7418V66.832Z" fill="white"/>
<path d="M68.7438 72.1681H11.2598C10.7078 72.1681 10.2598 71.7201 10.2598 71.1681V66.8301C10.2598 66.2781 10.7078 65.8301 11.2598 65.8301H68.7438C69.2958 65.8301 69.7438 66.2781 69.7438 66.8301V71.1681C69.7438 71.7201 69.2958 72.1681 68.7438 72.1681ZM12.2578 70.1681H67.7418V67.8301H12.2578V70.1681Z" fill="#1B2E50"/>
</svg>
