<svg width="80" height="80" viewBox="0 0 80 80" fill="none" xmlns="http://www.w3.org/2000/svg">
<g clip-path="url(#clip0_231_24521)">
<path d="M67.5338 66.0459H14.3218C13.7698 66.0459 13.3218 65.5979 13.3218 65.0459C13.3218 64.4939 13.7698 64.0459 14.3218 64.0459H67.5358C68.0878 64.0459 68.5358 64.4939 68.5358 65.0459C68.5358 65.5979 68.0878 66.0459 67.5358 66.0459H67.5338Z" fill="#1B2E50"/>
<path d="M26.29 19.6821C22.038 24.3781 15.61 24.8461 12.626 24.7801C11.732 24.7601 10.998 25.4801 10.998 26.3761V37.2441C10.998 44.2221 14.678 50.7281 20.744 54.1781C24.214 56.1501 27.202 56.7041 27.202 56.7041C27.202 56.7041 30.19 56.1521 33.66 54.1781C39.726 50.7301 43.406 44.2221 43.406 37.2441V26.3761C43.406 25.4821 42.672 24.7621 41.778 24.7801C38.794 24.8441 32.366 24.3781 28.114 19.6821C27.626 19.1421 26.778 19.1421 26.288 19.6821H26.29Z" fill="#4374C9"/>
<path d="M27.204 57.704C27.144 57.704 27.082 57.698 27.022 57.688C26.894 57.664 23.828 57.082 20.252 55.048C13.928 51.454 10 44.632 10 37.246V26.378C10 25.674 10.278 25.014 10.78 24.522C11.282 24.03 11.95 23.77 12.648 23.784C15.18 23.838 21.502 23.484 25.548 19.014C25.97 18.548 26.572 18.28 27.202 18.28C27.832 18.28 28.434 18.548 28.856 19.014C32.902 23.484 39.228 23.836 41.756 23.784C42.456 23.768 43.122 24.03 43.624 24.522C44.128 25.014 44.404 25.674 44.404 26.378V37.246C44.404 44.632 40.476 51.454 34.152 55.048C30.576 57.08 27.512 57.664 27.382 57.688C27.322 57.698 27.26 57.704 27.2 57.704H27.204ZM12.592 25.782C12.436 25.782 12.29 25.842 12.178 25.95C12.062 26.062 11.998 26.214 11.998 26.376V37.244C11.998 43.912 15.538 50.068 21.238 53.308C24.03 54.896 26.52 55.528 27.202 55.68C27.882 55.528 30.372 54.896 33.166 53.308C38.866 50.068 42.406 43.912 42.406 37.244V26.376C42.406 26.214 42.342 26.062 42.226 25.95C42.112 25.838 41.96 25.772 41.8 25.782C38.312 25.856 31.808 25.252 27.374 20.354C27.318 20.292 27.25 20.278 27.202 20.278C27.156 20.278 27.088 20.292 27.032 20.354C22.598 25.252 16.09 25.856 12.606 25.782C12.602 25.782 12.596 25.782 12.592 25.782Z" fill="#1B2E50"/>
<path d="M68.0722 13.5H51.0302C49.7202 13.5 48.6582 14.562 48.6582 15.872V62.674C48.6582 63.984 49.7202 65.046 51.0302 65.046H68.0722C69.3822 65.046 70.4442 63.984 70.4442 62.674V15.872C70.4442 14.562 69.3822 13.5 68.0722 13.5Z" fill="white"/>
<path d="M68.0742 66.046H51.0322C49.1722 66.046 47.6602 64.534 47.6602 62.674V15.872C47.6602 14.012 49.1722 12.5 51.0322 12.5H68.0742C69.9342 12.5 71.4462 14.012 71.4462 15.872V62.672C71.4462 64.532 69.9342 66.044 68.0742 66.044V66.046ZM51.0302 14.5C50.2742 14.5 49.6582 15.116 49.6582 15.872V62.672C49.6582 63.428 50.2742 64.044 51.0302 64.044H68.0722C68.8282 64.044 69.4442 63.428 69.4442 62.672V15.872C69.4442 15.116 68.8282 14.5 68.0722 14.5H51.0302Z" fill="#1B2E50"/>
<path d="M70.4462 24.7H48.6602C48.1082 24.7 47.6602 24.252 47.6602 23.7C47.6602 23.148 48.1082 22.7 48.6602 22.7H70.4462C70.9982 22.7 71.4462 23.148 71.4462 23.7C71.4462 24.252 70.9982 24.7 70.4462 24.7Z" fill="#1B2E50"/>
<path d="M70.4462 34.7261H48.6602C48.1082 34.7261 47.6602 34.2781 47.6602 33.7261C47.6602 33.1741 48.1082 32.7261 48.6602 32.7261H70.4462C70.9982 32.7261 71.4462 33.1741 71.4462 33.7261C71.4462 34.2781 70.9982 34.7261 70.4462 34.7261Z" fill="#1B2E50"/>
<path d="M70.4462 44.752H48.6602C48.1082 44.752 47.6602 44.304 47.6602 43.752C47.6602 43.2 48.1082 42.752 48.6602 42.752H70.4462C70.9982 42.752 71.4462 43.2 71.4462 43.752C71.4462 44.304 70.9982 44.752 70.4462 44.752Z" fill="#1B2E50"/>
<path d="M70.4462 54.7781H48.6602C48.1082 54.7781 47.6602 54.3301 47.6602 53.7781C47.6602 53.2261 48.1082 52.7781 48.6602 52.7781H70.4462C70.9982 52.7781 71.4462 53.2261 71.4462 53.7781C71.4462 54.3301 70.9982 54.7781 70.4462 54.7781Z" fill="#1B2E50"/>
<path d="M47.1322 66.7042C54.5284 66.7042 60.5242 60.7084 60.5242 53.3122C60.5242 45.916 54.5284 39.9202 47.1322 39.9202C39.736 39.9202 33.7402 45.916 33.7402 53.3122C33.7402 60.7084 39.736 66.7042 47.1322 66.7042Z" fill="white"/>
<path d="M47.1322 67.7061C39.1962 67.7061 32.7402 61.2501 32.7402 53.3141C32.7402 45.3781 39.1962 38.9221 47.1322 38.9221C55.0682 38.9221 61.5242 45.3781 61.5242 53.3141C61.5242 61.2501 55.0682 67.7061 47.1322 67.7061ZM47.1322 40.9201C40.2982 40.9201 34.7402 46.4801 34.7402 53.3121C34.7402 60.1441 40.3002 65.7041 47.1322 65.7041C53.9642 65.7041 59.5242 60.1441 59.5242 53.3121C59.5242 46.4801 53.9642 40.9201 47.1322 40.9201Z" fill="#1B2E50"/>
<path d="M40.8468 52.2412L39.8506 48.0002H42.3571L43.2813 52.2412H44.7748L45.6455 48.0002H48.4902L49.3441 52.2412H50.856L51.8522 48.0002H54.1109L53.1515 52.2412H55V54.2972H52.5471L51.5877 59.0002H48.6894L47.8003 54.2972H46.2365L45.329 59.0002H42.414L41.4362 54.2972H39.0184L39 52.2412H40.8485H40.8468ZM44.0113 56.6478L44.3847 54.2954H43.6379L44.0113 56.6478ZM46.7137 52.2412H47.3717L47.0335 50.037L46.7137 52.2412ZM50.1461 56.667L50.5195 54.2972H49.7543L50.1461 56.667Z" fill="#4374C9"/>
<path d="M25.7761 43.334C25.3161 43.334 24.8541 43.158 24.5041 42.806L20.2721 38.574C19.5701 37.872 19.5701 36.732 20.2721 36.028C20.9761 35.326 22.1141 35.326 22.8181 36.028L25.7761 38.986L31.5881 33.174C32.2921 32.472 33.4301 32.472 34.1341 33.174C34.8361 33.876 34.8361 35.016 34.1341 35.72L27.0481 42.806C26.6961 43.158 26.2361 43.334 25.7761 43.334Z" fill="white"/>
</g>
<defs>
<clipPath id="clip0_231_24521">
<rect width="61.446" height="55.206" fill="white" transform="translate(10 12.5)"/>
</clipPath>
</defs>
</svg>
