<svg width="80" height="80" viewBox="0 0 80 80" fill="none" xmlns="http://www.w3.org/2000/svg">
<g clip-path="url(#clip0_231_24518)">
<path d="M65.3018 62.8836C70.9535 57.232 70.9535 48.0688 65.3018 42.4171C59.6501 36.7655 50.487 36.7655 44.8353 42.4171C39.1836 48.0688 39.1836 57.232 44.8353 62.8836C50.487 68.5353 59.6501 68.5353 65.3018 62.8836Z" fill="#4374C9"/>
<path d="M49.5582 51.4701L48.7177 48.0002H50.8325L51.6123 51.4701H52.8725L53.6071 48.0002H56.0073L56.7278 51.4701H58.0035L58.8441 48.0002H60.7498L59.9404 51.4701H61.5V53.1523H59.4304L58.6209 57.0002H56.1754L55.4253 53.1523H54.1058L53.3401 57.0002H50.8805L50.0555 53.1523H48.0155L48 51.4701H49.5596H49.5582ZM52.2283 55.0755L52.5433 53.1508H51.9132L52.2283 55.0755ZM54.5084 51.4701H55.0636L54.7783 49.6667L54.5084 51.4701ZM57.4045 55.0912L57.7195 53.1523H57.0739L57.4045 55.0912Z" fill="white"/>
<path d="M37.824 35.432L30.632 66.02C30.524 66.48 30.874 66.922 31.346 66.922H45.732C46.206 66.922 46.554 66.48 46.446 66.02L39.254 35.432C39.076 34.678 38.002 34.678 37.824 35.432Z" fill="white"/>
<path d="M45.73 67.922H31.344C30.812 67.922 30.316 67.682 29.984 67.264C29.654 66.846 29.534 66.31 29.656 65.79L36.848 35.202C37.036 34.402 37.714 33.864 38.536 33.864C39.358 33.864 40.036 34.402 40.224 35.202L47.416 65.79C47.538 66.308 47.418 66.846 47.088 67.264C46.758 67.682 46.262 67.922 45.728 67.922H45.73ZM31.682 65.922H45.396L38.538 36.76L31.68 65.922H31.682Z" fill="#1B2E50"/>
<path d="M38.5381 35.866C37.9861 35.866 37.5381 35.418 37.5381 34.866V18.312C37.5381 17.76 37.9861 17.312 38.5381 17.312C39.0901 17.312 39.5381 17.76 39.5381 18.312V34.866C39.5381 35.418 39.0901 35.866 38.5381 35.866Z" fill="#1B2E50"/>
<path d="M19.7781 24.1221C19.3321 24.1221 18.9261 23.8221 18.8101 23.3701C18.6721 22.8361 18.9961 22.2901 19.5301 22.1521L57.0501 12.5321C57.5861 12.3941 58.1301 12.7181 58.2681 13.2521C58.4061 13.7861 58.0821 14.3321 57.5481 14.4701L20.0261 24.0901C19.9421 24.1121 19.8601 24.1221 19.7761 24.1221H19.7781Z" fill="#1B2E50"/>
<path d="M52.786 24.9439C52.652 24.9439 52.516 24.9179 52.386 24.8599C51.88 24.6379 51.65 24.0479 51.87 23.5419L56.432 13.1199C56.654 12.6139 57.242 12.3839 57.748 12.6039C58.254 12.8259 58.484 13.4159 58.264 13.9219L53.704 24.3439C53.54 24.7199 53.172 24.9439 52.788 24.9439H52.786Z" fill="#1B2E50"/>
<path d="M61.9099 24.944C61.5239 24.944 61.1579 24.72 60.9939 24.344L56.4339 13.922C56.2119 13.416 56.4439 12.826 56.9499 12.604C57.4559 12.382 58.0459 12.614 58.2659 13.12L62.8259 23.542C63.0479 24.048 62.8159 24.638 62.3099 24.86C62.1799 24.918 62.0439 24.944 61.9099 24.944Z" fill="#1B2E50"/>
<path d="M51.126 24.4099C51.126 27.8099 53.882 30.5659 57.284 30.5659C60.686 30.5659 63.442 27.8099 63.442 24.4099H51.128H51.126Z" fill="white"/>
<path d="M57.284 31.5679C53.338 31.5679 50.126 28.3579 50.126 24.4099C50.126 23.8579 50.574 23.4099 51.126 23.4099H63.44C63.992 23.4099 64.44 23.8579 64.44 24.4099C64.44 28.3559 61.23 31.5679 57.282 31.5679H57.284ZM52.224 25.4099C52.69 27.7759 54.782 29.5679 57.284 29.5679C59.786 29.5679 61.876 27.7779 62.344 25.4099H52.224Z" fill="#1B2E50"/>
<path d="M15.1601 34.576C15.0261 34.576 14.8901 34.55 14.7601 34.492C14.2541 34.27 14.0241 33.68 14.2441 33.174L18.8041 22.752C19.0261 22.246 19.6161 22.016 20.1201 22.236C20.6261 22.458 20.8561 23.048 20.6361 23.554L16.0761 33.976C15.9121 34.352 15.5441 34.576 15.1601 34.576Z" fill="#1B2E50"/>
<path d="M24.2819 34.5761C23.8959 34.5761 23.5299 34.3521 23.3659 33.9761L18.8059 23.5541C18.5839 23.0481 18.8159 22.4581 19.3219 22.2361C19.8279 22.0141 20.4179 22.2461 20.6379 22.7521L25.1979 33.1741C25.4199 33.6801 25.1879 34.2701 24.6819 34.4921C24.5519 34.5501 24.4159 34.5761 24.2819 34.5761Z" fill="#1B2E50"/>
<path d="M13.5 34.042C13.5 37.442 16.256 40.198 19.656 40.198C23.056 40.198 25.812 37.442 25.812 34.042H13.5Z" fill="white"/>
<path d="M19.656 41.198C15.71 41.198 12.5 37.988 12.5 34.042C12.5 33.49 12.948 33.042 13.5 33.042H25.814C26.366 33.042 26.814 33.49 26.814 34.042C26.814 37.988 23.604 41.2 19.656 41.2V41.198ZM14.598 35.042C15.064 37.408 17.156 39.2 19.658 39.2C22.16 39.2 24.25 37.41 24.718 35.042H14.598Z" fill="#1B2E50"/>
</g>
<defs>
<clipPath id="clip0_231_24518">
<rect width="57.04" height="55.422" fill="white" transform="translate(12.5 12.5)"/>
</clipPath>
</defs>
</svg>
