<svg width="80" height="80" viewBox="0 0 80 80" fill="none" xmlns="http://www.w3.org/2000/svg">
<path d="M69.8859 43.7561H39.1279V71.6401H69.8859V43.7561Z" fill="white"/>
<path d="M69.8859 72.6401H39.1279C38.5759 72.6401 38.1279 72.1921 38.1279 71.6401V43.7561C38.1279 43.2041 38.5759 42.7561 39.1279 42.7561H69.8859C70.4379 42.7561 70.8859 43.2041 70.8859 43.7561V71.6401C70.8859 72.1921 70.4379 72.6401 69.8859 72.6401ZM40.1279 70.6401H68.8859V44.7561H40.1279V70.6401Z" fill="#1B2E50"/>
<path d="M40.758 43.7561H10V71.6401H40.758V43.7561Z" fill="white"/>
<path d="M40.76 72.6401H10C9.448 72.6401 9 72.1921 9 71.6401V43.7561C9 43.2041 9.448 42.7561 10 42.7561H40.758C41.31 42.7561 41.758 43.2041 41.758 43.7561V71.6401C41.758 72.1921 41.31 72.6401 40.758 72.6401H40.76ZM11 70.6401H39.758V44.7561H11V70.6401Z" fill="#1B2E50"/>
<path d="M40.758 43.7561H10V71.6401H40.758V43.7561Z" fill="white"/>
<path d="M40.76 72.6401H10C9.448 72.6401 9 72.1921 9 71.6401V43.7561C9 43.2041 9.448 42.7561 10 42.7561H40.758C41.31 42.7561 41.758 43.2041 41.758 43.7561V71.6401C41.758 72.1921 41.31 72.6401 40.758 72.6401H40.76ZM11 70.6401H39.758V44.7561H11V70.6401Z" fill="#1B2E50"/>
<path d="M55.1281 33H24.3701V71.64H55.1281V33Z" fill="white"/>
<path d="M55.1281 72.64H24.3701C23.8181 72.64 23.3701 72.192 23.3701 71.64V33C23.3701 32.448 23.8181 32 24.3701 32H55.1281C55.6801 32 56.1281 32.448 56.1281 33V71.64C56.1281 72.192 55.6801 72.64 55.1281 72.64ZM25.3701 70.64H54.1281V34H25.3701V70.64Z" fill="#1B2E50"/>
<path d="M55.1281 33H24.3701V40.136H55.1281V33Z" fill="white"/>
<path d="M55.1281 41.136H24.3701C23.8181 41.136 23.3701 40.688 23.3701 40.136V33C23.3701 32.448 23.8181 32 24.3701 32H55.1281C55.6801 32 56.1281 32.448 56.1281 33V40.136C56.1281 40.688 55.6801 41.136 55.1281 41.136ZM25.3701 39.136H54.1281V34H25.3701V39.136Z" fill="#1B2E50"/>
<path d="M64.5497 51.248H55.4717C54.9197 51.248 54.4717 50.8 54.4717 50.248C54.4717 49.696 54.9197 49.248 55.4717 49.248H64.5497C65.1017 49.248 65.5497 49.696 65.5497 50.248C65.5497 50.8 65.1017 51.248 64.5497 51.248Z" fill="#1B2E50"/>
<path d="M64.5497 57.51H55.4717C54.9197 57.51 54.4717 57.062 54.4717 56.51C54.4717 55.958 54.9197 55.51 55.4717 55.51H64.5497C65.1017 55.51 65.5497 55.958 65.5497 56.51C65.5497 57.062 65.1017 57.51 64.5497 57.51Z" fill="#1B2E50"/>
<path d="M64.5497 63.772H55.4717C54.9197 63.772 54.4717 63.324 54.4717 62.772C54.4717 62.22 54.9197 61.772 55.4717 61.772H64.5497C65.1017 61.772 65.5497 62.22 65.5497 62.772C65.5497 63.324 65.1017 63.772 64.5497 63.772Z" fill="#1B2E50"/>
<path d="M43.8124 72.64H35.6904C35.1384 72.64 34.6904 72.192 34.6904 71.64V62.32C34.6904 59.684 36.8344 57.542 39.4704 57.542H40.0344C42.6704 57.542 44.8144 59.686 44.8144 62.32V71.64C44.8144 72.192 44.3664 72.64 43.8144 72.64H43.8124ZM36.6884 70.64H42.8104V62.32C42.8104 60.788 41.5644 59.542 40.0304 59.542H39.4664C37.9344 59.542 36.6864 60.788 36.6864 62.32V70.64H36.6884Z" fill="#1B2E50"/>
<path d="M20.3437 56.4761H14.6777C14.1257 56.4761 13.6777 56.0281 13.6777 55.4761V51.3401C13.6777 50.7881 14.1257 50.3401 14.6777 50.3401H20.3437C20.8957 50.3401 21.3437 50.7881 21.3437 51.3401V55.4761C21.3437 56.0281 20.8957 56.4761 20.3437 56.4761ZM15.6777 54.4761H19.3437V52.3401H15.6777V54.4761Z" fill="#1B2E50"/>
<path d="M20.3437 64.4041H14.6777C14.1257 64.4041 13.6777 63.9561 13.6777 63.4041V59.2681C13.6777 58.7161 14.1257 58.2681 14.6777 58.2681H20.3437C20.8957 58.2681 21.3437 58.7161 21.3437 59.2681V63.4041C21.3437 63.9561 20.8957 64.4041 20.3437 64.4041ZM15.6777 62.4041H19.3437V60.2681H15.6777V62.4041Z" fill="#1B2E50"/>
<path d="M30.4942 44.9919H40.4142C40.9442 44.9919 41.3762 45.4239 41.3762 45.9539V47.6499C41.3762 48.1799 40.9442 48.6119 40.4142 48.6119H30.4942C29.9642 48.6119 29.5322 48.1799 29.5322 47.6499V45.9539C29.5322 45.4239 29.9642 44.9919 30.4942 44.9919Z" fill="#4374C9"/>
<path d="M40.4142 50.908H30.4942C29.9629 50.908 29.5322 51.3387 29.5322 51.87V53.566C29.5322 54.0973 29.9629 54.528 30.4942 54.528H40.4142C40.9455 54.528 41.3762 54.0973 41.3762 53.566V51.87C41.3762 51.3387 40.9455 50.908 40.4142 50.908Z" fill="#4374C9"/>
<path d="M49.2822 44.9919H44.6762C44.2984 44.9919 43.9922 45.2982 43.9922 45.6759V47.9279C43.9922 48.3057 44.2984 48.6119 44.6762 48.6119H49.2822C49.6599 48.6119 49.9662 48.3057 49.9662 47.9279V45.6759C49.9662 45.2982 49.6599 44.9919 49.2822 44.9919Z" fill="#4374C9"/>
<path d="M49.2822 50.908H44.6762C44.2984 50.908 43.9922 51.2142 43.9922 51.592V53.844C43.9922 54.2217 44.2984 54.528 44.6762 54.528H49.2822C49.6599 54.528 49.9662 54.2217 49.9662 53.844V51.592C49.9662 51.2142 49.6599 50.908 49.2822 50.908Z" fill="#4374C9"/>
<path d="M42.685 30.306C48.1945 29.0057 51.6067 23.4851 50.3063 17.9756C49.006 12.466 43.4854 9.05384 37.9759 10.3542C32.4664 11.6546 29.0542 17.1751 30.3545 22.6846C31.6549 28.1942 37.1754 31.6064 42.685 30.306Z" fill="#4374C9"/>
<path d="M35.3851 20.0001L34.6379 16.9158H36.5178L37.211 20.0001H38.3311L38.9841 16.9158H41.1176L41.7581 20.0001H42.892L43.6392 16.9158H45.3332L44.6136 20.0001H46V21.4954H44.1603L43.4408 24.9158H41.2671L40.6003 21.4954H39.4274L38.7468 24.9158H36.5605L35.8271 21.4954H34.0138L34 20.0001H35.3864H35.3851ZM37.7585 23.2049L38.0385 21.4941H37.4784L37.7585 23.2049ZM39.7853 20.0001H40.2788L40.0251 18.3971L39.7853 20.0001ZM42.3596 23.2189L42.6396 21.4954H42.0657L42.3596 23.2189Z" fill="white"/>
</svg>
