<svg width="80" height="80" viewBox="0 0 80 80" fill="none" xmlns="http://www.w3.org/2000/svg">
<path d="M64.4597 21.8359H30.6777V61.824H64.4597V21.8359Z" fill="white"/>
<path d="M64.4597 62.824H30.6777C30.1257 62.824 29.6777 62.376 29.6777 61.824V21.8359C29.6777 21.2839 30.1257 20.8359 30.6777 20.8359H64.4597C65.0117 20.8359 65.4597 21.2839 65.4597 21.8359V61.824C65.4597 62.376 65.0117 62.824 64.4597 62.824ZM31.6777 60.824H63.4597V22.8359H31.6777V60.824Z" fill="#1B2E50"/>
<path d="M60.6941 18.22H26.9121V58.208H60.6941V18.22Z" fill="white"/>
<path d="M60.6961 59.2099H26.9141C26.3621 59.2099 25.9141 58.7619 25.9141 58.2099V18.2219C25.9141 17.6699 26.3621 17.2219 26.9141 17.2219H60.6961C61.2481 17.2219 61.6961 17.6699 61.6961 18.2219V58.2099C61.6961 58.7619 61.2481 59.2099 60.6961 59.2099ZM27.9121 57.2099H59.6941V19.2219H27.9121V57.2099Z" fill="#1B2E50"/>
<path d="M21.1979 38.79C17.4159 38.79 14.3398 35.714 14.3398 31.934C14.3398 28.154 17.4158 25.08 21.1958 25.08H36.7599C39.4719 25.08 41.6799 27.286 41.6799 29.998C41.6799 32.71 39.4739 34.916 36.7599 34.916H22.3079C21.6459 34.916 21.1079 34.378 21.1079 33.716C21.1079 33.054 21.6459 32.516 22.3079 32.516H36.7599C38.1479 32.516 39.2799 31.386 39.2799 29.998C39.2799 28.61 38.1499 27.48 36.7599 27.48H21.1958C18.7398 27.48 16.7398 29.478 16.7398 31.934C16.7398 34.39 18.7378 36.39 21.1958 36.39L38.0799 36.352C41.4919 36.352 44.2658 33.578 44.2658 30.168C44.2658 26.758 41.4919 23.984 38.0819 23.984H21.6398C20.9778 23.984 20.4398 23.446 20.4398 22.784C20.4398 22.122 20.9778 21.584 21.6398 21.584H38.0819C42.8139 21.584 46.6658 25.434 46.6658 30.168C46.6658 34.902 42.8159 38.752 38.0819 38.752L21.1979 38.79Z" fill="#4374C9"/>
<path d="M55.508 53.3679H32.728C32.176 53.3679 31.728 52.9199 31.728 52.3679C31.728 51.8159 32.176 51.3679 32.728 51.3679H55.508C56.06 51.3679 56.508 51.8159 56.508 52.3679C56.508 52.9199 56.06 53.3679 55.508 53.3679Z" fill="#1B2E50"/>
<path d="M55.5079 48.4319H39.6299C39.0779 48.4319 38.6299 47.9839 38.6299 47.4319C38.6299 46.8799 39.0779 46.4319 39.6299 46.4319H55.5079C56.0599 46.4319 56.5079 46.8799 56.5079 47.4319C56.5079 47.9839 56.0599 48.4319 55.5079 48.4319Z" fill="#1B2E50"/>
</svg>
