<svg width="91" height="91" viewBox="0 0 91 91" fill="none" xmlns="http://www.w3.org/2000/svg">
<g clip-path="url(#clip0_358_1571)">
<path d="M44.3356 67.642C30.9356 67.642 20.0356 56.74 20.0356 43.342C20.0356 29.944 30.9356 19.042 44.3356 19.042C57.7356 19.042 68.6356 29.944 68.6356 43.342C68.6356 56.74 57.7336 67.642 44.3356 67.642ZM44.3356 21.042C32.0396 21.042 22.0356 31.046 22.0356 43.342C22.0356 55.638 32.0396 65.642 44.3356 65.642C56.6316 65.642 66.6356 55.638 66.6356 43.342C66.6356 31.046 56.6316 21.042 44.3356 21.042Z" fill="#1B2E50"/>
<path d="M43.2757 37.9064C48.1728 33.0092 48.1728 25.0694 43.2757 20.1722C38.3785 15.275 30.4386 15.275 25.5414 20.1722C20.6443 25.0694 20.6443 33.0093 25.5414 37.9064C30.4386 42.8036 38.3785 42.8036 43.2757 37.9064Z" fill="white"/>
<path d="M34.4096 42.58C26.9436 42.58 20.8696 36.506 20.8696 29.04C20.8696 21.574 26.9436 15.5 34.4096 15.5C41.8756 15.5 47.9496 21.574 47.9496 29.04C47.9496 36.506 41.8756 42.58 34.4096 42.58ZM34.4096 17.5C28.0456 17.5 22.8696 22.676 22.8696 29.04C22.8696 35.404 28.0456 40.58 34.4096 40.58C40.7736 40.58 45.9496 35.404 45.9496 29.04C45.9496 22.676 40.7736 17.5 34.4096 17.5Z" fill="#1B2E50"/>
<path d="M29.0534 27.9704L28.1817 24.5005H30.3749L31.1836 27.9704H32.4904L33.2523 24.5005H35.7414L36.4886 27.9704H37.8115L38.6832 24.5005H40.6596L39.8201 27.9704H41.4375V29.6525H39.2912L38.4517 33.5005H35.9157L35.1378 29.6525H33.7694L32.9754 33.5005H30.4247L29.5691 29.6525H27.4536L27.4375 27.9704H29.0549H29.0534ZM31.8224 31.5758L32.1491 29.6511H31.4957L31.8224 31.5758ZM34.187 27.9704H34.7627L34.4668 26.1669L34.187 27.9704ZM37.1903 31.5915L37.517 29.6525H36.8475L37.1903 31.5915Z" fill="#4374C9"/>
<path d="M66.41 54.545C72.5975 48.3575 72.5975 38.3256 66.41 32.1382C60.2225 25.9507 50.1907 25.9507 44.0032 32.1382C37.8157 38.3256 37.8157 48.3575 44.0032 54.545C50.1907 60.7324 60.2225 60.7324 66.41 54.545Z" fill="#4374C9"/>
<path d="M55.2058 60.186C45.9178 60.186 38.3618 52.63 38.3618 43.342C38.3618 34.054 45.9178 26.498 55.2058 26.498C64.4938 26.498 72.0498 34.054 72.0498 43.342C72.0498 52.63 64.4938 60.186 55.2058 60.186ZM55.2058 28.496C47.0198 28.496 40.3618 35.156 40.3618 43.34C40.3618 51.524 47.0218 58.184 55.2058 58.184C63.3898 58.184 70.0498 51.524 70.0498 43.34C70.0498 35.156 63.3898 28.496 55.2058 28.496Z" fill="#1B2E50"/>
<path d="M47.6435 42.3633L46.4535 37.4993H49.4475L50.5515 42.3633H52.3355L53.3755 37.4993H56.7735L57.7935 42.3633H59.5995L60.7895 37.4993H63.4875L62.3415 42.3633H64.5495V44.7213H61.6195L60.4735 50.1153H57.0115L55.9495 44.7213H54.0815L52.9975 50.1153H49.5155L48.3475 44.7213H45.4595L45.4375 42.3633H47.6455H47.6435ZM51.4235 47.4173L51.8695 44.7193H50.9775L51.4235 47.4173ZM54.6515 42.3633H55.4375L55.0335 39.8353L54.6515 42.3633ZM58.7515 47.4393L59.1975 44.7213H58.2835L58.7515 47.4393Z" fill="white"/>
<path d="M24.2675 60.0559C26.4835 60.2359 28.6915 59.6339 30.5095 58.3539C32.7535 56.7739 35.8935 54.7239 37.9415 54.0639C41.6015 52.8859 52.2335 53.2479 56.4815 53.4479C57.7635 53.5079 58.8175 54.5019 58.9315 55.7799C59.0855 57.5039 58.3655 59.6679 54.0095 60.1159L51.1835 60.3999C49.6855 60.5499 49.5055 62.6599 50.9555 63.0639L61.0155 64.6819C61.0155 64.6819 70.0535 61.3239 73.9195 61.8139C77.9915 62.3299 78.6215 67.4339 73.0595 69.7279C67.8115 71.8919 61.9175 73.3859 61.9175 73.3859H29.7115L13.1395 73.7919C12.2075 73.8139 11.4375 73.0639 11.4375 72.1319V61.7419C11.4375 60.7719 12.2655 60.0079 13.2335 60.0859L24.2695 60.0539L24.2675 60.0559Z" fill="white"/>
<path d="M13.0955 74.7939C12.3975 74.7939 11.7395 74.5259 11.2395 74.0379C10.7215 73.5319 10.4375 72.8559 10.4375 72.1339V61.7439C10.4375 61.0039 10.7495 60.2899 11.2955 59.7879C11.8295 59.2959 12.5455 59.0439 13.2675 59.0879L24.2655 59.0559C24.2895 59.0559 24.3215 59.0559 24.3495 59.0599C26.3295 59.2199 28.3115 58.6799 29.9335 57.5359C32.2535 55.9019 35.4735 53.8079 37.6335 53.1119C41.2995 51.9319 51.0435 52.1899 56.5275 52.4499C58.3075 52.5339 59.7695 53.9279 59.9275 55.6919C60.0575 57.1279 59.7475 60.5319 54.1115 61.1119L51.2835 61.3959C51.0375 61.4199 50.9715 61.5879 50.9615 61.7239C50.9495 61.8519 50.9815 62.0159 51.1835 62.0899L60.9175 63.6539C62.4495 63.0999 70.3075 60.3479 74.0455 60.8239C76.2275 61.0999 77.8055 62.5399 78.0655 64.4919C78.3135 66.3519 77.2515 69.0839 73.4395 70.6539C68.1855 72.8199 62.4055 74.2959 62.1635 74.3559C62.0835 74.3759 62.0015 74.3859 61.9175 74.3859H29.7235L13.1635 74.7919C13.1415 74.7919 13.1195 74.7919 13.0955 74.7919V74.7939ZM13.0955 61.0819C12.8755 61.0819 12.7235 61.1899 12.6495 61.2579C12.5695 61.3319 12.4375 61.4919 12.4375 61.7439V72.1339C12.4375 72.3139 12.5075 72.4819 12.6375 72.6079C12.7655 72.7339 12.9375 72.7979 13.1155 72.7959L29.6875 72.3879C29.6875 72.3879 29.7035 72.3879 29.7115 72.3879H61.7895C62.6455 72.1639 67.9635 70.7499 72.6775 68.8059C75.4375 67.6679 76.2375 65.9139 76.0835 64.7559C75.9455 63.7159 75.0675 62.9699 73.7935 62.8079C70.8235 62.4319 63.8135 64.7099 61.3635 65.6199C61.2015 65.6799 61.0275 65.6979 60.8555 65.6699L50.7955 64.0519C50.7595 64.0459 50.7215 64.0379 50.6855 64.0279C49.5755 63.7199 48.8675 62.6999 48.9675 61.5519C49.0655 60.4039 49.9355 59.5199 51.0835 59.4059L53.9095 59.1219C58.1875 58.6819 57.9975 56.5659 57.9355 55.8719C57.8655 55.0979 57.2195 54.4859 56.4335 54.4479C47.4675 54.0239 40.6695 54.2359 38.2475 55.0159C36.7475 55.4979 34.2055 56.9739 31.0855 59.1699C29.0935 60.5739 26.6615 61.2419 24.2295 61.0539L13.2355 61.0859C13.2055 61.0859 13.1795 61.0859 13.1515 61.0819C13.1315 61.0819 13.1135 61.0799 13.0955 61.0799V61.0819Z" fill="#1B2E50"/>
<path d="M18.0277 50.4301C17.7977 50.4301 17.5677 50.3521 17.3797 50.1921C16.9597 49.8341 16.9097 49.2021 17.2677 48.7821L20.4057 45.0981C20.7197 44.7281 21.2557 44.6381 21.6757 44.8861L25.8437 47.3441C26.3197 47.6241 26.4777 48.2381 26.1977 48.7141C25.9177 49.1901 25.3037 49.3481 24.8277 49.0681L21.3837 47.0361L18.7897 50.0801C18.5917 50.3121 18.3117 50.4321 18.0277 50.4321V50.4301Z" fill="#1B2E50"/>
</g>
<defs>
<clipPath id="clip0_358_1571">
<rect width="67.662" height="59.294" fill="white" transform="translate(10.4375 15.5)"/>
</clipPath>
</defs>
</svg>
