<svg width="80" height="80" viewBox="0 0 80 80" fill="none" xmlns="http://www.w3.org/2000/svg">
<path d="M57.4644 57.4425C67.1158 47.7911 67.1158 32.143 57.4644 22.4916C47.813 12.8402 32.1649 12.8402 22.5135 22.4916C12.8621 32.143 12.8621 47.7911 22.5135 57.4425C32.1649 67.0939 47.813 67.0939 57.4644 57.4425Z" fill="white"/>
<path d="M39.9899 65.68C25.8119 65.68 14.2759 54.146 14.2759 39.966C14.2759 25.786 25.8099 14.252 39.9899 14.252C54.1699 14.252 65.7039 25.786 65.7039 39.966C65.7039 54.146 54.1699 65.68 39.9899 65.68ZM39.9899 16.254C26.9139 16.254 16.2759 26.892 16.2759 39.968C16.2759 53.044 26.9139 63.6819 39.9899 63.6819C53.0659 63.6819 63.7039 53.044 63.7039 39.968C63.7039 26.892 53.0659 16.254 39.9899 16.254Z" fill="#1B2E50"/>
<path d="M39.9896 64.73C47.8917 64.73 54.2976 53.6652 54.2976 40.016C54.2976 26.3668 47.8917 15.302 39.9896 15.302C32.0875 15.302 25.6816 26.3668 25.6816 40.016C25.6816 53.6652 32.0875 64.73 39.9896 64.73Z" fill="white"/>
<path d="M39.9897 65.7281C35.7957 65.7281 31.8957 62.98 29.0057 57.99C26.2157 53.1721 24.6797 46.788 24.6797 40.014C24.6797 33.24 26.2157 26.856 29.0057 22.038C31.8937 17.048 35.7957 14.3 39.9897 14.3C44.1837 14.3 48.0837 17.048 50.9737 22.038C53.7637 26.856 55.2997 33.24 55.2997 40.014C55.2997 46.788 53.7637 53.1721 50.9737 57.99C48.0857 62.98 44.1837 65.7281 39.9897 65.7281ZM39.9897 16.3021C36.5397 16.3021 33.2537 18.6961 30.7377 23.0421C28.1217 27.5601 26.6817 33.5881 26.6817 40.0161C26.6817 46.444 28.1217 52.472 30.7377 56.99C33.2537 61.336 36.5397 63.73 39.9897 63.73C43.4397 63.73 46.7257 61.336 49.2417 56.99C51.8577 52.472 53.2977 46.444 53.2977 40.0161C53.2977 33.5881 51.8577 27.5601 49.2417 23.0421C46.7257 18.6961 43.4397 16.3021 39.9897 16.3021Z" fill="#1B2E50"/>
<path d="M64.7019 41.0161H15.2759C14.7239 41.0161 14.2759 40.5681 14.2759 40.0161C14.2759 39.4641 14.7239 39.0161 15.2759 39.0161H64.7019C65.2539 39.0161 65.7019 39.4641 65.7019 40.0161C65.7019 40.5681 65.2539 41.0161 64.7019 41.0161Z" fill="#1B2E50"/>
<path d="M60.0559 27.7959H19.9219C19.3699 27.7959 18.9219 27.3479 18.9219 26.7959C18.9219 26.2439 19.3699 25.7959 19.9219 25.7959H60.0559C60.6079 25.7959 61.0559 26.2439 61.0559 26.7959C61.0559 27.3479 60.6079 27.7959 60.0559 27.7959Z" fill="#1B2E50"/>
<path d="M60.502 53.49H19.478C18.926 53.49 18.478 53.042 18.478 52.49C18.478 51.938 18.926 51.49 19.478 51.49H60.502C61.054 51.49 61.502 51.938 61.502 52.49C61.502 53.042 61.054 53.49 60.502 53.49Z" fill="#1B2E50"/>
<path d="M39.9897 65.538C39.4377 65.538 38.9897 65.09 38.9897 64.538V15.304C38.9897 14.752 39.4377 14.304 39.9897 14.304C40.5417 14.304 40.9897 14.752 40.9897 15.304V64.538C40.9897 65.09 40.5417 65.538 39.9897 65.538Z" fill="#1B2E50"/>
<path d="M28.562 34.1699C28.562 30.0979 25.26 26.7959 21.188 26.7959C17.116 26.7959 13.814 30.0979 13.814 34.1699C13.814 35.7199 14.294 37.1579 15.11 38.3439L19.886 47.3599C20.45 48.4239 21.926 48.4239 22.488 47.3599L27.264 38.3439C28.08 37.1579 28.56 35.7199 28.56 34.1699H28.562Z" fill="#4374C9"/>
<path d="M21.7267 35.8255C22.9898 35.5274 23.7721 34.2617 23.474 32.9985C23.1759 31.7354 21.9102 30.9531 20.647 31.2512C19.3839 31.5493 18.6015 32.815 18.8997 34.0782C19.1978 35.3413 20.4635 36.1236 21.7267 35.8255Z" fill="white"/>
<path d="M66.6796 21.488C66.6796 17.416 63.3776 14.114 59.3056 14.114C55.2336 14.114 51.9316 17.416 51.9316 21.488C51.9316 23.038 52.4116 24.476 53.2276 25.662L58.0036 34.678C58.5676 35.742 60.0436 35.742 60.6056 34.678L65.3816 25.662C66.1976 24.476 66.6776 23.038 66.6776 21.488H66.6796Z" fill="#4374C9"/>
<path d="M59.3056 23.1939C60.6034 23.1939 61.6556 22.1418 61.6556 20.8439C61.6556 19.546 60.6034 18.4939 59.3056 18.4939C58.0077 18.4939 56.9556 19.546 56.9556 20.8439C56.9556 22.1418 58.0077 23.1939 59.3056 23.1939Z" fill="white"/>
</svg>
