<svg width="80" height="80" viewBox="0 0 80 80" fill="none" xmlns="http://www.w3.org/2000/svg">
<path d="M61.3999 4.93604H53.0299C46.4619 4.93604 41.0879 10.31 41.0879 16.878C41.0879 23.446 46.4619 28.82 53.0299 28.82H54.7879V34.044C54.7879 35.376 56.4639 35.964 57.2959 34.926L62.2219 28.788C68.4099 28.36 73.3419 23.168 73.3419 16.878C73.3419 10.31 67.9679 4.93604 61.3999 4.93604Z" fill="#4374C9"/>
<path d="M56.2119 36.458C55.9419 36.458 55.6679 36.412 55.3979 36.318C54.4199 35.974 53.7879 35.082 53.7879 34.044V29.82H53.0299C45.8939 29.82 40.0879 24.014 40.0879 16.878C40.0879 9.74203 45.8939 3.93604 53.0299 3.93604H61.3999C68.5359 3.93604 74.3419 9.74203 74.3419 16.878C74.3419 23.502 69.2799 29.07 62.7359 29.748L58.0759 35.552C57.6059 36.138 56.9239 36.458 56.2119 36.458ZM53.0299 5.93604C46.9959 5.93604 42.0879 10.844 42.0879 16.878C42.0879 22.912 46.9959 27.82 53.0299 27.82H54.7879C55.3399 27.82 55.7879 28.268 55.7879 28.82V34.044C55.7879 34.296 55.9599 34.394 56.0619 34.43C56.1639 34.466 56.3599 34.496 56.5179 34.3L61.4439 28.162C61.6179 27.944 61.8759 27.81 62.1539 27.79C67.8659 27.396 72.3419 22.602 72.3419 16.876C72.3419 10.842 67.4339 5.93403 61.3999 5.93403H53.0299V5.93604Z" fill="#1B2E50"/>
<path d="M29.8058 74.954H25.9438C24.8298 74.954 23.7678 74.158 23.4198 73.062L14.1118 43.71H22.6598L31.7058 72.236C32.1538 73.652 31.2438 74.954 29.8038 74.954H29.8058Z" fill="white"/>
<path d="M29.806 75.954H25.9439C24.4059 75.954 22.942 74.8639 22.466 73.3639L13.1579 44.012C13.0619 43.708 13.116 43.3759 13.304 43.1199C13.492 42.8619 13.7919 42.71 14.1099 42.71H22.6579C23.0939 42.71 23.4799 42.992 23.6119 43.408L32.6579 71.934C32.9739 72.932 32.8239 73.96 32.2439 74.75C31.6839 75.516 30.7939 75.954 29.8019 75.954H29.806ZM15.48 44.71L24.3739 72.76C24.5899 73.442 25.2659 73.954 25.9439 73.954H29.806C30.158 73.954 30.4519 73.8179 30.6339 73.5679C30.8319 73.2959 30.876 72.9219 30.754 72.5379L21.93 44.71H15.48Z" fill="#1B2E50"/>
<path d="M15.7306 47.9199C19.5394 47.021 21.8983 43.2045 20.9994 39.3957C20.1004 35.5869 16.284 33.2279 12.4751 34.1269C8.66629 35.0259 6.30737 38.8423 7.20634 42.6511C8.1053 46.46 11.9217 48.8189 15.7306 47.9199Z" fill="white"/>
<path d="M14.1138 49.1002C9.65583 49.1002 6.02783 45.4742 6.02783 41.0142C6.02783 36.5542 9.65383 32.9282 14.1138 32.9282C18.5738 32.9282 22.1998 36.5542 22.1998 41.0142C22.1998 45.4742 18.5738 49.1002 14.1138 49.1002ZM14.1138 34.9302C10.7578 34.9302 8.02783 37.6602 8.02783 41.0162C8.02783 44.3722 10.7578 47.1022 14.1138 47.1022C17.4698 47.1022 20.1998 44.3722 20.1998 41.0162C20.1998 37.6602 17.4698 34.9302 14.1138 34.9302Z" fill="#1B2E50"/>
<path d="M48.9907 46.1457C52.4678 45.2445 54.5561 41.6952 53.6549 38.218C52.7537 34.7408 49.2043 32.6526 45.7271 33.5538C42.25 34.455 40.1617 38.0044 41.0629 41.4815C41.9641 44.9587 45.5135 47.0469 48.9907 46.1457Z" fill="white"/>
<path d="M47.3502 47.3642C43.2122 47.3642 39.8462 43.9982 39.8462 39.8602C39.8462 35.7222 43.2122 32.3562 47.3502 32.3562C51.4882 32.3562 54.8542 35.7222 54.8542 39.8602C54.8542 43.9982 51.4882 47.3642 47.3502 47.3642ZM47.3502 34.3562C44.3142 34.3562 41.8462 36.8262 41.8462 39.8602C41.8462 42.8942 44.3162 45.3642 47.3502 45.3642C50.3842 45.3642 52.8542 42.8942 52.8542 39.8602C52.8542 36.8262 50.3842 34.3562 47.3502 34.3562Z" fill="#1B2E50"/>
<path d="M43.6499 55.514C45.6439 56.746 48.2159 55.306 48.2159 52.962V29.066C48.2159 26.722 45.6439 25.28 43.6499 26.514C38.2139 29.876 28.2139 34.56 15.2339 34.074V47.954C28.2139 47.468 38.2139 52.152 43.6499 55.514Z" fill="white"/>
<path d="M45.2179 56.9681C44.4959 56.9681 43.7739 56.7661 43.1239 56.3641C37.2439 52.7281 27.6379 48.4881 15.2719 48.9521C14.9999 48.9621 14.7359 48.8621 14.5399 48.6721C14.3439 48.4841 14.2339 48.2241 14.2339 47.9521V34.0721C14.2339 33.8001 14.3439 33.5401 14.5399 33.3521C14.7359 33.1641 14.9999 33.0641 15.2719 33.0721C27.6399 33.5341 37.2439 29.2961 43.1239 25.6601C44.3699 24.8881 45.8799 24.8561 47.1619 25.5701C48.4479 26.2861 49.2139 27.5921 49.2139 29.0641V52.9601C49.2139 54.4321 48.4459 55.7381 47.1619 56.4541C46.5479 56.7961 45.8819 56.9661 45.2159 56.9661L45.2179 56.9681ZM17.1319 46.9181C29.0699 46.9181 38.3699 51.0721 44.1759 54.6641C44.7979 55.0481 45.5499 55.0641 46.1879 54.7081C46.8299 54.3501 47.2139 53.6961 47.2139 52.9621V29.0661C47.2139 28.3301 46.8299 27.6781 46.1879 27.3201C45.5479 26.9641 44.7959 26.9801 44.1759 27.3641C38.2239 31.0441 28.6019 35.3181 16.2339 35.1021V46.9261C16.5339 46.9201 16.8339 46.9181 17.1319 46.9181Z" fill="#1B2E50"/>
<path d="M26.5078 48.716V33.31C26.5078 32.3038 25.6921 31.488 24.6858 31.488H16.4098C15.4036 31.488 14.5878 32.3038 14.5878 33.31L14.5878 48.716C14.5878 49.7223 15.4036 50.538 16.4098 50.538H24.6858C25.6921 50.538 26.5078 49.7223 26.5078 48.716Z" fill="#4374C9"/>
<path d="M24.6859 51.54H16.4079C14.8519 51.54 13.5859 50.274 13.5859 48.718V33.312C13.5859 31.756 14.8519 30.49 16.4079 30.49H24.6859C26.2419 30.49 27.5079 31.756 27.5079 33.312V48.718C27.5079 50.274 26.2419 51.54 24.6859 51.54ZM16.4079 32.49C15.9539 32.49 15.5859 32.858 15.5859 33.312V48.718C15.5859 49.172 15.9539 49.54 16.4079 49.54H24.6859C25.1399 49.54 25.5079 49.172 25.5079 48.718V33.312C25.5079 32.858 25.1399 32.49 24.6859 32.49H16.4079Z" fill="#1B2E50"/>
<path d="M65.124 75.9541H27.374C26.822 75.9541 26.374 75.5061 26.374 74.9541C26.374 74.4021 26.822 73.9541 27.374 73.9541H65.124C65.676 73.9541 66.124 74.4021 66.124 74.9541C66.124 75.5061 65.676 75.9541 65.124 75.9541Z" fill="#1B2E50"/>
<path d="M58.3557 9.34009H56.0737C55.5917 9.34009 55.2497 9.9581 55.3077 10.6821L55.9297 18.5161C55.9537 18.8281 56.2157 19.0741 56.5117 19.0741H57.9177C58.2157 19.0741 58.4757 18.8301 58.4997 18.5161L59.1217 10.6821C59.1797 9.9601 58.8377 9.34009 58.3557 9.34009Z" fill="white"/>
<path d="M57.2156 21.04C56.2136 21.04 55.3916 21.86 55.3916 22.864C55.3916 23.866 56.2116 24.688 57.2156 24.688C58.2176 24.688 59.0396 23.868 59.0396 22.864C59.0396 21.862 58.2196 21.04 57.2156 21.04Z" fill="white"/>
</svg>
