<svg width="80" height="80" viewBox="0 0 80 80" fill="none" xmlns="http://www.w3.org/2000/svg">
<path d="M50.7549 58.8472C49.1789 57.4552 46.3069 54.8433 41.1489 53.9913L37.9449 55.7852C33.5929 53.3992 28.9429 50.6772 27.3209 48.6552C26.1889 47.2432 25.3889 44.2932 24.7549 41.0852L27.9809 37.0852C28.8049 32.6992 25.8729 27.7532 24.6069 26.0832C24.1729 25.5092 23.3549 25.3472 22.6269 25.6832C19.1589 27.2872 16.6789 29.8552 15.6349 31.0692C15.2849 31.4772 14.9249 31.8892 15.0109 32.3732L15.1709 33.6052C15.4649 35.0052 18.1569 47.4232 22.3129 52.6012C26.1729 57.4112 38.3809 65.1872 40.6269 66.5992L42.4009 67.7252C43.2589 68.0592 44.3769 67.4172 44.8229 67.1152C46.1569 66.2132 49.0049 64.0412 50.9689 60.8152C51.3809 60.1392 51.2929 59.3272 50.7509 58.8472H50.7549Z" fill="white"/>
<path d="M42.9407 68.8191C42.6407 68.8191 42.3387 68.7712 42.0407 68.6552C41.9807 68.6312 41.9227 68.6032 41.8667 68.5672L40.0927 67.4412C37.6887 65.9332 25.4787 58.1432 21.5347 53.2252C17.2327 47.8632 14.4927 35.2312 14.1947 33.8092C14.1887 33.7832 14.1847 33.7592 14.1827 33.7332L14.0247 32.5212C13.8707 31.5852 14.4707 30.8891 14.8687 30.4271C16.0827 29.0191 18.6347 26.4291 22.2087 24.7731C23.3687 24.2371 24.6847 24.5251 25.4047 25.4771C25.5947 25.7271 30.0207 31.6472 28.9627 37.2672C28.9327 37.4292 28.8627 37.5812 28.7587 37.7092L25.8267 41.3452C26.1667 43.0252 26.9527 46.5952 28.1007 48.0252C29.5867 49.8772 34.0507 52.4932 37.9387 54.6372L40.6587 53.1151C40.8567 53.0051 41.0867 52.9632 41.3107 53.0012C46.6567 53.8852 49.6947 56.5711 51.3267 58.0151L51.4167 58.0952C52.3267 58.8992 52.4967 60.2311 51.8267 61.3311C49.8007 64.6591 46.9227 66.8991 45.3867 67.9391C44.8467 68.3051 43.9147 68.8172 42.9407 68.8172V68.8191ZM42.8287 66.8092C43.1287 66.8652 43.7227 66.6511 44.2647 66.2851C45.3927 65.5211 48.2207 63.4112 50.1167 60.2932C50.2747 60.0352 50.2647 59.7472 50.0907 59.5952L50.0007 59.5151C48.4527 58.1471 45.8887 55.8791 41.3247 55.0351L38.4327 56.6552C38.1327 56.8232 37.7667 56.8252 37.4627 56.6592C33.0487 54.2392 28.2987 51.4691 26.5407 49.2771C25.4507 47.9191 24.5987 45.4512 23.7727 41.2752C23.7147 40.9852 23.7887 40.6831 23.9747 40.4531L27.0367 36.6571C27.6087 32.9011 25.1947 28.5131 23.8087 26.6851C23.6627 26.4931 23.3427 26.4512 23.0447 26.5892C19.6907 28.1412 17.2727 30.6952 16.3887 31.7212C16.2527 31.8792 16.0447 32.1211 15.9987 32.2351C15.9987 32.2371 15.9987 32.2412 15.9987 32.2432L16.1547 33.4351C16.4807 34.9811 19.1127 47.0171 23.0907 51.9731C26.9167 56.7411 39.7107 64.8411 41.1567 65.7491L42.8247 66.8092H42.8287Z" fill="#1B2E50"/>
<path d="M50.4625 59.4323C47.2685 59.4323 44.0765 58.2163 41.6465 55.7863C36.7845 50.9243 36.7845 43.0144 41.6465 38.1524C46.5085 33.2904 54.4185 33.2904 59.2805 38.1524C64.1425 43.0144 64.1425 50.9243 59.2805 55.7863C56.8505 58.2163 53.6565 59.4323 50.4645 59.4323H50.4625ZM50.4625 40.1024C48.7045 40.1024 46.9445 40.7723 45.6045 42.1103C42.9265 44.7883 42.9265 49.1464 45.6045 51.8244C48.2825 54.5024 52.6405 54.5024 55.3185 51.8244C57.9965 49.1464 57.9965 44.7883 55.3185 42.1103C53.9785 40.7703 52.2205 40.1024 50.4605 40.1024H50.4625Z" fill="#4374C9"/>
<path d="M69.0625 68.3684C68.3465 68.3684 67.6285 68.0944 67.0825 67.5484L55.3205 55.7863C54.2265 54.6923 54.2265 52.9204 55.3205 51.8264C56.4145 50.7324 58.1865 50.7324 59.2805 51.8264L71.0425 63.5883C72.1365 64.6823 72.1365 66.4544 71.0425 67.5484C70.4965 68.0944 69.7785 68.3684 69.0625 68.3684Z" fill="#4374C9"/>
<path d="M50.936 12.2129C50.43 12.2129 50.02 12.623 50.02 13.127C50.02 13.631 50.43 14.0409 50.936 14.0409C51.442 14.0409 51.85 13.631 51.85 13.127C51.85 12.623 51.44 12.2129 50.936 12.2129Z" fill="#4374C9"/>
<path d="M61.4997 9.16416H32.8737C32.3877 9.16416 31.9937 9.56019 31.9937 10.0462V28.2201C31.9937 28.7101 32.3877 29.1081 32.8737 29.1081H34.5376C35.9956 29.1081 37.1817 30.2941 37.1817 31.7521V35.0661L40.4417 30.2661C40.9217 29.5441 41.7437 29.1062 42.6317 29.1062H61.4997C61.9857 29.1062 62.3797 28.7082 62.3797 28.2182V10.0441C62.3797 9.55814 61.9857 9.16211 61.4997 9.16211V9.16416ZM52.0337 15.9962C52.1657 19.5182 52.8916 24.5161 50.1136 26.8861C47.9296 28.7501 44.5597 28.5121 42.6417 26.3781C41.0357 24.5921 41.2717 22.2662 41.2717 20.0422C41.2717 19.1062 42.4536 18.6161 43.1156 19.2781C43.7816 19.9441 44.4496 20.6102 45.1156 21.2762C46.0996 22.2622 44.5716 23.7882 43.5876 22.8042C43.5356 22.7522 43.4817 22.6982 43.4297 22.6462C43.5077 23.5282 43.7496 24.3622 44.4136 25.0262C46.6156 27.2282 49.6797 25.3662 49.8537 22.5762C49.9897 20.4022 49.8857 18.1902 49.8597 16.0042C48.6937 15.5662 47.8597 14.4442 47.8597 13.1262C47.8597 11.4302 49.2397 10.0502 50.9357 10.0502C52.6317 10.0502 54.0097 11.4302 54.0097 13.1262C54.0097 14.4342 53.1877 15.5501 52.0337 15.9941V15.9962Z" fill="#4374C9"/>
<path d="M50.936 10.0527C49.24 10.0527 47.86 11.4327 47.86 13.1287C47.86 14.4467 48.694 15.5687 49.86 16.0067C49.886 18.1927 49.9879 20.4067 49.8539 22.5787C49.6799 25.3707 46.6159 27.2307 44.4139 25.0287C43.7499 24.3647 43.508 23.5307 43.4299 22.6487C43.4839 22.7007 43.5359 22.7547 43.5879 22.8067C44.5719 23.7907 46.0999 22.2647 45.1159 21.2787C44.4499 20.6127 43.7819 19.9468 43.1159 19.2808C42.4539 18.6188 41.2719 19.1087 41.2719 20.0447C41.2719 22.2667 41.0359 24.5928 42.6419 26.3808C44.5599 28.5148 47.9299 28.7508 50.1139 26.8888C52.8919 24.5188 52.166 19.5207 52.034 15.9987C53.188 15.5547 54.01 14.4388 54.01 13.1308C54.01 11.4348 52.63 10.0548 50.936 10.0548V10.0527ZM50.936 14.0428C50.43 14.0428 50.0199 13.6327 50.0199 13.1287C50.0199 12.6247 50.43 12.2147 50.936 12.2147C51.442 12.2147 51.8499 12.6247 51.8499 13.1287C51.8499 13.6327 51.44 14.0428 50.936 14.0428Z" fill="white"/>
<path d="M61.5 7.004H32.874C31.198 7.004 29.832 8.368 29.832 10.046V28.2199C29.832 29.9019 31.196 31.268 32.874 31.268H34.538C34.804 31.268 35.022 31.486 35.022 31.752V35.414C35.022 36.322 35.608 37.1119 36.48 37.3779C36.68 37.4399 36.884 37.468 37.086 37.468C37.754 37.468 38.388 37.142 38.772 36.568L42.234 31.4699C42.32 31.3419 42.468 31.264 42.632 31.264H61.5C63.176 31.264 64.542 29.8959 64.542 28.2159V10.042C64.542 8.36599 63.178 7 61.5 7V7.004ZM62.38 28.2199C62.38 28.7099 61.986 29.1079 61.5 29.1079H42.632C41.744 29.1079 40.922 29.546 40.442 30.268L37.182 35.068V31.754C37.182 30.296 35.996 29.11 34.538 29.11H32.874C32.388 29.11 31.994 28.712 31.994 28.222V10.0479C31.994 9.56195 32.388 9.16592 32.874 9.16592H61.5C61.986 9.16592 62.38 9.56195 62.38 10.0479V28.222V28.2199Z" fill="#1B2E50"/>
</svg>
