<svg width="80" height="80" viewBox="0 0 80 80" fill="none" xmlns="http://www.w3.org/2000/svg">
<g clip-path="url(#clip0_231_24525)">
<path d="M39.6317 63.156C52.9296 63.156 63.7097 52.3759 63.7097 39.078C63.7097 25.7801 52.9296 15 39.6317 15C26.3338 15 15.5537 25.7801 15.5537 39.078C15.5537 52.3759 26.3338 63.156 39.6317 63.156Z" fill="#4374C9"/>
<path d="M49.5801 59.2701C49.5801 60.1621 49.7001 60.9501 49.9201 61.6441H65.3461C65.5661 60.9501 65.6861 60.1621 65.6861 59.2701C65.6861 55.7061 63.7981 51.4761 61.0701 49.4081C62.6121 48.3241 63.6221 46.5341 63.6221 44.5061C63.6221 41.1981 60.9401 38.5181 57.6341 38.5181C54.3281 38.5181 51.6461 41.2001 51.6461 44.5061C51.6461 46.5341 52.6561 48.3261 54.1981 49.4081C51.4701 51.4761 49.5821 55.7061 49.5821 59.2701H49.5801Z" fill="white"/>
<path d="M65.3481 62.6461H49.9221C49.4861 62.6461 49.1001 62.3641 48.9681 61.9481C48.7121 61.1381 48.5801 60.2381 48.5801 59.2701C48.5801 55.7321 50.2501 51.7921 52.6641 49.4161C51.3821 48.1181 50.6441 46.3561 50.6441 44.5041C50.6441 40.6501 53.7801 37.5161 57.6321 37.5161C61.4841 37.5161 64.6201 40.6521 64.6201 44.5041C64.6201 46.3561 63.8821 48.1181 62.6001 49.4161C65.0141 51.7921 66.6841 55.7321 66.6841 59.2701C66.6841 60.2381 66.5541 61.1381 66.2961 61.9481C66.1641 62.3641 65.7781 62.6461 65.3421 62.6461H65.3481ZM50.7001 60.6461H64.5661C64.6461 60.2181 64.6861 59.7581 64.6861 59.2721C64.6861 55.9261 62.8721 52.0301 60.4661 50.2061C60.2121 50.0141 60.0641 49.7101 60.0701 49.3901C60.0761 49.0701 60.2341 48.7741 60.4961 48.5901C61.8281 47.6541 62.6221 46.1281 62.6221 44.5061C62.6221 41.7561 60.3841 39.5181 57.6341 39.5181C54.8841 39.5181 52.6461 41.7561 52.6461 44.5061C52.6461 46.1281 53.4401 47.6561 54.7721 48.5901C55.0341 48.7741 55.1921 49.0701 55.1981 49.3901C55.2041 49.7101 55.0561 50.0121 54.8021 50.2061C52.3961 52.0281 50.5821 55.9261 50.5821 59.2721C50.5821 59.7581 50.6221 60.2181 50.7021 60.6461H50.7001Z" fill="#1B2E50"/>
<path d="M29.606 59.2701C29.606 60.1621 29.486 60.9501 29.266 61.6441H13.84C13.62 60.9501 13.5 60.1621 13.5 59.2701C13.5 55.7061 15.388 51.4761 18.116 49.4081C16.574 48.3241 15.564 46.5341 15.564 44.5061C15.564 41.1981 18.246 38.5181 21.552 38.5181C24.858 38.5181 27.54 41.2001 27.54 44.5061C27.54 46.5341 26.53 48.3261 24.988 49.4081C27.716 51.4761 29.604 55.7061 29.604 59.2701H29.606Z" fill="white"/>
<path d="M29.266 62.6461H13.84C13.404 62.6461 13.018 62.3641 12.886 61.9481C12.63 61.1381 12.498 60.2381 12.498 59.2701C12.498 55.7321 14.168 51.7921 16.582 49.4161C15.3 48.1181 14.562 46.3561 14.562 44.5041C14.562 40.6501 17.698 37.5161 21.55 37.5161C25.402 37.5161 28.538 40.6521 28.538 44.5041C28.538 46.3561 27.8 48.1181 26.518 49.4161C28.932 51.7921 30.602 55.7321 30.602 59.2701C30.602 60.2381 30.472 61.1381 30.216 61.9481C30.084 62.3641 29.698 62.6461 29.262 62.6461H29.266ZM14.62 60.6461H28.486C28.566 60.2181 28.606 59.7581 28.606 59.2721C28.606 55.9261 26.792 52.0301 24.386 50.2061C24.132 50.0141 23.984 49.7101 23.99 49.3901C23.996 49.0701 24.154 48.7741 24.416 48.5901C25.748 47.6541 26.542 46.1281 26.542 44.5061C26.542 41.7561 24.304 39.5181 21.554 39.5181C18.804 39.5181 16.566 41.7561 16.566 44.5061C16.566 46.1281 17.36 47.6561 18.692 48.5901C18.954 48.7741 19.112 49.0701 19.118 49.3901C19.124 49.7101 18.976 50.0121 18.722 50.2061C16.316 52.0281 14.502 55.9261 14.502 59.2721C14.502 59.7581 14.542 60.2181 14.622 60.6461H14.62Z" fill="#1B2E50"/>
<path d="M27.9717 62.4201C27.9717 63.7121 28.1457 64.8541 28.4637 65.8581H50.7997C51.1177 64.8521 51.2917 63.7121 51.2917 62.4201C51.2917 57.2601 48.5577 51.1341 44.6077 48.1401C46.8417 46.5721 48.3017 43.9781 48.3017 41.0421C48.3017 36.2541 44.4197 32.3721 39.6317 32.3721C34.8437 32.3721 30.9617 36.2541 30.9617 41.0421C30.9617 43.9781 32.4237 46.5721 34.6557 48.1401C30.7057 51.1341 27.9717 57.2581 27.9717 62.4201Z" fill="white"/>
<path d="M50.7997 66.858H28.4637C28.0277 66.858 27.6417 66.576 27.5097 66.16C27.1517 65.032 26.9697 63.774 26.9697 62.42C26.9697 57.246 29.4877 51.468 33.0817 48.156C31.1077 46.336 29.9597 43.76 29.9597 41.044C29.9597 35.712 34.2977 31.374 39.6297 31.374C44.9617 31.374 49.2997 35.712 49.2997 41.044C49.2997 43.76 48.1517 46.338 46.1777 48.156C49.7717 51.468 52.2897 57.246 52.2897 62.42C52.2897 63.774 52.1077 65.032 51.7497 66.16C51.6177 66.576 51.2317 66.858 50.7957 66.858H50.7997ZM29.2277 64.858H50.0357C50.2057 64.108 50.2917 63.29 50.2917 62.42C50.2917 57.45 47.5877 51.654 44.0037 48.938C43.7497 48.746 43.6017 48.442 43.6077 48.122C43.6137 47.802 43.7717 47.506 44.0317 47.322C46.0777 45.884 47.3017 43.536 47.3017 41.042C47.3017 36.812 43.8597 33.372 39.6317 33.372C35.4037 33.372 31.9617 36.812 31.9617 41.042C31.9617 43.536 33.1837 45.884 35.2317 47.322C35.4937 47.506 35.6517 47.802 35.6557 48.122C35.6617 48.442 35.5137 48.744 35.2597 48.938C31.6757 51.654 28.9717 57.45 28.9717 62.42C28.9717 63.29 29.0577 64.108 29.2277 64.858Z" fill="#1B2E50"/>
</g>
<defs>
<clipPath id="clip0_231_24525">
<rect width="54.188" height="51.858" fill="white" transform="translate(12.5 15)"/>
</clipPath>
</defs>
</svg>
