<svg width="80" height="80" viewBox="0 0 80 80" fill="none" xmlns="http://www.w3.org/2000/svg">
<path d="M62.4358 26.1956H17.9438V53.6156H62.4358V26.1956Z" fill="white"/>
<path d="M62.4358 54.6136H17.9438C17.3918 54.6136 16.9438 54.1656 16.9438 53.6136V26.1956C16.9438 25.6436 17.3918 25.1956 17.9438 25.1956H62.4358C62.9878 25.1956 63.4358 25.6436 63.4358 26.1956V53.6156C63.4358 54.1676 62.9878 54.6156 62.4358 54.6156V54.6136ZM18.9438 52.6136H61.4358V27.1936H18.9438V52.6136Z" fill="#1B2E50"/>
<path d="M16.94 60.1997H21.384C24.016 60.1997 26.118 60.9177 26.118 63.3617C26.118 64.4897 25.486 65.7197 24.46 66.1137V66.1817C25.742 66.5237 26.716 67.4817 26.716 69.1737C26.716 71.7717 24.512 72.9337 21.742 72.9337H16.938V60.1997H16.94ZM21.264 65.2597C22.564 65.2597 23.144 64.6957 23.144 63.8237C23.144 62.9517 22.546 62.5417 21.264 62.5417H20V65.2597H21.264ZM21.52 70.5917C22.99 70.5917 23.742 70.0617 23.742 68.9677C23.742 67.8737 23.006 67.4977 21.52 67.4977H19.998V70.5917H21.52Z" fill="#4374C9"/>
<path d="M31.1599 60.1997H34.8179L38.7659 72.9337H35.5519L34.8159 70.0117H31.0559L30.3219 72.9337H27.2119L31.1599 60.1997ZM31.6379 67.6517H34.2359L33.9619 66.5757C33.6199 65.3117 33.2959 63.7897 32.9539 62.4897H32.8859C32.5779 63.8237 32.2359 65.3097 31.9119 66.5757L31.6379 67.6517Z" fill="#4374C9"/>
<path d="M40.0981 60.1997H43.2082L46.3702 66.3017L47.6182 69.1217H47.7041C47.5501 67.7717 47.2942 65.9417 47.2942 64.4217V60.1997H50.2001V72.9337H47.0902L43.9442 66.7977L42.6961 64.0117H42.6102C42.7462 65.4297 43.0042 67.1737 43.0042 68.7117V72.9337H40.0981V60.1997Z" fill="#4374C9"/>
<path d="M53.1558 60.1997H56.2158V65.2417H56.2678L59.8738 60.1997H63.2238L59.3778 65.3097L63.9418 72.9337H60.6078L57.5998 67.7197L56.2158 69.5997V72.9337H53.1558V60.1997Z" fill="#4374C9"/>
<path d="M37.7201 8.71354L13.498 22.4815H66.8801L42.6581 8.71354C41.1261 7.84354 39.2501 7.84354 37.7201 8.71354Z" fill="white"/>
<path d="M66.8818 23.4817H13.4998C13.0458 23.4817 12.6498 23.1757 12.5338 22.7377C12.4178 22.2997 12.6118 21.8377 13.0058 21.6137L37.2278 7.84566C39.0558 6.80566 41.3278 6.80766 43.1558 7.84566L67.3778 21.6137C67.7718 21.8377 67.9658 22.2997 67.8498 22.7377C67.7338 23.1757 67.3378 23.4817 66.8838 23.4817H66.8818ZM17.2818 21.4817H63.0998L42.1658 9.58166C40.9478 8.88966 39.4338 8.88966 38.2158 9.58166L17.2818 21.4817Z" fill="#1B2E50"/>
<path d="M66.882 22.4817H13.5V27.6177H66.882V22.4817Z" fill="white"/>
<path d="M66.882 28.6177H13.5C12.948 28.6177 12.5 28.1697 12.5 27.6177V22.4817C12.5 21.9297 12.948 21.4817 13.5 21.4817H66.882C67.434 21.4817 67.882 21.9297 67.882 22.4817V27.6177C67.882 28.1697 67.434 28.6177 66.882 28.6177ZM14.5 26.6177H65.882V23.4817H14.5V26.6177Z" fill="#1B2E50"/>
<path d="M66.882 51.0457H13.5V56.1817H66.882V51.0457Z" fill="white"/>
<path d="M66.882 57.1836H13.5C12.948 57.1836 12.5 56.7356 12.5 56.1836V51.0476C12.5 50.4956 12.948 50.0476 13.5 50.0476H66.882C67.434 50.0476 67.882 50.4956 67.882 51.0476V56.1836C67.882 56.7356 67.434 57.1836 66.882 57.1836ZM14.5 55.1836H65.882V52.0476H14.5V55.1836Z" fill="#1B2E50"/>
<path d="M40.1899 32.4116C38.4199 32.4116 36.9839 33.8476 36.9839 35.6176V50.9876H43.3959V35.6176C43.3959 33.8476 41.9599 32.4116 40.1899 32.4116Z" fill="#4374C9"/>
<path d="M43.3959 51.9876H36.9839C36.4319 51.9876 35.9839 51.5396 35.9839 50.9876V35.6176C35.9839 33.2996 37.8699 31.4116 40.1899 31.4116C42.5099 31.4116 44.3959 33.2976 44.3959 35.6176V50.9876C44.3959 51.5396 43.9479 51.9876 43.3959 51.9876ZM37.9839 49.9876H42.3959V35.6176C42.3959 34.4016 41.4059 33.4116 40.1899 33.4116C38.9739 33.4116 37.9839 34.4016 37.9839 35.6176V49.9876Z" fill="#1B2E50"/>
<path d="M52.5239 32.4116C50.7539 32.4116 49.3179 33.8476 49.3179 35.6176V50.9876H55.7299V35.6176C55.7299 33.8476 54.2939 32.4116 52.5239 32.4116Z" fill="#4374C9"/>
<path d="M55.7299 51.9876H49.3179C48.7659 51.9876 48.3179 51.5396 48.3179 50.9876V35.6176C48.3179 33.2996 50.2039 31.4116 52.5239 31.4116C54.8439 31.4116 56.7299 33.2976 56.7299 35.6176V50.9876C56.7299 51.5396 56.2819 51.9876 55.7299 51.9876ZM50.3179 49.9876H54.7299V35.6176C54.7299 34.4016 53.7399 33.4116 52.5239 33.4116C51.3079 33.4116 50.3179 34.4016 50.3179 35.6176V49.9876Z" fill="#1B2E50"/>
<path d="M31.064 50.9875H24.652V35.6175C24.652 33.8475 26.088 32.4115 27.858 32.4115C29.628 32.4115 31.064 33.8475 31.064 35.6175L31.064 50.9875Z" fill="#4374C9"/>
<path d="M31.0619 51.9876H24.6499C24.0979 51.9876 23.6499 51.5396 23.6499 50.9876V35.6176C23.6499 33.2996 25.5359 31.4116 27.8559 31.4116C30.1759 31.4116 32.0619 33.2976 32.0619 35.6176V50.9876C32.0619 51.5396 31.6139 51.9876 31.0619 51.9876ZM25.6519 49.9876H30.0639V35.6176C30.0639 34.4016 29.0739 33.4116 27.8579 33.4116C26.6419 33.4116 25.6519 34.4016 25.6519 35.6176V49.9876Z" fill="#1B2E50"/>
</svg>
