<svg width="80" height="80" viewBox="0 0 80 80" fill="none" xmlns="http://www.w3.org/2000/svg">
<g clip-path="url(#clip0_231_24522)">
<path d="M54.3579 45.3C51.8219 30.482 43.1979 25.224 43.1979 25.224L47.7599 19.488C47.7599 19.488 42.3419 15.374 35.2819 15.374C28.5999 15.374 22.8039 19.488 22.8039 19.488L27.3659 25.224C27.3659 25.224 18.7419 30.484 16.2079 45.3C13.6719 60.118 35.2839 59.28 35.2839 59.28C35.2839 59.28 56.8939 60.116 54.3599 45.3H54.3579Z" fill="white"/>
<path d="M35.9784 60.2914C35.6244 60.2914 35.3844 60.2854 35.2824 60.2814C34.3844 60.3114 22.7844 60.5774 17.5264 54.5834C15.3484 52.0994 14.5724 48.9194 15.2204 45.1314C17.3404 32.7494 23.5604 26.8614 25.9284 25.0234L22.0224 20.1134C21.8504 19.8994 21.7764 19.6234 21.8144 19.3514C21.8524 19.0794 22.0024 18.8354 22.2264 18.6754C22.4744 18.4994 28.3624 14.3774 35.2824 14.3774C42.5944 14.3774 48.1324 18.5194 48.3644 18.6954C48.5784 18.8574 48.7184 19.0994 48.7524 19.3674C48.7864 19.6354 48.7104 19.9034 48.5424 20.1134L44.6364 25.0234C47.0044 26.8634 53.2244 32.7494 55.3424 45.1334C55.9904 48.9214 55.2144 52.1014 53.0364 54.5854C48.3764 59.8994 38.7324 60.2934 35.9764 60.2934L35.9784 60.2914ZM35.2824 58.2814C35.2944 58.2814 35.3084 58.2814 35.3204 58.2814C35.4344 58.2854 46.8124 58.6514 51.5364 53.2614C53.2964 51.2534 53.9124 48.6314 53.3724 45.4694C50.9544 31.3314 42.7584 26.1294 42.6744 26.0774C42.4304 25.9274 42.2624 25.6794 42.2124 25.3974C42.1624 25.1154 42.2364 24.8254 42.4144 24.6014L46.3004 19.7154C44.5604 18.6294 40.3324 16.3754 35.2804 16.3754C30.4884 16.3754 26.1024 18.6474 24.2764 19.7374L28.1464 24.6034C28.3244 24.8274 28.3984 25.1174 28.3484 25.4014C28.2984 25.6834 28.1284 25.9314 27.8844 26.0814C27.8044 26.1314 19.6084 31.3334 17.1904 45.4714C16.6484 48.6354 17.2664 51.2574 19.0264 53.2634C23.7504 58.6534 35.1284 58.2874 35.2424 58.2834C35.2544 58.2834 35.2684 58.2834 35.2804 58.2834L35.2824 58.2814Z" fill="#1B2E50"/>
<path d="M44.8318 23.552H25.7338C24.6999 23.552 23.8618 24.3901 23.8618 25.424V25.982C23.8618 27.0159 24.6999 27.854 25.7338 27.854H44.8318C45.8657 27.854 46.7038 27.0159 46.7038 25.982V25.424C46.7038 24.3901 45.8657 23.552 44.8318 23.552Z" fill="#4374C9"/>
<path d="M44.8318 28.854H25.7338C24.1498 28.854 22.8618 27.566 22.8618 25.982V25.424C22.8618 23.84 24.1498 22.552 25.7338 22.552H44.8318C46.4158 22.552 47.7038 23.84 47.7038 25.424V25.982C47.7038 27.566 46.4158 28.854 44.8318 28.854ZM25.7338 24.552C25.2538 24.552 24.8618 24.944 24.8618 25.424V25.982C24.8618 26.462 25.2538 26.854 25.7338 26.854H44.8318C45.3118 26.854 45.7038 26.462 45.7038 25.982V25.424C45.7038 24.944 45.3118 24.552 44.8318 24.552H25.7338Z" fill="#1B2E50"/>
<path d="M29.6159 41.4689L28.7442 37.999H30.9374L31.7461 41.4689H33.0529L33.8148 37.999H36.3039L37.0511 41.4689H38.374L39.2457 37.999H41.2221L40.3826 41.4689H42V43.1511H39.8537L39.0142 46.999H36.4782L35.7003 43.1511H34.3319L33.5379 46.999H30.9872L30.1316 43.1511H28.0161L28 41.4689H29.6174H29.6159ZM32.3849 45.0743L32.7116 43.1496H32.0582L32.3849 45.0743ZM34.7495 41.4689H35.3252L35.0293 39.6655L34.7495 41.4689ZM37.7528 45.09L38.0795 43.1511H37.41L37.7528 45.09Z" fill="#4374C9"/>
<path d="M54.1902 56.426C54.1902 56.426 49.2822 50.444 46.7042 49.506C44.1262 48.568 38.9342 46.2 38.9342 46.2C38.9342 46.2 36.8142 49.062 39.7822 51.944L43.7102 55.144C38.5042 56.47 31.3042 58.576 31.3042 58.576C31.3042 58.576 27.7702 54.912 24.9582 55.69C22.1462 56.466 19.6082 57.698 23.0742 60.158C26.5402 62.618 30.0242 64.376 30.0242 64.376H54.1362L62.1022 64.624V55.126L54.1882 56.426H54.1902Z" fill="white"/>
<path d="M62.1042 65.6239C62.0942 65.6239 62.0842 65.6239 62.0722 65.6239L54.1222 65.3759H30.0262C29.8702 65.3759 29.7162 65.3399 29.5762 65.2679C29.4302 65.1939 25.9842 63.4479 22.4982 60.9719C21.9162 60.5579 20.1402 59.2979 20.4302 57.6579C20.7162 56.0339 22.7462 55.2639 24.6962 54.7259C27.4502 53.9639 30.4462 56.3959 31.5882 57.4539C33.1322 57.0059 37.5862 55.7239 41.5522 54.6739L39.1542 52.7219C39.1322 52.7039 39.1102 52.6839 39.0882 52.6639C36.2442 49.9019 37.2202 46.8399 38.1322 45.6079C38.4142 45.2279 38.9222 45.0979 39.3502 45.2939C39.4022 45.3179 44.5362 47.6559 47.0462 48.5699C49.4602 49.4479 53.3242 53.8479 54.5922 55.3499L61.9422 54.1419C62.2322 54.0939 62.5282 54.1759 62.7522 54.3659C62.9762 54.5559 63.1042 54.8339 63.1042 55.1279V64.6259C63.1042 64.8959 62.9942 65.1559 62.8002 65.3439C62.6142 65.5259 62.3642 65.6259 62.1042 65.6259V65.6239ZM30.2682 63.3759H54.1382C54.1482 63.3759 54.1582 63.3759 54.1702 63.3759L61.1042 63.5919V56.3019L54.3522 57.4119C54.0002 57.4699 53.6442 57.3359 53.4162 57.0599C52.0982 55.4539 48.2622 51.1359 46.3602 50.4459C44.3862 49.7279 40.9762 48.2179 39.3802 47.4999C39.0902 48.3159 38.9502 49.7219 40.4482 51.1959L44.3402 54.3659C44.6322 54.6039 44.7662 54.9879 44.6862 55.3559C44.6042 55.7239 44.3222 56.0159 43.9562 56.1099C38.8282 57.4159 31.6562 59.5119 31.5842 59.5339C31.2282 59.6379 30.8422 59.5359 30.5842 59.2679C29.7142 58.3699 27.0522 56.1459 25.2242 56.6519C22.5322 57.3959 22.4002 57.9779 22.3962 58.0039C22.3962 58.0079 22.3842 58.4399 23.6522 59.3419C26.5382 61.3899 29.4722 62.9619 30.2662 63.3759H30.2682Z" fill="#1B2E50"/>
</g>
<defs>
<clipPath id="clip0_231_24522">
<rect width="48.104" height="51.248" fill="white" transform="translate(15 14.376)"/>
</clipPath>
</defs>
</svg>
