<svg width="24" height="25" viewBox="0 0 24 25" fill="none" xmlns="http://www.w3.org/2000/svg">
    <path fill-rule="evenodd" clip-rule="evenodd" d="M9 4.5a7 7 0 0 0 0 14h5.8l5.2 2v-4.101A7 7 0 0 0 15 4.5H9z" fill="#fff"/>
    <path d="m14.8 18.5.251-.653a.699.699 0 0 0-.251-.047v.7zm5.2 2-.251.653a.7.7 0 0 0 .951-.653H20zm0-4.101-.5-.49a.7.7 0 0 0-.2.49h.7zM2.7 11.5A6.3 6.3 0 0 1 9 5.2V3.8a7.7 7.7 0 0 0-7.7 7.7h1.4zM9 17.8a6.3 6.3 0 0 1-6.3-6.3H1.3A7.7 7.7 0 0 0 9 19.2v-1.4zm5.8 0H9v1.4h5.8v-1.4zm5.451 2.047-5.2-2-.502 1.306 5.2 2 .502-1.306zm-.951-3.448V20.5h1.4v-4.101h-1.4zm2-4.899a6.277 6.277 0 0 1-1.8 4.41l1 .979a7.677 7.677 0 0 0 2.2-5.389h-1.4zM15 5.2a6.3 6.3 0 0 1 6.3 6.3h1.4A7.7 7.7 0 0 0 15 3.8v1.4zm-6 0h6V3.8H9v1.4z" fill="#1D1D1D"/>
    <circle cx="8" cy="11.5" r="1" fill="#1D1D1D"/>
    <circle cx="12" cy="11.5" r="1" fill="#1D1D1D"/>
    <circle cx="16" cy="11.5" r="1" fill="#1D1D1D"/>
</svg>
