<svg width="40" height="40" viewBox="0 0 40 40" fill="none" xmlns="http://www.w3.org/2000/svg">
<mask id="path-1-inside-1_384_25121" fill="white">
<path d="M0 20C0 8.95431 8.95431 0 20 0C31.0457 0 40 8.95431 40 20C40 31.0457 31.0457 40 20 40C8.95431 40 0 31.0457 0 20Z"/>
</mask>
<path d="M20 39C9.50659 39 1 30.4934 1 20H-1C-1 31.598 8.40202 41 20 41V39ZM39 20C39 30.4934 30.4934 39 20 39V41C31.598 41 41 31.598 41 20H39ZM20 1C30.4934 1 39 9.50659 39 20H41C41 8.40202 31.598 -1 20 -1V1ZM20 -1C8.40202 -1 -1 8.40202 -1 20H1C1 9.50659 9.50659 1 20 1V-1Z" fill="white" fill-opacity="0.3" mask="url(#path-1-inside-1_384_25121)"/>
<path d="M22.9104 19.6568H20.7976V27.2H20.74H17.5992V19.6568H16V16.9907H17.5992V15.4031C17.5992 13.3038 18.456 12 21.0264 12H23.1392V14.6652H21.8256C20.8552 14.6652 20.7976 15.0617 20.7976 15.6861V16.9907H23.196L22.9104 19.6568Z" fill="white"/>
</svg>
