<svg width="20" height="20" viewBox="0 0 20 20" fill="none" xmlns="http://www.w3.org/2000/svg">
    <mask id="naqm69bqza" fill="#fff">
        <path d="M10 18H3a1 1 0 0 1-1-1V3a1 1 0 0 1 1-1h7v16z"/>
    </mask>
    <path d="M10 19.4H3A2.4 2.4 0 0 1 .6 17l2.8-.4H10v2.8zM.6 3A2.4 2.4 0 0 1 3 .6h7v2.8H3.4L.6 3zM10 2v16V2zM3 19.4A2.4 2.4 0 0 1 .6 17V3A2.4 2.4 0 0 1 3 .6l.4 2.8v13.2L3 19.4z" fill="#fff" mask="url(#naqm69bqza)"/>
    <path d="M5 10h12" stroke="#fff" stroke-width="1.4"/>
    <path d="M13.5 6.5 17 10l-3.5 3.5" stroke="#fff" stroke-width="1.2"/>
</svg>
