<svg width="80" height="80" viewBox="0 0 80 80" fill="none" xmlns="http://www.w3.org/2000/svg">
<path d="M69.8683 11.8438H9.55029V45.0818H69.8683V11.8438Z" fill="white"/>
<path d="M69.8702 46.0818H9.55225C9.00025 46.0818 8.55225 45.6338 8.55225 45.0818V11.8438C8.55225 11.2918 9.00025 10.8438 9.55225 10.8438H69.8702C70.4222 10.8438 70.8702 11.2918 70.8702 11.8438V45.0818C70.8702 45.6338 70.4222 46.0818 69.8702 46.0818ZM10.5502 44.0818H68.8682V12.8438H10.5502V44.0818Z" fill="#1B2E50"/>
<path d="M70.3101 45.0818H9.11206C8.38194 45.0818 7.79004 45.6737 7.79004 46.4038V50.1778C7.79004 50.9079 8.38194 51.4998 9.11206 51.4998H70.3101C71.0402 51.4998 71.6321 50.9079 71.6321 50.1778V46.4038C71.6321 45.6737 71.0402 45.0818 70.3101 45.0818Z" fill="white"/>
<path d="M70.3081 52.4997H9.11011C7.83011 52.4997 6.78809 51.4577 6.78809 50.1777V46.4057C6.78809 45.1257 7.83011 44.0837 9.11011 44.0837H70.3081C71.5881 44.0837 72.6301 45.1257 72.6301 46.4057V50.1777C72.6301 51.4577 71.5881 52.4997 70.3081 52.4997ZM9.11211 46.0817C8.93411 46.0817 8.79009 46.2257 8.79009 46.4037V50.1757C8.79009 50.3537 8.93411 50.4977 9.11211 50.4977H70.3101C70.4881 50.4977 70.6321 50.3537 70.6321 50.1757V46.4037C70.6321 46.2257 70.4881 46.0817 70.3101 46.0817H9.11211Z" fill="#1B2E50"/>
<path d="M65.7742 44.2276C65.0182 43.3516 65.0142 42.0736 65.7022 41.1436C66.8282 39.6236 67.4642 37.7177 67.3742 35.6617C67.1822 31.2417 63.6182 27.6676 59.2002 27.4636C54.2742 27.2376 50.2082 31.1656 50.2082 36.0416C50.2082 37.9636 50.8402 39.7396 51.9082 41.1696C52.3702 41.7876 52.4962 42.5697 52.3042 43.2817C52.1502 43.8497 51.5522 44.1757 50.9822 44.0317L37.9282 40.7236C36.1142 40.2636 34.6322 41.4196 34.6322 43.2896C34.1862 45.0476 35.2602 46.8496 37.0182 47.2956L48.4002 50.6396C48.9182 50.7916 49.1922 51.3577 48.9862 51.8556C47.0882 56.4356 45.9322 62.3416 45.3842 65.6636C45.1622 67.0056 46.1962 68.2276 47.5582 68.2276H70.0142C71.3762 68.2276 72.4122 67.0057 72.1882 65.6617C71.2862 60.2537 68.9322 47.8856 65.7762 44.2276H65.7742Z" fill="white"/>
<path d="M70.0123 69.2297H47.5582C46.6162 69.2297 45.7262 68.8177 45.1162 68.0997C44.5062 67.3817 44.2442 66.4357 44.3982 65.5037C44.9242 62.3117 46.0942 56.2777 48.0242 51.5737L36.7562 48.2617C35.6562 47.9777 34.7282 47.2817 34.1422 46.2977C33.5742 45.3457 33.3963 44.2377 33.6363 43.1657C33.6683 42.0137 34.1582 40.9917 34.9882 40.3437C35.8482 39.6737 37.0102 39.4597 38.1762 39.7537L51.2302 43.0617C51.2842 43.0757 51.3342 43.0457 51.3402 43.0217C51.4582 42.5817 51.3742 42.1237 51.1082 41.7677C49.8662 40.1037 49.2103 38.1237 49.2103 36.0417C49.2103 33.3977 50.2642 30.9357 52.1762 29.1077C54.0882 27.2817 56.5982 26.3417 59.2482 26.4637C64.1542 26.6897 68.1642 30.7097 68.3762 35.6177C68.4722 37.8417 67.8262 39.9577 66.5083 41.7377C66.0842 42.3097 66.0942 43.0657 66.5343 43.5737C69.7503 47.3017 72.0742 58.9097 73.1742 65.4957C73.3302 66.4257 73.0683 67.3737 72.4603 68.0937C71.8503 68.8137 70.9602 69.2277 70.0162 69.2277L70.0123 69.2297ZM37.1482 41.6257C36.7902 41.6257 36.4702 41.7277 36.2162 41.9237C35.8402 42.2157 35.6342 42.7017 35.6342 43.2917C35.6342 43.3737 35.6242 43.4577 35.6042 43.5377C35.4542 44.1297 35.5463 44.7457 35.8603 45.2757C36.1763 45.8057 36.6742 46.1797 37.2662 46.3277C37.2782 46.3317 37.2902 46.3337 37.3022 46.3377L48.6842 49.6817C49.2043 49.8337 49.6362 50.2017 49.8702 50.6917C50.1022 51.1777 50.1183 51.7437 49.9123 52.2417C48.0343 56.7757 46.8882 62.6997 46.3722 65.8297C46.3142 66.1857 46.4102 66.5317 46.6422 66.8057C46.8742 67.0797 47.2003 67.2297 47.5603 67.2297H70.0142C70.3742 67.2297 70.7002 67.0777 70.9322 66.8037C71.1642 66.5297 71.2602 66.1837 71.2002 65.8277C69.4142 55.1277 67.1022 47.2977 65.0182 44.8817C63.9642 43.6597 63.9162 41.8797 64.9002 40.5497C65.9422 39.1417 66.4542 37.4657 66.3762 35.7057C66.2082 31.8237 63.0362 28.6417 59.1542 28.4637C57.0562 28.3677 55.0682 29.1097 53.5562 30.5557C52.0422 32.0017 51.2083 33.9497 51.2083 36.0437C51.2083 37.6917 51.7283 39.2577 52.7103 40.5737C53.3463 41.4257 53.5502 42.5077 53.2702 43.5457C52.9782 44.6297 51.8422 45.2837 50.7382 45.0037L37.6842 41.6957C37.5002 41.6497 37.3202 41.6257 37.1482 41.6257Z" fill="#1B2E50"/>
<path d="M60.2819 46.7237L60.9979 44.9017C61.2219 44.4957 60.8699 44.0317 60.3379 44.0317H57.2499C56.7179 44.0317 56.3659 44.4957 56.5899 44.9017L57.3059 46.7237C57.5219 47.1157 57.5819 47.5577 57.4739 47.9797L55.6499 56.2397C55.5019 56.8157 55.7379 57.4137 56.2679 57.8017L57.9059 59.0037C58.4159 59.3777 59.1759 59.3777 59.6859 59.0037L61.3239 57.8017C61.8519 57.4137 62.0879 56.8157 61.9419 56.2397L60.1179 47.9797C60.0099 47.5577 60.0679 47.1157 60.2859 46.7237H60.2819Z" fill="#4374C9"/>
<path d="M21.608 29.2578H17.754C17.3386 29.2578 17.002 29.5945 17.002 30.0098V36.5078C17.002 36.9231 17.3386 37.2598 17.754 37.2598H21.608C22.0233 37.2598 22.36 36.9231 22.36 36.5078V30.0098C22.36 29.5945 22.0233 29.2578 21.608 29.2578Z" fill="#4374C9"/>
<path d="M29.3402 22.8958H25.9982C25.4415 22.8958 24.9902 23.3471 24.9902 23.9038V36.2518C24.9902 36.8085 25.4415 37.2598 25.9982 37.2598H29.3402C29.8969 37.2598 30.3482 36.8085 30.3482 36.2518V23.9038C30.3482 23.3471 29.8969 22.8958 29.3402 22.8958Z" fill="#4374C9"/>
<path d="M37.2201 19.6658H34.0901C33.4748 19.6658 32.9761 20.1645 32.9761 20.7798V36.1458C32.9761 36.761 33.4748 37.2598 34.0901 37.2598H37.2201C37.8353 37.2598 38.3341 36.761 38.3341 36.1458V20.7798C38.3341 20.1645 37.8353 19.6658 37.2201 19.6658Z" fill="#4374C9"/>
</svg>
