<svg width="80" height="80" viewBox="0 0 80 80" fill="none" xmlns="http://www.w3.org/2000/svg">
<path d="M39.926 34.3963C42.494 31.8403 44.036 28.2523 43.87 24.3043C43.582 17.4043 38 11.7903 31.102 11.4663C23.39 11.1023 17.022 17.2483 17.022 24.8803C17.022 28.6123 18.546 31.9883 21.004 34.4223C21.566 34.9783 21.51 35.9163 20.882 36.3943C15.238 40.6883 10.994 58.0423 9.48202 65.0283C9.14802 66.5723 10.28 68.0443 11.856 68.1183C15.608 68.2943 22.532 68.5583 30.452 68.5583C38.372 68.5583 45.296 68.2943 49.048 68.1183C50.626 68.0443 51.756 66.5723 51.422 65.0283C49.912 58.0563 45.678 40.7583 40.048 36.4083C39.41 35.9163 39.356 34.9663 39.926 34.3983V34.3963Z" fill="white"/>
<path d="M30.452 69.5583C22.384 69.5583 15.308 69.2823 11.808 69.1163C10.762 69.0663 9.79595 68.5622 9.15795 67.7322C8.51995 66.9022 8.28196 65.8383 8.50196 64.8163C10.464 55.7563 14.6 39.9143 20.274 35.5983C20.366 35.5283 20.386 35.4302 20.388 35.3782C20.392 35.3242 20.384 35.2202 20.298 35.1342C17.54 32.4022 16.02 28.7622 16.02 24.8822C16.02 21.0022 17.608 17.1903 20.492 14.4403C23.374 11.6923 27.158 10.2803 31.148 10.4683C38.532 10.8163 44.56 16.8763 44.868 24.2643C45.036 28.3063 43.492 32.2583 40.63 35.1063C40.534 35.2003 40.528 35.3143 40.53 35.3723C40.534 35.4303 40.554 35.5383 40.656 35.6163C46.314 39.9843 50.44 55.7863 52.396 64.8163C52.618 65.8403 52.38 66.9022 51.742 67.7322C51.104 68.5622 50.138 69.0663 49.092 69.1163C45.59 69.2803 38.514 69.5583 30.45 69.5583H30.452ZM30.446 12.4503C27.232 12.4503 24.208 13.6562 21.872 15.8842C19.388 18.2542 18.02 21.4482 18.02 24.8802C18.02 28.3122 19.328 31.3583 21.706 33.7103C22.182 34.1803 22.428 34.8363 22.386 35.5063C22.342 36.1743 22.014 36.7863 21.486 37.1883C15.982 41.3763 11.654 59.7162 10.458 65.2362C10.362 65.6842 10.466 66.1483 10.744 66.5103C11.022 66.8723 11.444 67.0943 11.902 67.1143C15.384 67.2783 22.424 67.5543 30.45 67.5543C38.476 67.5543 45.514 67.2783 48.998 67.1143C49.456 67.0923 49.878 66.8723 50.156 66.5103C50.434 66.1483 50.538 65.6823 50.442 65.2362C49.25 59.7323 44.93 41.4423 39.434 37.1963C38.904 36.7863 38.576 36.1663 38.534 35.4943C38.492 34.8203 38.742 34.1602 39.218 33.6842C41.72 31.1942 43.016 27.8763 42.868 24.3423C42.602 17.9783 37.412 12.7603 31.052 12.4603C30.848 12.4503 30.646 12.4463 30.444 12.4463L30.446 12.4503Z" fill="#1B2E50"/>
<path d="M32.5361 44.2763L33.5401 41.7244C33.8541 41.1564 33.3601 40.5063 32.6161 40.5063H28.2901C27.5461 40.5063 27.0521 41.1564 27.3661 41.7244L28.3701 44.2763C28.6741 44.8263 28.7561 45.4443 28.6041 46.0363L26.0481 57.6084C25.8421 58.4163 26.1721 59.2543 26.9121 59.7983L29.2061 61.4823C29.9201 62.0063 30.9861 62.0063 31.7001 61.4823L33.9941 59.7983C34.7341 59.2543 35.0661 58.4163 34.8581 57.6084L32.3021 46.0363C32.1501 45.4443 32.2321 44.8263 32.5361 44.2763Z" fill="#4374C9"/>
<path d="M30.45 39.8042L24.958 46.2502L20.208 38.1442L21.388 35.6663L30.45 39.8042Z" fill="white"/>
<path d="M24.9581 47.2503C24.9281 47.2503 24.9001 47.2503 24.8701 47.2463C24.5481 47.2183 24.2581 47.0343 24.0941 46.7563L19.3461 38.6503C19.1781 38.3643 19.1641 38.0143 19.3061 37.7143L20.4861 35.2363C20.7201 34.7443 21.3081 34.5303 21.8041 34.7563L30.8661 38.8943C31.1521 39.0243 31.3581 39.2803 31.4261 39.5883C31.4941 39.8943 31.4141 40.2143 31.2101 40.4543L25.7181 46.8983C25.5281 47.1223 25.2481 47.2503 24.9581 47.2503ZM21.3401 38.0963L25.1101 44.5303L28.8321 40.1643L21.8701 36.9843L21.3421 38.0943L21.3401 38.0963Z" fill="#1B2E50"/>
<path d="M30.4497 39.8042L35.9437 46.2502L40.6917 38.1442L39.5137 35.6663L30.4497 39.8042Z" fill="white"/>
<path d="M35.9439 47.2504C35.6519 47.2504 35.3739 47.1224 35.1839 46.8984L29.6899 40.4544C29.4859 40.2164 29.4059 39.8943 29.4739 39.5883C29.5419 39.2823 29.7499 39.0263 30.0339 38.8943L39.0959 34.7564C39.5919 34.5304 40.1799 34.7423 40.4139 35.2363L41.5939 37.7144C41.7359 38.0144 41.7219 38.3644 41.5539 38.6504L36.8059 46.7564C36.6419 47.0364 36.3539 47.2184 36.0299 47.2464C35.9999 47.2484 35.9719 47.2504 35.9419 47.2504H35.9439ZM32.0719 40.1644L35.7939 44.5303L39.5639 38.0964L39.0359 36.9863L32.0739 40.1664L32.0719 40.1644Z" fill="#1B2E50"/>
<path d="M68.8999 47.4282H42.4559C41.4817 47.4282 40.6919 48.218 40.6919 49.1922V66.6342C40.6919 67.6085 41.4817 68.3982 42.4559 68.3982H68.8999C69.8741 68.3982 70.6639 67.6085 70.6639 66.6342V49.1922C70.6639 48.218 69.8741 47.4282 68.8999 47.4282Z" fill="white"/>
<path d="M68.8998 69.3982H42.4578C40.9338 69.3982 39.6938 68.1582 39.6938 66.6342V49.1922C39.6938 47.6682 40.9338 46.4282 42.4578 46.4282H68.8998C70.4238 46.4282 71.6638 47.6682 71.6638 49.1922V66.6342C71.6638 68.1582 70.4238 69.3982 68.8998 69.3982ZM42.4578 48.4282C42.0358 48.4282 41.6938 48.7722 41.6938 49.1922V66.6342C41.6938 67.0562 42.0378 67.3982 42.4578 67.3982H68.8998C69.3218 67.3982 69.6638 67.0542 69.6638 66.6342V49.1922C69.6638 48.7702 69.3198 48.4282 68.8998 48.4282H42.4578Z" fill="#1B2E50"/>
<path d="M60.1142 55.6282H51.2422V59.3162H60.1142V55.6282Z" fill="white"/>
<path d="M60.1161 60.3162H51.2441C50.6921 60.3162 50.2441 59.8682 50.2441 59.3162V55.6282C50.2441 55.0762 50.6921 54.6282 51.2441 54.6282H60.1161C60.6681 54.6282 61.1161 55.0762 61.1161 55.6282V59.3162C61.1161 59.8682 60.6681 60.3162 60.1161 60.3162ZM52.2421 58.3162H59.1141V56.6282H52.2421V58.3162Z" fill="#1B2E50"/>
<path d="M51.2419 58.4724H45.0499C44.7859 58.4724 44.5319 58.3683 44.3439 58.1803L39.9859 53.8403C39.5939 53.4503 39.5939 52.8183 39.9819 52.4263C40.3719 52.0343 41.0039 52.0344 41.3959 52.4224L45.4619 56.4704H51.2399C51.7919 56.4704 52.2399 56.9184 52.2399 57.4704C52.2399 58.0224 51.7919 58.4704 51.2399 58.4704L51.2419 58.4724Z" fill="#1B2E50"/>
<path d="M66.3058 58.4723H60.1138C59.5618 58.4723 59.1138 58.0243 59.1138 57.4723C59.1138 56.9203 59.5618 56.4723 60.1138 56.4723H65.8918L69.9578 52.4243C70.3498 52.0343 70.9818 52.0363 71.3718 52.4283C71.7618 52.8203 71.7598 53.4523 71.3678 53.8423L67.0098 58.1823C66.8218 58.3683 66.5678 58.4743 66.3038 58.4743L66.3058 58.4723Z" fill="#1B2E50"/>
<path d="M65.382 48.3962H45.96C45.408 48.3962 44.96 47.9482 44.96 47.3962V44.2122C44.96 42.4822 46.366 41.0762 48.096 41.0762H63.246C64.976 41.0762 66.382 42.4822 66.382 44.2122V47.3962C66.382 47.9482 65.934 48.3962 65.382 48.3962ZM46.958 46.3962H64.38V44.2122C64.38 43.5862 63.87 43.0762 63.244 43.0762H48.094C47.468 43.0762 46.958 43.5862 46.958 44.2122V46.3962Z" fill="#1B2E50"/>
</svg>
