<svg width="20" height="20" viewBox="0 0 20 20" fill="none" xmlns="http://www.w3.org/2000/svg">
    <path d="M12.633 10a2.633 2.633 0 1 1-5.267 0 2.633 2.633 0 0 1 5.267 0z" stroke="#fff" stroke-width="1.4" stroke-linecap="round" stroke-linejoin="round"/>
    <path d="M13.283 15.521h0s0 0 0 0a.7.7 0 0 0 .962-.026l1.25-1.25a.7.7 0 0 0 .039-.948l-.651-.768.39-.94 1.153-.3a.7.7 0 0 0 .524-.678V9.375a.7.7 0 0 0-.527-.678l-1.146-.292-.39-.938.647-.765a.7.7 0 0 0-.039-.947l-1.25-1.25a.7.7 0 0 0-.95-.037l-.759.649-.974-.4-.3-1.145a.7.7 0 0 0-.677-.522H9.363a.7.7 0 0 0-.677.522L8.38 4.739l-.929.392-.735-.654a.7.7 0 0 0-.96.028l-1.25 1.25a.7.7 0 0 0-.048.936l.647.797-.383.942-1.13.263a.7.7 0 0 0-.541.682v1.25a.7.7 0 0 0 .516.675l1.172.32.393.932-.654.732a.7.7 0 0 0 .028.961l1.25 1.25a.7.7 0 0 0 .937.048l.797-.65.917.378.29 1.15a.7.7 0 0 0 .679.529h1.25a.7.7 0 0 0 .679-.528l.291-1.151.95-.394a26.04 26.04 0 0 1 .609.53l.094.084.026.022.007.006.001.002h0z" stroke="#fff" stroke-width="1.4" stroke-linecap="round" stroke-linejoin="round"/>
</svg>
