<svg width="80" height="80" viewBox="0 0 80 80" fill="none" xmlns="http://www.w3.org/2000/svg">
<path d="M49.1902 8.37427H36.0342V22.6583H49.1902V8.37427Z" fill="white"/>
<path d="M49.1902 23.6583H36.0342C35.4822 23.6583 35.0342 23.2103 35.0342 22.6583V8.37427C35.0342 7.82227 35.4822 7.37427 36.0342 7.37427H49.1902C49.7422 7.37427 50.1902 7.82227 50.1902 8.37427V22.6583C50.1902 23.2103 49.7422 23.6583 49.1902 23.6583ZM37.0342 21.6583H48.1902V9.37427H37.0342V21.6583Z" fill="#1B2E50"/>
<path d="M49.1901 61.5183H13.8062V8.37427L49.1901 18.8603V61.5183Z" fill="white"/>
<path d="M49.1901 62.5184H13.8081C13.2561 62.5184 12.8081 62.0704 12.8081 61.5184V8.37637C12.8081 8.06037 12.9561 7.76436 13.2101 7.57436C13.4621 7.38636 13.7901 7.32636 14.0921 7.41636L49.4741 17.9024C49.8981 18.0284 50.1901 18.4184 50.1901 18.8604V61.5184C50.1901 62.0704 49.7421 62.5184 49.1901 62.5184ZM14.8061 60.5184H48.1881V19.6084L14.8061 9.71636V60.5204V60.5184Z" fill="#1B2E50"/>
<path d="M56.1921 51.0983C60.8114 51.0983 64.5561 44.3853 64.5561 36.1043C64.5561 27.8234 60.8114 21.1104 56.1921 21.1104C51.5728 21.1104 47.8281 27.8234 47.8281 36.1043C47.8281 44.3853 51.5728 51.0983 56.1921 51.0983Z" fill="#4374C9"/>
<path d="M56.1921 52.0983C50.9421 52.0983 46.8281 45.0723 46.8281 36.1043C46.8281 27.1363 50.9421 20.1104 56.1921 20.1104C61.4421 20.1104 65.5561 27.1363 65.5561 36.1043C65.5561 45.0723 61.4421 52.0983 56.1921 52.0983ZM56.1921 22.1124C52.2001 22.1124 48.8281 28.5203 48.8281 36.1063C48.8281 43.6923 52.2001 50.1003 56.1921 50.1003C60.1841 50.1003 63.5561 43.6923 63.5561 36.1063C63.5561 28.5203 60.1841 22.1124 56.1921 22.1124Z" fill="#1B2E50"/>
<path d="M56.1919 61.4103C55.6399 61.4103 55.1919 60.9623 55.1919 60.4103V39.2683C55.1919 38.7163 55.6399 38.2683 56.1919 38.2683C56.7439 38.2683 57.1919 38.7163 57.1919 39.2683V60.4103C57.1919 60.9623 56.7439 61.4103 56.1919 61.4103Z" fill="#1B2E50"/>
<path d="M42.5037 27.7341H20.4917V33.6001H42.5037V27.7341Z" fill="#4374C9"/>
<path d="M42.5037 34.5982H20.4917C19.9397 34.5982 19.4917 34.1502 19.4917 33.5982V27.7322C19.4917 27.1802 19.9397 26.7322 20.4917 26.7322H42.5037C43.0557 26.7322 43.5037 27.1802 43.5037 27.7322V33.5982C43.5037 34.1502 43.0557 34.5982 42.5037 34.5982ZM21.4917 32.5982H41.5037V28.7322H21.4917V32.5982Z" fill="#1B2E50"/>
<path d="M42.5037 39.6162H20.4917V45.4822H42.5037V39.6162Z" fill="#4374C9"/>
<path d="M42.5037 46.4822H20.4917C19.9397 46.4822 19.4917 46.0342 19.4917 45.4822V39.6162C19.4917 39.0642 19.9397 38.6162 20.4917 38.6162H42.5037C43.0557 38.6162 43.5037 39.0642 43.5037 39.6162V45.4822C43.5037 46.0342 43.0557 46.4822 42.5037 46.4822ZM21.4917 44.4822H41.5037V40.6162H21.4917V44.4822Z" fill="#1B2E50"/>
<path d="M62.9819 57.5563C60.4659 57.5563 58.0059 56.8043 55.9339 55.3763C53.8539 53.9443 51.0819 52.2643 49.0259 51.8763C45.2899 51.1703 30.9159 51.4503 30.9159 51.4503C30.9159 51.4503 24.5639 51.1143 24.5639 55.2043C24.5639 58.3123 27.0639 58.7843 27.0639 58.7843L12.9779 58.9023C12.9779 58.9023 8.48193 58.4823 8.48193 62.4163C8.48193 65.7983 11.3879 65.9643 11.3879 65.9643C11.3879 65.9643 10.9339 71.4923 17.9019 71.4923L59.6319 71.5423L69.2559 71.6243C70.4619 71.6343 71.4459 70.6603 71.4459 69.4523V59.7263C71.4459 58.5263 70.4739 57.5543 69.2739 57.5543H62.9819V57.5563Z" fill="white"/>
<path d="M69.2739 72.6244C69.2739 72.6244 69.2559 72.6244 69.2459 72.6244L59.6219 72.5424L17.8999 72.4924C15.2799 72.4924 13.2819 71.7664 11.9639 70.3364C10.8459 69.1224 10.5099 67.6944 10.4159 66.7864C9.08992 66.3684 7.48193 65.1504 7.48193 62.4144C7.48193 61.0544 7.92592 59.9604 8.79792 59.1644C10.3119 57.7844 12.6059 57.8724 13.0119 57.9004L24.2179 57.8064C23.8279 57.1424 23.5659 56.2864 23.5659 55.2024C23.5659 54.0244 23.9999 52.9884 24.8219 52.2084C26.7939 50.3384 30.4799 50.4284 30.9299 50.4464C31.8759 50.4284 45.4719 50.1824 49.2139 50.8904C51.0219 51.2324 53.4739 52.4644 56.5019 54.5504C58.4039 55.8604 60.6439 56.5524 62.9819 56.5524H69.2739C71.0219 56.5524 72.4459 57.9744 72.4459 59.7244V69.4504C72.4459 70.3024 72.1119 71.1024 71.5079 71.7024C70.9099 72.2964 70.1179 72.6224 69.2759 72.6224L69.2739 72.6244ZM12.6039 59.8844C11.9739 59.8844 10.8239 60.0164 10.1379 60.6464C9.69591 61.0524 9.47993 61.6304 9.47993 62.4124C9.47993 64.6904 11.1239 64.9364 11.4539 64.9644C11.7239 64.9804 11.9699 65.1024 12.1459 65.3064C12.3219 65.5104 12.4039 65.7764 12.3819 66.0444C12.3819 66.0544 12.2779 67.7444 13.4479 68.9964C14.3719 69.9884 15.8699 70.4904 17.8979 70.4904L59.6279 70.5404L69.2599 70.6224C69.5759 70.6224 69.8719 70.5044 70.0939 70.2824C70.3179 70.0604 70.4399 69.7644 70.4399 69.4504V59.7244C70.4399 59.0784 69.9139 58.5524 69.2679 58.5524H62.9759C60.2319 58.5524 57.5979 57.7384 55.3619 56.1964C52.6039 54.2964 50.3479 53.1404 48.8359 52.8544C45.2439 52.1744 31.0739 52.4424 30.9299 52.4444C30.9059 52.4444 30.8819 52.4444 30.8579 52.4444C29.9639 52.4004 27.3779 52.5304 26.1899 53.6604C25.7599 54.0704 25.5599 54.5584 25.5599 55.2004C25.5599 57.3664 27.0839 57.7624 27.2579 57.8004C27.7639 57.8964 28.1079 58.3584 28.0619 58.8704C28.0159 59.3824 27.5819 59.7764 27.0679 59.7804L12.9819 59.8984C12.9479 59.8984 12.9139 59.8984 12.8799 59.8944C12.8059 59.8884 12.7119 59.8844 12.5999 59.8844H12.6039Z" fill="#1B2E50"/>
<path d="M37.406 59.7422H27.0439C26.4919 59.7422 26.0439 59.2942 26.0439 58.7422C26.0439 58.1902 26.4919 57.7422 27.0439 57.7422H37.406C37.958 57.7422 38.406 58.1902 38.406 58.7422C38.406 59.2942 37.958 59.7422 37.406 59.7422Z" fill="#1B2E50"/>
<path d="M28.8817 66.9624H11.3877C10.8357 66.9624 10.3877 66.5144 10.3877 65.9624C10.3877 65.4104 10.8357 64.9624 11.3877 64.9624H28.8817C29.4337 64.9624 29.8817 65.4104 29.8817 65.9624C29.8817 66.5144 29.4337 66.9624 28.8817 66.9624Z" fill="#1B2E50"/>
</svg>
