<svg width="80" height="80" viewBox="0 0 80 80" fill="none" xmlns="http://www.w3.org/2000/svg">
<path d="M59.0239 50.9521H15.1399H14.6539L8.87793 61.5442H65.2879L59.5099 50.9521H59.0239Z" fill="white"/>
<path d="M67.1598 62.898C67.1598 62.898 67.1598 62.898 67.1618 62.896C67.1618 62.896 67.1578 62.9 67.1558 62.902C67.1558 62.902 67.1578 62.9 67.1598 62.898Z" fill="#1B2E50"/>
<path d="M67.1817 62.8702C67.1817 62.8702 67.1677 62.8862 67.1617 62.8942C67.1617 62.8942 67.1617 62.8942 67.1597 62.8962C67.1677 62.8862 67.1757 62.8782 67.1817 62.8682V62.8702Z" fill="#1B2E50"/>
<path d="M67.0278 63.0582C67.0738 63.0082 67.1178 62.9542 67.1598 62.8982C67.1598 62.8982 67.1578 62.9001 67.1558 62.9021C67.1158 62.9561 67.0738 63.0102 67.0278 63.0582Z" fill="#1B2E50"/>
<path d="M59.936 21.707C59.43 21.707 59.02 22.1171 59.02 22.6211C59.02 23.1251 59.43 23.5351 59.936 23.5351C60.442 23.5351 60.85 23.1251 60.85 22.6211C60.85 22.1171 60.44 21.707 59.936 21.707Z" fill="#4374C9"/>
<path d="M70.4997 18.6583H41.8737C41.3877 18.6583 40.9937 19.0543 40.9937 19.5403V37.7143C40.9937 38.2043 41.3877 38.6022 41.8737 38.6022H43.5376C44.9956 38.6022 46.1817 39.7883 46.1817 41.2463V44.5603L49.4417 39.7603C49.9217 39.0383 50.7437 38.6003 51.6317 38.6003H70.4997C70.9857 38.6003 71.3797 38.2023 71.3797 37.7123V19.5383C71.3797 19.0523 70.9857 18.6562 70.4997 18.6562V18.6583ZM61.0337 25.4903C61.1657 29.0123 61.8916 34.0103 59.1136 36.3803C56.9296 38.2443 53.5597 38.0063 51.6417 35.8723C50.0357 34.0863 50.2717 31.7603 50.2717 29.5363C50.2717 28.6003 51.4536 28.1103 52.1156 28.7723C52.7816 29.4383 53.4496 30.1043 54.1156 30.7703C55.0996 31.7563 53.5716 33.2823 52.5876 32.2983C52.5356 32.2463 52.4817 32.1923 52.4297 32.1403C52.5077 33.0223 52.7496 33.8563 53.4136 34.5203C55.6156 36.7223 58.6797 34.8603 58.8537 32.0703C58.9897 29.8963 58.8857 27.6843 58.8597 25.4983C57.6937 25.0603 56.8597 23.9383 56.8597 22.6203C56.8597 20.9243 58.2397 19.5443 59.9357 19.5443C61.6317 19.5443 63.0097 20.9243 63.0097 22.6203C63.0097 23.9283 62.1877 25.0443 61.0337 25.4883V25.4903Z" fill="#4374C9"/>
<path d="M59.936 19.5469C58.24 19.5469 56.86 20.9269 56.86 22.6229C56.86 23.9409 57.694 25.0629 58.86 25.5009C58.886 27.6869 58.9879 29.9009 58.8539 32.0729C58.6799 34.8649 55.6159 36.7249 53.4139 34.5229C52.7499 33.8589 52.508 33.0249 52.4299 32.1429C52.4839 32.1949 52.5359 32.2489 52.5879 32.3009C53.5719 33.2849 55.0999 31.7589 54.1159 30.7729C53.4499 30.1069 52.7819 29.4409 52.1159 28.7749C51.4539 28.1129 50.2719 28.6029 50.2719 29.5389C50.2719 31.7609 50.0359 34.0869 51.6419 35.8749C53.5599 38.0089 56.9299 38.2449 59.1139 36.3829C61.8919 34.0129 61.166 29.0149 61.034 25.4929C62.188 25.0489 63.01 23.9329 63.01 22.6249C63.01 20.9289 61.63 19.5489 59.936 19.5489V19.5469ZM59.936 23.5369C59.43 23.5369 59.0199 23.1269 59.0199 22.6229C59.0199 22.1189 59.43 21.7089 59.936 21.7089C60.442 21.7089 60.8499 22.1189 60.8499 22.6229C60.8499 23.1269 60.44 23.5369 59.936 23.5369Z" fill="white"/>
<path d="M70.5 16.4981H41.874C40.198 16.4981 38.832 17.8621 38.832 19.5401V37.7141C38.832 39.3961 40.196 40.7621 41.874 40.7621H43.538C43.804 40.7621 44.022 40.9801 44.022 41.2461V44.9081C44.022 45.8161 44.608 46.6061 45.48 46.8721C45.68 46.9341 45.884 46.9621 46.086 46.9621C46.754 46.9621 47.388 46.6361 47.772 46.0621L51.234 40.9641C51.32 40.8361 51.468 40.7581 51.632 40.7581H70.5C72.176 40.7581 73.542 39.3901 73.542 37.7101V19.5361C73.542 17.8601 72.178 16.4941 70.5 16.4941V16.4981ZM71.38 37.7141C71.38 38.2041 70.986 38.602 70.5 38.602H51.632C50.744 38.602 49.922 39.0401 49.442 39.7621L46.182 44.5621V41.2481C46.182 39.7901 44.996 38.6041 43.538 38.6041H41.874C41.388 38.6041 40.994 38.2061 40.994 37.7161V19.5421C40.994 19.0561 41.388 18.6601 41.874 18.6601H70.5C70.986 18.6601 71.38 19.0561 71.38 19.5421V37.7161V37.7141Z" fill="#1B2E50"/>
<path d="M61.2379 49.6082C61.2019 49.5442 61.1519 49.4922 61.1099 49.4342C61.1819 49.2162 61.2319 48.9862 61.2319 48.7442V45.4122C61.2319 44.8162 60.7479 44.3322 60.1519 44.3322C59.5559 44.3322 59.0719 44.8162 59.0719 45.4122V48.7442C59.0719 48.7702 59.0499 48.7902 59.0259 48.7902H15.1419C15.1159 48.7902 15.0939 48.7682 15.0939 48.7422V22.7802C15.0939 22.1942 15.5699 21.7162 16.1579 21.7162H35.1939C35.7899 21.7162 36.2739 21.2322 36.2739 20.6362C36.2739 20.0402 35.7899 19.5562 35.1939 19.5562H16.1579C14.3779 19.5562 12.9339 21.0002 12.9339 22.7802V48.7422C12.9339 48.9842 12.9819 49.2142 13.0559 49.4322C13.0139 49.4902 12.9639 49.5402 12.9279 49.6042L6.89387 60.6662C6.57387 61.2542 6.51188 61.9702 6.80588 62.5722C7.14988 63.2762 7.83788 63.7021 8.60788 63.7021H65.4679C65.4679 63.7021 65.4679 63.7021 65.4699 63.7021C65.6379 63.7021 65.8059 63.6842 65.9699 63.6462C66.0639 63.6242 66.1499 63.5862 66.2399 63.5542C66.3059 63.5302 66.3759 63.5142 66.4399 63.4842C66.5359 63.4382 66.6179 63.3762 66.7039 63.3182C66.7519 63.2842 66.8079 63.2602 66.8539 63.2222C66.9679 63.1262 67.0699 63.0182 67.1599 62.8982C67.1599 62.8962 67.1639 62.8942 67.1659 62.8922C67.1719 62.8842 67.1799 62.8762 67.1859 62.8682C67.2159 62.8262 67.2399 62.7802 67.2659 62.7362C67.2399 62.7802 67.2159 62.8242 67.1859 62.8682C67.2299 62.8062 67.2659 62.7422 67.3019 62.6782C67.6399 62.0742 67.6479 61.3562 67.3159 60.7462L61.2399 49.6102L61.2379 49.6082ZM8.87788 61.5442L14.6539 50.9521H59.5099L65.2859 61.5442H8.87587H8.87788ZM65.9699 63.6482C66.0559 63.6302 66.1359 63.5922 66.2179 63.5642C66.1359 63.5942 66.0559 63.6302 65.9699 63.6482Z" fill="#1B2E50"/>
</svg>
