<svg width="24" height="24" viewBox="0 0 24 24" fill="#242428" xmlns="http://www.w3.org/2000/svg">
<path d="M5.50141 3.50004C5.56699 3.49924 5.63201 3.51217 5.69228 3.53801C5.75256 3.56385 5.80676 3.60202 5.85141 3.65007L13.8514 11.6524C13.8992 11.6973 13.9374 11.7516 13.9634 11.8118C13.9895 11.872 14.0029 11.9369 14.0029 12.0025C14.0029 12.0682 13.9895 12.1331 13.9634 12.1933C13.9374 12.2535 13.8992 12.3077 13.8514 12.3526L5.85141 20.355C5.75858 20.4479 5.63269 20.5 5.50141 20.5C5.37014 20.5 5.24424 20.4479 5.15141 20.355C5.05859 20.2621 5.00644 20.1362 5.00644 20.0049C5.00644 19.8736 5.05859 19.7476 5.15141 19.6548L12.7914 12.0025L5.15141 4.35029C5.10358 4.30539 5.06546 4.25116 5.0394 4.19094C5.01334 4.13073 4.99989 4.0658 4.99989 4.00018C4.99989 3.93457 5.01334 3.86964 5.0394 3.80942C5.06546 3.74921 5.10358 3.69498 5.15141 3.65007C5.19606 3.60202 5.25026 3.56385 5.31054 3.53801C5.37082 3.51217 5.43584 3.49924 5.50141 3.50004Z"/>
<path d="M9.50141 3.50004C9.56699 3.49924 9.63201 3.51217 9.69228 3.53801C9.75256 3.56385 9.80676 3.60202 9.85141 3.65007L17.8514 11.6524C17.8992 11.6973 17.9374 11.7516 17.9634 11.8118C17.9895 11.872 18.0029 11.9369 18.0029 12.0025C18.0029 12.0682 17.9895 12.1331 17.9634 12.1933C17.9374 12.2535 17.8992 12.3077 17.8514 12.3526L9.85141 20.355C9.75858 20.4479 9.63269 20.5 9.50141 20.5C9.37014 20.5 9.24424 20.4479 9.15141 20.355C9.05859 20.2621 9.00644 20.1362 9.00644 20.0049C9.00644 19.8736 9.05859 19.7476 9.15141 19.6548L16.7914 12.0025L9.15141 4.35029C9.10358 4.30539 9.06546 4.25116 9.0394 4.19094C9.01334 4.13073 8.99989 4.0658 8.99989 4.00018C8.99989 3.93457 9.01334 3.86964 9.0394 3.80942C9.06546 3.74921 9.10358 3.69498 9.15141 3.65007C9.19606 3.60202 9.25026 3.56385 9.31054 3.53801C9.37082 3.51217 9.43584 3.49924 9.50141 3.50004Z"/>
</svg>
