<svg width="24" height="24" viewBox="0 0 24 24" fill="#242428" xmlns="http://www.w3.org/2000/svg">
<path d="M15.9996 20.5C15.934 20.5008 15.869 20.4878 15.8087 20.462C15.7484 20.4361 15.6942 20.398 15.6496 20.3499L7.64957 12.3476C7.60174 12.3027 7.56361 12.2484 7.53755 12.1882C7.51149 12.128 7.49805 12.0631 7.49805 11.9975C7.49805 11.9318 7.51149 11.8669 7.53755 11.8067C7.56361 11.7465 7.60174 11.6923 7.64957 11.6474L15.6496 3.645C15.7424 3.55215 15.8683 3.5 15.9996 3.5C16.1308 3.5 16.2567 3.55215 16.3496 3.645C16.4424 3.73785 16.4945 3.8638 16.4945 3.99511C16.4945 4.12642 16.4424 4.25237 16.3496 4.34522L8.70956 11.9975L16.3496 19.6497C16.3974 19.6946 16.4355 19.7488 16.4616 19.8091C16.4876 19.8693 16.5011 19.9342 16.5011 19.9998C16.5011 20.0654 16.4876 20.1304 16.4616 20.1906C16.4355 20.2508 16.3974 20.305 16.3496 20.3499C16.3049 20.398 16.2507 20.4361 16.1904 20.462C16.1302 20.4878 16.0651 20.5008 15.9996 20.5Z"/>
</svg>
