<svg width="24" height="24" viewBox="0 0 24 24" fill="#242428" xmlns="http://www.w3.org/2000/svg">
<path d="M3.50004 16.0001C3.49923 15.9345 3.51217 15.8695 3.53801 15.8092C3.56385 15.7489 3.60202 15.6947 3.65007 15.6501L11.6524 7.65005C11.6973 7.60222 11.7516 7.5641 11.8118 7.53804C11.872 7.51198 11.9369 7.49853 12.0025 7.49853C12.0682 7.49853 12.1331 7.51198 12.1933 7.53804C12.2535 7.5641 12.3077 7.60222 12.3526 7.65005L20.355 15.6501C20.4479 15.7429 20.5 15.8688 20.5 16.0001C20.5 16.1313 20.4479 16.2572 20.355 16.3501C20.2621 16.4429 20.1362 16.495 20.0049 16.495C19.8736 16.495 19.7476 16.4429 19.6548 16.3501L12.0025 8.71005L4.35029 16.3501C4.30539 16.3979 4.25116 16.436 4.19094 16.4621C4.13073 16.4881 4.0658 16.5016 4.00018 16.5016C3.93457 16.5016 3.86964 16.4881 3.80942 16.4621C3.74921 16.436 3.69498 16.3979 3.65007 16.3501C3.60202 16.3054 3.56385 16.2512 3.53801 16.1909C3.51217 16.1306 3.49923 16.0656 3.50004 16.0001Z" fill="#242428"/>
</svg>
