<svg width="24" height="24" viewBox="0 0 24 24" fill="#242428" xmlns="http://www.w3.org/2000/svg">
<path d="M20.5 8.00043C20.5008 8.06601 20.4878 8.13103 20.462 8.19131C20.4361 8.25159 20.398 8.30579 20.3499 8.35043L12.3476 16.3504C12.3027 16.3983 12.2484 16.4364 12.1882 16.4624C12.128 16.4885 12.0631 16.502 11.9975 16.502C11.9318 16.502 11.8669 16.4885 11.8067 16.4624C11.7465 16.4364 11.6923 16.3983 11.6474 16.3504L3.645 8.35043C3.55215 8.25761 3.5 8.13171 3.5 8.00043C3.5 7.86916 3.55215 7.74326 3.645 7.65044C3.73785 7.55761 3.8638 7.50546 3.99511 7.50546C4.12642 7.50546 4.25237 7.55761 4.34522 7.65044L11.9975 15.2904L19.6497 7.65044C19.6946 7.60261 19.7488 7.56448 19.8091 7.53842C19.8693 7.51236 19.9342 7.49892 19.9998 7.49892C20.0654 7.49892 20.1304 7.51236 20.1906 7.53842C20.2508 7.56448 20.305 7.60261 20.3499 7.65044C20.398 7.69508 20.4361 7.74928 20.462 7.80956C20.4878 7.86984 20.5008 7.93486 20.5 8.00043Z"/>
</svg>
