<svg width="14" height="8" viewBox="0 0 14 8" fill="none" xmlns="http://www.w3.org/2000/svg">
<path d="M6.99978 7.75C6.90142 7.7512 6.80389 7.7318 6.71347 7.69305C6.62306 7.6543 6.54175 7.59702 6.47478 7.52496L0.474785 1.52496C0.335546 1.38572 0.257324 1.19691 0.257324 1C0.257324 0.803087 0.335546 0.614275 0.474785 0.475037C0.614024 0.335798 0.802869 0.257507 0.999783 0.257507C1.1967 0.257507 1.38554 0.335798 1.52478 0.475037L6.99978 5.93497L12.4748 0.475037C12.614 0.335798 12.8029 0.257507 12.9998 0.257507C13.1967 0.257507 13.3855 0.335798 13.5248 0.475037C13.664 0.614275 13.7422 0.803087 13.7422 1C13.7422 1.19691 13.664 1.38572 13.5248 1.52496L7.52478 7.52496C7.45781 7.59702 7.37651 7.6543 7.28609 7.69305C7.19567 7.7318 7.09815 7.7512 6.99978 7.75Z" fill="#242428"/>
</svg>
