<svg width="24" height="24" viewBox="0 0 24 24" fill="#242428" xmlns="http://www.w3.org/2000/svg">
<path d="M7.99995 3.50004C8.06552 3.49923 8.13054 3.51217 8.19082 3.53801C8.2511 3.56385 8.3053 3.60202 8.34995 3.65007L16.3499 11.6524C16.3978 11.6973 16.4359 11.7516 16.462 11.8118C16.488 11.872 16.5015 11.9369 16.5015 12.0025C16.5015 12.0682 16.488 12.1331 16.462 12.1933C16.4359 12.2535 16.3978 12.3077 16.3499 12.3526L8.34995 20.355C8.25712 20.4479 8.13122 20.5 7.99995 20.5C7.86867 20.5 7.74277 20.4479 7.64995 20.355C7.55712 20.2621 7.50497 20.1362 7.50497 20.0049C7.50497 19.8736 7.55712 19.7476 7.64995 19.6548L15.2899 12.0025L7.64995 4.35029C7.60212 4.30539 7.56399 4.25116 7.53793 4.19094C7.51187 4.13073 7.49843 4.0658 7.49843 4.00018C7.49843 3.93457 7.51187 3.86964 7.53793 3.80942C7.56399 3.74921 7.60212 3.69498 7.64995 3.65007C7.6946 3.60202 7.7488 3.56385 7.80908 3.53801C7.86935 3.51217 7.93437 3.49923 7.99995 3.50004Z"/>
</svg>
