<svg width="32" height="32" viewBox="0 0 32 32" fill="#242428" xmlns="http://www.w3.org/2000/svg">
<path d="M26 6H23V5C23 4.73478 22.8946 4.48043 22.7071 4.29289C22.5196 4.10536 22.2652 4 22 4C21.7348 4 21.4804 4.10536 21.2929 4.29289C21.1054 4.48043 21 4.73478 21 5V6H11V5C11 4.73478 10.8946 4.48043 10.7071 4.29289C10.5196 4.10536 10.2652 4 10 4C9.73478 4 9.48044 4.10536 9.29291 4.29289C9.10537 4.48043 9 4.73478 9 5V6H6C5.46957 6 4.96086 6.21071 4.58578 6.58578C4.21071 6.96086 4 7.46957 4 8V26C4 26.5304 4.21071 27.0391 4.58578 27.4142C4.96086 27.7893 5.46957 28 6 28H26C26.5304 28 27.0391 27.7893 27.4142 27.4142C27.7893 27.0391 28 26.5304 28 26V8C28 7.46957 27.7893 6.96086 27.4142 6.58578C27.0391 6.21071 26.5304 6 26 6ZM26 8V12H6V8H26ZM6 26V14H26V26H6Z"/>
</svg>
