<svg width="10" height="10" viewBox="0 0 24 24" fill="#fff" xmlns="http://www.w3.org/2000/svg">
<path d="M12.7101 11.995L19.3501 5.34497C19.4429 5.25214 19.495 5.12624 19.495 4.99496C19.495 4.86369 19.4429 4.73778 19.3501 4.64496C19.2572 4.55213 19.1313 4.5 19.0001 4.5C18.8688 4.5 18.7429 4.55213 18.6501 4.64496L12.0001 11.285L5.35005 4.64496C5.25723 4.55213 5.13133 4.5 5.00005 4.5C4.86878 4.5 4.74288 4.55213 4.65005 4.64496C4.55723 4.73778 4.50508 4.86369 4.50508 4.99496C4.50508 5.12624 4.55723 5.25214 4.65005 5.34497L11.2901 11.995L4.65005 18.645C4.60222 18.6898 4.5641 18.7441 4.53804 18.8043C4.51198 18.8645 4.49854 18.9294 4.49854 18.995C4.49854 19.0606 4.51198 19.1255 4.53804 19.1857C4.5641 19.2459 4.60222 19.3001 4.65005 19.345C4.69495 19.3928 4.74916 19.4309 4.80936 19.457C4.86955 19.483 4.93446 19.4965 5.00005 19.4965C5.06565 19.4965 5.13055 19.483 5.19075 19.457C5.25095 19.4309 5.30516 19.3928 5.35005 19.345L12.0001 12.705L18.6501 19.345C18.6949 19.3928 18.7492 19.4309 18.8094 19.457C18.8696 19.483 18.9345 19.4965 19.0001 19.4965C19.0656 19.4965 19.1306 19.483 19.1908 19.457C19.2509 19.4309 19.3052 19.3928 19.3501 19.345C19.3979 19.3001 19.436 19.2459 19.4621 19.1857C19.4881 19.1255 19.5016 19.0606 19.5016 18.995C19.5016 18.9294 19.4881 18.8645 19.4621 18.8043C19.436 18.7441 19.3979 18.6898 19.3501 18.645L12.7101 11.995Z"/>
</svg>
