<svg width="223" height="150" viewBox="0 0 223 150" fill="none" xmlns="http://www.w3.org/2000/svg">
<path d="M8.88477 103.684V99.875L58.6895 21.9453H64.1094V98.9961H78.0254V103.684H64.1094V128H59.4219V103.684H8.88477ZM15.1836 98.9961H59.4219V30.2949H58.6895L15.1836 98.5566V98.9961ZM125.709 129.465C105.055 129.465 92.5303 108.884 92.457 74.9727C92.5303 41.0615 105.055 20.4805 125.709 20.4805C146.437 20.4805 158.961 41.0615 158.961 74.9727C158.961 108.884 146.437 129.465 125.709 129.465ZM97.291 74.9727C97.291 106.174 108.131 124.851 125.709 124.777C143.434 124.851 154.2 106.174 154.127 74.9727C154.2 43.7715 143.36 25.0215 125.709 25.0215C108.131 25.0215 97.291 43.7715 97.291 74.9727ZM202.543 21.9453V128H197.562V27.0723H197.123L173.246 42.4531V37.0332L196.684 21.9453H202.543Z" fill="#242428"/>
<path d="M135.808 65.9496C134.272 65.9496 133.026 64.17 133.026 61.9748C133.026 59.7796 134.272 58 135.808 58C137.345 58 138.591 59.7796 138.591 61.9748C138.591 64.17 137.345 65.9496 135.808 65.9496Z" fill="black"/>
<path d="M112.19 65.9496C110.654 65.9496 109.408 64.17 109.408 61.9748C109.408 59.7796 110.654 58 112.19 58C113.727 58 114.973 59.7796 114.973 61.9748C114.973 64.17 113.727 65.9496 112.19 65.9496Z" fill="black"/>
<path d="M135 97C134.459 92.505 129.966 89 124.488 89C119.01 89 114.613 92.4411 114 96.8723" stroke="#242428" stroke-width="2" stroke-linecap="round" stroke-linejoin="round"/>
</svg>
