<svg width="252" height="150" viewBox="0 0 252 150" fill="none" xmlns="http://www.w3.org/2000/svg">
<path d="M9.10254 103.684V99.875L58.9072 21.9453H64.3271V98.9961H78.2432V103.684H64.3271V128H59.6396V103.684H9.10254ZM15.4014 98.9961H59.6396V30.2949H58.9072L15.4014 98.5566V98.9961ZM125.927 129.465C105.272 129.465 92.748 108.884 92.6748 74.9727C92.748 41.0615 105.272 20.4805 125.927 20.4805C146.654 20.4805 159.179 41.0615 159.179 74.9727C159.179 108.884 146.654 129.465 125.927 129.465ZM97.5088 74.9727C97.5088 106.174 108.349 124.851 125.927 124.777C143.651 124.851 154.418 106.174 154.345 74.9727C154.418 43.7715 143.578 25.0215 125.927 25.0215C108.349 25.0215 97.5088 43.7715 97.5088 74.9727ZM173.757 103.684V99.875L223.562 21.9453H228.981V98.9961H242.897V103.684H228.981V128H224.294V103.684H173.757ZM180.056 98.9961H224.294V30.2949H223.562L180.056 98.5566V98.9961Z" fill="#242428"/>
<path d="M137.808 65.9496C136.272 65.9496 135.026 64.17 135.026 61.9748C135.026 59.7796 136.272 58 137.808 58C139.345 58 140.591 59.7796 140.591 61.9748C140.591 64.17 139.345 65.9496 137.808 65.9496Z" fill="black"/>
<path d="M114.19 65.9496C112.654 65.9496 111.408 64.17 111.408 61.9748C111.408 59.7796 112.654 58 114.19 58C115.727 58 116.973 59.7796 116.973 61.9748C116.973 64.17 115.727 65.9496 114.19 65.9496Z" fill="black"/>
<path d="M126.103 83.8415C123.908 83.8415 122.057 86.752 122.057 90.1708C122.057 93.5895 123.908 96.5001 126.103 96.5001C128.297 96.5001 130.148 93.5895 130.148 90.1708C130.148 86.752 128.297 83.8415 126.103 83.8415ZM126.103 81.5315C129.599 81.5315 132.434 85.3891 132.434 90.1708C132.434 94.9524 129.599 98.8101 126.103 98.8101C122.606 98.8101 119.772 94.9524 119.772 90.1708C119.772 85.3891 122.606 81.5315 126.103 81.5315Z" fill="black"/>
</svg>
