<svg width="35" height="9" viewBox="0 0 35 9" fill="#fff" xmlns="http://www.w3.org/2000/svg">
<path d="M4.30291 8.072C3.62291 8.072 3.02291 7.932 2.50291 7.652C1.99091 7.372 1.59091 6.988 1.30291 6.5C1.02291 6.012 0.882906 5.452 0.882906 4.82C0.882906 4.188 1.01891 3.628 1.29091 3.14C1.57091 2.652 1.95091 2.272 2.43091 2C2.91891 1.72 3.46691 1.58 4.07491 1.58C4.69091 1.58 5.23491 1.716 5.70691 1.988C6.17891 2.26 6.54691 2.644 6.81091 3.14C7.08291 3.628 7.21891 4.2 7.21891 4.856C7.21891 4.904 7.21491 4.96 7.20691 5.024C7.20691 5.088 7.20291 5.148 7.19491 5.204H1.78291V4.376H6.59491L6.12691 4.664C6.13491 4.256 6.05091 3.892 5.87491 3.572C5.69891 3.252 5.45491 3.004 5.14291 2.828C4.83891 2.644 4.48291 2.552 4.07491 2.552C3.67491 2.552 3.31891 2.644 3.00691 2.828C2.69491 3.004 2.45091 3.256 2.27491 3.584C2.09891 3.904 2.01091 4.272 2.01091 4.688V4.88C2.01091 5.304 2.10691 5.684 2.29891 6.02C2.49891 6.348 2.77491 6.604 3.12691 6.788C3.47891 6.972 3.88291 7.064 4.33891 7.064C4.71491 7.064 5.05491 7 5.35891 6.872C5.67091 6.744 5.94291 6.552 6.17491 6.296L6.81091 7.04C6.52291 7.376 6.16291 7.632 5.73091 7.808C5.30691 7.984 4.83091 8.072 4.30291 8.072ZM10.3694 8L7.58537 1.64H8.78538L11.2574 7.4H10.6814L13.2014 1.64H14.3294L11.5454 8H10.3694ZM18.0607 8.072C17.3807 8.072 16.7807 7.932 16.2607 7.652C15.7487 7.372 15.3487 6.988 15.0607 6.5C14.7807 6.012 14.6407 5.452 14.6407 4.82C14.6407 4.188 14.7767 3.628 15.0487 3.14C15.3287 2.652 15.7087 2.272 16.1887 2C16.6767 1.72 17.2247 1.58 17.8327 1.58C18.4487 1.58 18.9927 1.716 19.4647 1.988C19.9367 2.26 20.3047 2.644 20.5687 3.14C20.8407 3.628 20.9767 4.2 20.9767 4.856C20.9767 4.904 20.9727 4.96 20.9647 5.024C20.9647 5.088 20.9607 5.148 20.9527 5.204H15.5407V4.376H20.3527L19.8847 4.664C19.8927 4.256 19.8087 3.892 19.6327 3.572C19.4567 3.252 19.2127 3.004 18.9007 2.828C18.5967 2.644 18.2407 2.552 17.8327 2.552C17.4327 2.552 17.0767 2.644 16.7647 2.828C16.4527 3.004 16.2087 3.256 16.0327 3.584C15.8567 3.904 15.7687 4.272 15.7687 4.688V4.88C15.7687 5.304 15.8647 5.684 16.0567 6.02C16.2567 6.348 16.5327 6.604 16.8847 6.788C17.2367 6.972 17.6407 7.064 18.0967 7.064C18.4727 7.064 18.8127 7 19.1167 6.872C19.4287 6.744 19.7007 6.552 19.9327 6.296L20.5687 7.04C20.2807 7.376 19.9207 7.632 19.4887 7.808C19.0647 7.984 18.5887 8.072 18.0607 8.072ZM25.9724 1.58C26.4924 1.58 26.9484 1.68 27.3404 1.88C27.7404 2.08 28.0524 2.384 28.2764 2.792C28.5004 3.2 28.6124 3.716 28.6124 4.34V8H27.4604V4.472C27.4604 3.856 27.3084 3.392 27.0044 3.08C26.7084 2.768 26.2884 2.612 25.7444 2.612C25.3364 2.612 24.9804 2.692 24.6764 2.852C24.3724 3.012 24.1364 3.248 23.9684 3.56C23.8084 3.872 23.7284 4.26 23.7284 4.724V8H22.5764V1.64H23.6804V3.356L23.5004 2.9C23.7084 2.484 24.0284 2.16 24.4604 1.928C24.8924 1.696 25.3964 1.58 25.9724 1.58ZM32.9283 8.072C32.2883 8.072 31.7923 7.9 31.4403 7.556C31.0883 7.212 30.9123 6.72 30.9123 6.08V0.248H32.0643V6.032C32.0643 6.376 32.1483 6.64 32.3163 6.824C32.4923 7.008 32.7403 7.1 33.0603 7.1C33.4203 7.1 33.7203 7 33.9603 6.8L34.3203 7.628C34.1443 7.78 33.9323 7.892 33.6843 7.964C33.4443 8.036 33.1923 8.072 32.9283 8.072ZM29.8323 2.588V1.64H33.8883V2.588H29.8323Z"/>
</svg>
