<svg width="351" height="112" viewBox="0 0 351 112" fill="none" xmlns="http://www.w3.org/2000/svg">
<path d="M339.809 44.8H302.117C295.953 44.8 290.925 39.7436 290.925 33.6C290.925 27.4564 295.978 22.4 302.117 22.4H339.809C345.973 22.4 351 17.3436 351 11.2C351 5.05643 345.947 0 339.809 0H42.2645C36.1004 0 31.0731 5.05643 31.0731 11.2C31.0731 17.3436 36.1257 22.4 42.2645 22.4H103.097C109.261 22.4 114.288 27.4564 114.288 33.6C114.288 39.7436 109.236 44.8 103.097 44.8H42.2645H11.1914C5.02728 44.8 0 49.8564 0 56C0 62.1436 5.05254 67.2 11.1914 67.2H72.0492C78.2133 67.2 83.2406 72.2564 83.2406 78.4C83.2406 84.5436 78.1881 89.6 72.0492 89.6H11.1914C5.02728 89.6 0 94.6564 0 100.8C0 106.944 5.05254 112 11.1914 112H308.761C314.925 112 319.952 106.944 319.952 100.8C319.952 94.6564 314.9 89.6 308.761 89.6H271.069C264.905 89.6 259.877 84.5436 259.877 78.4C259.877 72.2564 264.93 67.2 271.069 67.2H339.809C345.973 67.2 351 62.1436 351 56C351 49.8564 345.947 44.8 339.809 44.8Z" fill="#EFF2F6"/>
</svg>
