<svg width="174" height="169" viewBox="0 0 174 169" fill="none" xmlns="http://www.w3.org/2000/svg">
<g clip-path="url(#clip0_179_2561)">
<path d="M24.2657 139.361C18.343 139.361 13.5129 134.479 13.5129 128.493L5.2614 22.7813C5.2614 16.8826 10.0915 12.0009 16.043 12.0009H22.2531V6.68328C22.2531 3.77751 24.582 1.42383 27.457 1.42383H66.5869C69.462 1.42383 71.7908 3.77751 71.7908 6.68328V12.0009H158.015C163.966 12.0009 168.796 16.8826 168.796 22.8975L160.545 128.377C160.545 134.479 155.714 139.361 149.763 139.361H24.2657Z" fill="white"/>
<path d="M66.5582 2.90578C68.6282 2.90578 70.3245 4.62019 70.3245 6.71234V13.4828H157.986C163.103 13.4828 167.244 17.6671 167.301 22.8103L159.078 128.29V128.406V128.523C159.078 133.724 154.881 137.937 149.763 137.937H24.2657C19.1193 137.937 14.9504 133.695 14.9504 128.523V128.29L6.69894 22.7813C6.75644 17.6381 10.9253 13.4537 16.0142 13.4537H23.6619V6.71234C23.6619 4.62019 25.3582 2.90578 27.4283 2.90578H66.5582ZM66.5582 0H27.4283C23.7769 0 20.7868 2.99295 20.7868 6.71234V10.577H16.0142C9.28652 10.548 3.82386 16.0689 3.82386 22.8975L12.0753 128.493C12.0753 135.293 17.538 140.814 24.2657 140.814H149.734C156.462 140.814 161.925 135.293 161.925 128.493L170.176 22.8975C170.176 16.098 164.713 10.577 157.986 10.577H73.1709V6.71234C73.1709 3.02201 70.2095 0 66.5294 0L66.5582 0Z" fill="black"/>
<path d="M33.466 131.69C28.5208 131.69 24.4957 127.622 24.4957 122.624L17.4518 32.3995C17.4518 27.5178 21.4769 23.4497 26.422 23.4497H147.578C152.523 23.4497 156.548 27.5178 156.548 32.5157L149.504 122.508C149.504 127.622 145.479 131.69 140.534 131.69H33.466Z" fill="white"/>
<path d="M147.578 24.8736C151.689 24.8736 155.053 28.2443 155.111 32.3995L148.096 122.362V122.479V122.595C148.096 126.808 144.703 130.208 140.563 130.208H33.466C29.2971 130.208 25.9332 126.779 25.9332 122.595V122.362L18.8893 32.3995C18.9468 28.2443 22.3106 24.8736 26.422 24.8736H147.578ZM147.578 21.9678H26.4508C20.7006 21.9678 16.043 26.6751 16.043 32.4867L23.0869 122.595C23.0869 128.406 27.7445 133.114 33.4947 133.114H140.534C146.284 133.114 150.942 128.406 150.942 122.595L157.986 32.4867C157.986 26.6751 153.328 21.9678 147.578 21.9678Z" fill="black"/>
<path d="M33.466 136.019C28.5208 136.019 24.4957 131.951 24.4957 126.953L17.4518 36.7291C17.4518 31.8474 21.4769 27.7793 26.422 27.7793H147.578C152.523 27.7793 156.548 31.8474 156.548 36.8453L149.504 126.837C149.504 131.951 145.479 136.019 140.534 136.019H33.466Z" fill="white"/>
<path d="M147.578 29.2322C151.689 29.2322 155.053 32.6029 155.111 36.7582L148.096 126.721V126.837V126.953C148.096 131.167 144.703 134.567 140.563 134.567H33.466C29.2971 134.567 25.9332 131.138 25.9332 126.953V126.721L18.8893 36.7582C18.9468 32.6029 22.3106 29.2322 26.422 29.2322H147.578ZM147.578 26.3264H26.4508C20.7006 26.3264 16.043 31.0338 16.043 36.8453L23.0869 126.953C23.0869 132.765 27.7445 137.472 33.4947 137.472H140.534C146.284 137.472 150.942 132.765 150.942 126.953L157.986 36.8453C157.986 31.0338 153.328 26.3264 147.578 26.3264Z" fill="black"/>
<path d="M21.3906 167.547C15.1517 167.547 10.0628 162.404 10.0628 156.098L1.43754 45.5335C1.43754 39.3442 6.52644 34.2009 12.7654 34.2009H161.235C167.474 34.2009 172.562 39.3442 172.562 45.6497L163.937 155.982C163.937 162.404 158.848 167.547 152.609 167.547H21.3906Z" fill="white"/>
<path d="M161.235 35.6538C166.64 35.6538 171.067 40.0706 171.125 45.5335L162.5 155.866V155.982V156.098C162.5 161.619 158.072 166.094 152.609 166.094H21.3906C15.928 166.094 11.5003 161.619 11.5003 156.098V155.866L2.87508 45.5335C2.93258 40.0706 7.36021 35.6538 12.7654 35.6538H161.235ZM161.235 32.748H12.7654C5.72141 32.748 0 38.5305 0 45.6497L8.62525 156.098C8.62525 163.217 14.3467 169 21.3906 169H152.609C159.653 169 165.375 163.217 165.375 156.098L174 45.6497C174 38.5305 168.279 32.748 161.235 32.748Z" fill="black"/>
<path d="M68.5 106C70.433 106 72 103.761 72 101C72 98.2386 70.433 96 68.5 96C66.567 96 65 98.2386 65 101C65 103.761 66.567 106 68.5 106Z" fill="black"/>
<path d="M104.5 106C106.433 106 108 103.761 108 101C108 98.2386 106.433 96 104.5 96C102.567 96 101 98.2386 101 101C101 103.761 102.567 106 104.5 106Z" fill="black"/>
<path d="M115 117C113.533 128.238 101.337 137 86.4674 137C71.5978 137 59.663 128.397 58 117.319" stroke="black" stroke-width="3" stroke-linecap="round" stroke-linejoin="round"/>
</g>
<defs>
<clipPath id="clip0_179_2561">
<rect width="174" height="169" fill="white"/>
</clipPath>
</defs>
</svg>
