<svg width="16" height="16" viewBox="0 0 16 16" fill="#878d95" xmlns="http://www.w3.org/2000/svg">
<path d="M8.00053 13.9998C6.61233 14.001 5.26669 13.5209 4.19285 12.6411C3.11902 11.7614 2.38343 10.5365 2.11149 9.17517C1.83956 7.81387 2.04809 6.40039 2.70152 5.1756C3.35495 3.95081 4.41286 2.99049 5.69499 2.45828C6.97712 1.92608 8.40412 1.85491 9.73283 2.25693C11.0615 2.65895 12.2098 3.50925 12.9818 4.66297C13.7538 5.81668 14.1019 7.20241 13.9667 8.58402C13.8316 9.96562 13.2215 11.2576 12.2405 12.2398C11.1164 13.3653 9.5913 13.9984 8.00053 13.9998ZM8.00053 14.9998C9.61782 14.9882 11.1812 14.4169 12.4249 13.383C13.6686 12.3492 14.516 10.9165 14.823 9.32856C15.1299 7.74062 14.8776 6.0954 14.1087 4.67249C13.3399 3.24957 12.1021 2.13677 10.6057 1.52323C9.10926 0.909686 7.44654 0.833277 5.90013 1.30695C4.35372 1.78062 3.01902 2.77517 2.12291 4.12155C1.2268 5.46794 0.824548 7.08308 0.984541 8.69248C1.14453 10.3019 1.85689 11.8062 3.00053 12.9498C3.65653 13.6058 4.43636 14.1249 5.29472 14.4768C6.15308 14.8287 7.07285 15.0065 8.00053 14.9998Z"/>
<path d="M8.50001 11.25C8.50001 11.1511 8.47066 11.0545 8.41572 10.9722C8.36078 10.89 8.28272 10.8259 8.19136 10.7881C8.09999 10.7502 7.99947 10.7403 7.90248 10.7596C7.80549 10.7789 7.71636 10.8265 7.64644 10.8965C7.57651 10.9664 7.52889 11.0555 7.50959 11.1525C7.4903 11.2495 7.50025 11.35 7.5381 11.4413C7.57594 11.5327 7.64002 11.6108 7.72224 11.6657C7.80447 11.7207 7.90112 11.75 8.00001 11.75C8.13262 11.75 8.25982 11.6973 8.35359 11.6035C8.44736 11.5098 8.50001 11.3826 8.50001 11.25Z"/>
<path d="M7.5 4.75V8.75C7.5 8.88261 7.55266 9.00978 7.64642 9.10355C7.74019 9.19731 7.86739 9.25 8 9.25C8.13261 9.25 8.25981 9.19731 8.35358 9.10355C8.44734 9.00978 8.5 8.88261 8.5 8.75V4.75C8.5 4.61739 8.44734 4.49022 8.35358 4.39645C8.25981 4.30269 8.13261 4.25 8 4.25C7.86739 4.25 7.74019 4.30269 7.64642 4.39645C7.55266 4.49022 7.5 4.61739 7.5 4.75Z"/>
</svg>
