<svg width="32" height="32" viewBox="0 0 32 32" fill="none" xmlns="http://www.w3.org/2000/svg">
<circle cx="16" cy="16" r="16" fill="#CFD0D7"/>
<g clip-path="url(#clip0_1924_3219)">
<path d="M16.0035 9.44488C18.1284 9.44488 18.3904 9.44487 19.2333 9.48737C19.7411 9.49548 20.2438 9.58886 20.7207 9.7636C21.0684 9.89364 21.3829 10.0993 21.6414 10.3656C21.9073 10.6232 22.1108 10.9382 22.2364 11.2864C22.4158 11.7594 22.5094 12.2608 22.5126 12.7667C22.5551 13.6096 22.5622 13.8645 22.5622 16.0035C22.5622 18.1425 22.5622 18.3904 22.5126 19.2333C22.5081 19.7414 22.4147 20.2448 22.2364 20.7207C22.1091 21.068 21.9058 21.3826 21.6414 21.6414C21.3826 21.9058 21.068 22.109 20.7207 22.2364C20.2448 22.4146 19.7414 22.5081 19.2333 22.5126C18.3904 22.548 18.1354 22.5622 16.0035 22.5622C13.8716 22.5622 13.6166 22.5622 12.7667 22.5126C12.2609 22.5083 11.7597 22.4148 11.2864 22.2364C10.9382 22.1108 10.6232 21.9073 10.3656 21.6414C10.0993 21.3829 9.89365 21.0684 9.76361 20.7207C9.58886 20.2438 9.49549 19.741 9.48738 19.2333C9.48738 18.3904 9.44488 18.1354 9.44488 16.0035C9.44488 13.8716 9.44488 13.6096 9.48738 12.7667C9.49437 12.2611 9.5878 11.7605 9.76361 11.2864C9.89191 10.9378 10.0978 10.623 10.3656 10.3656C10.623 10.0978 10.9378 9.8919 11.2864 9.7636C11.7607 9.58859 12.2612 9.49519 12.7667 9.48737C13.6166 9.48737 13.8645 9.44488 16.0035 9.44488ZM16.0035 8.02832C13.8291 8.02832 13.56 8.02831 12.703 8.07789C12.0393 8.09037 11.3827 8.21736 10.7623 8.45328C10.2277 8.65141 9.74382 8.96592 9.34572 9.37404C8.93994 9.77406 8.62578 10.2574 8.42496 10.7906C8.19249 11.412 8.06561 12.068 8.04957 12.7313C8.04957 13.5883 8 13.8575 8 16.0319C8 18.2063 7.99999 18.4754 8.04957 19.3254C8.06496 19.991 8.19185 20.6494 8.42496 21.2731C8.62578 21.8064 8.93994 22.2897 9.34572 22.6897C9.74755 23.0932 10.2303 23.407 10.7623 23.6104C11.3833 23.8435 12.0397 23.9681 12.703 23.9787C13.56 24.0212 13.8291 24.0283 16.0035 24.0283C18.1779 24.0283 18.4471 24.0283 19.3041 23.9787C19.9673 23.9681 20.6238 23.8435 21.2448 23.6104C21.7767 23.407 22.2595 23.0932 22.6614 22.6897C23.0649 22.2878 23.3787 21.8051 23.5821 21.2731C23.8159 20.6498 23.9405 19.9909 23.9504 19.3254C23.9929 18.4754 24 18.1992 24 16.0319C24 13.8645 24 13.5883 23.9504 12.7313C23.9398 12.0681 23.8152 11.4116 23.5821 10.7906C23.3787 10.2587 23.0649 9.77587 22.6614 9.37404C22.2633 8.96592 21.7794 8.65141 21.2448 8.45328C20.6243 8.21736 19.9678 8.09037 19.3041 8.07789C18.4471 8.04248 18.1779 8.02832 16.0035 8.02832Z" fill="white"/>
<path d="M16.0025 11.8955C14.913 11.8955 13.8681 12.3283 13.0977 13.0987C12.3273 13.8691 11.8945 14.914 11.8945 16.0035C11.8945 17.093 12.3273 18.1379 13.0977 18.9083C13.8681 19.6787 14.913 20.1115 16.0025 20.1115C17.092 20.1115 18.1369 19.6787 18.9073 18.9083C19.6777 18.1379 20.1106 17.093 20.1106 16.0035C20.1106 14.914 19.6777 13.8691 18.9073 13.0987C18.1369 12.3283 17.092 11.8955 16.0025 11.8955ZM16.0025 18.6667C15.6522 18.6676 15.3052 18.5994 14.9812 18.466C14.6573 18.3326 14.3629 18.1365 14.1148 17.8891C13.8668 17.6418 13.67 17.3479 13.5357 17.0243C13.4015 16.7007 13.3323 16.3538 13.3323 16.0035C13.3323 15.2953 13.6137 14.6162 14.1144 14.1154C14.6152 13.6146 15.2944 13.3333 16.0025 13.3333C16.3529 13.3333 16.6997 13.4024 17.0233 13.5367C17.3469 13.671 17.6408 13.8678 17.8882 14.1158C18.1356 14.3639 18.3316 14.6583 18.465 14.9822C18.5984 15.3061 18.6666 15.6532 18.6657 16.0035C18.6657 16.7098 18.3851 17.3872 17.8856 17.8866C17.3862 18.3861 16.7088 18.6667 16.0025 18.6667Z" fill="white"/>
<path d="M21.23 11.7328C21.2309 11.8586 21.2068 11.9834 21.1591 12.0998C21.1114 12.2162 21.041 12.322 20.952 12.411C20.863 12.5 20.7573 12.5704 20.6408 12.6181C20.5244 12.6658 20.3996 12.6899 20.2738 12.689C20.1476 12.6899 20.0225 12.6659 19.9057 12.6182C19.7889 12.5706 19.6826 12.5003 19.5931 12.4114C19.5036 12.3225 19.4325 12.2168 19.384 12.1004C19.3355 11.9839 19.3105 11.859 19.3105 11.7328C19.3105 11.4773 19.412 11.2323 19.5927 11.0517C19.7733 10.871 20.0183 10.7695 20.2738 10.7695C20.4 10.7695 20.5249 10.7945 20.6414 10.843C20.7578 10.8915 20.8635 10.9626 20.9524 11.0521C21.0413 11.1416 21.1116 11.2479 21.1592 11.3647C21.2069 11.4815 21.2309 11.6066 21.23 11.7328Z" fill="white"/>
</g>
<defs>
<clipPath id="clip0_1924_3219">
<rect width="16" height="16" fill="white" transform="translate(8 8)"/>
</clipPath>
</defs>
</svg>
