<svg width="197" height="23" viewBox="0 0 197 23" fill="none" xmlns="http://www.w3.org/2000/svg">
<path d="M133.895 19.4358C133.055 18.8501 132.612 17.472 133.453 16.3253C133.776 15.8823 134.293 15.5969 134.841 15.528C135.666 15.4197 136.209 15.6756 136.577 15.9316C138.213 17.1226 139.999 17.8559 142.098 17.8559C144.043 17.8559 145.212 17.0931 145.212 15.843V15.7839C145.212 14.5929 144.471 13.9826 140.865 13.0671C136.517 11.9597 133.711 10.7687 133.711 6.53111V6.47205C133.711 2.59375 136.855 0.029541 141.262 0.029541C143.884 0.029541 146.167 0.703814 148.112 1.9244C148.605 2.20985 149.102 2.79554 149.157 3.6273C149.256 5.15303 147.963 6.22596 146.456 5.90113C146.202 5.84699 145.973 5.74856 145.739 5.61567C144.168 4.70023 142.685 4.18346 141.208 4.18346C139.387 4.18346 138.432 5.00538 138.432 6.04386V6.10292C138.432 7.5056 139.357 7.96332 143.088 8.90829C147.466 10.0354 149.933 11.5955 149.933 15.3163V15.3754C149.933 19.6179 146.665 21.9951 142.009 21.9951C139.173 21.9951 136.303 21.1387 133.895 19.4309V19.4358Z" fill="#4D4D4D"/>
<path d="M151.644 18.6729L159.17 1.8604C159.692 0.698881 160.652 0 161.946 0H162.224C163.518 0 164.443 0.703803 164.97 1.8604L172.496 18.6729C172.651 19.0076 172.745 19.3128 172.745 19.6179C172.745 20.868 171.76 21.877 170.492 21.877C169.382 21.877 168.641 21.2371 168.209 20.2577L166.761 16.9011H157.265L155.753 20.4103C155.35 21.3257 154.549 21.877 153.564 21.877C152.33 21.877 151.375 20.9025 151.375 19.6819C151.375 19.3472 151.5 19.0125 151.654 18.6729H151.644ZM164.995 12.7521L162.005 5.70425L159.016 12.7521H165H164.995Z" fill="#4D4D4D"/>
<path d="M175.411 2.56424C175.411 1.25015 176.461 0.216592 177.784 0.216592H178.306C179.326 0.216592 180.032 0.73337 180.465 1.43717L186.201 10.6801L191.971 1.40272C192.463 0.610328 193.145 0.21167 194.1 0.21167H194.622C195.95 0.21167 196.995 1.25015 196.995 2.55932V19.5293C196.995 20.8434 195.945 21.877 194.622 21.877C193.299 21.877 192.279 20.809 192.279 19.5293V8.87878L188.116 15.2278C187.623 15.9611 187.006 16.4188 186.141 16.4188C185.275 16.4188 184.659 15.9611 184.166 15.2278L180.062 8.9723V19.5884C180.062 20.868 179.013 21.877 177.719 21.877C176.426 21.877 175.406 20.868 175.406 19.5884V2.56424H175.411Z" fill="#4D4D4D"/>
<path d="M19.6373 9.87549C19.2189 9.87549 19.0694 9.93546 18.8104 10.1754C18.5414 10.4252 17.9735 11.005 17.844 11.1949C17.7842 11.2848 17.8041 11.3648 17.8639 11.4548C18.1628 11.9745 18.7207 12.1245 19.4978 12.1245H25.4657C25.8842 12.1245 26.0336 12.0645 26.2927 11.8246C26.5617 11.5847 27.1296 10.995 27.2591 10.8051C27.3189 10.7151 27.299 10.6351 27.2392 10.5452C26.9403 10.0254 26.3824 9.87549 25.6052 9.87549H19.6373Z" fill="#FA2828"/>
<path d="M35.0004 8.66607C34.6317 8.47616 34.4624 8.46616 34.1236 8.55612C33.7749 8.64608 33.0077 8.91596 32.8085 9.02591C32.7089 9.07588 32.6989 9.16584 32.7089 9.2658C32.7487 9.86553 33.1672 10.2553 33.8646 10.6152L39.1849 13.3339C39.5535 13.5239 39.7229 13.5439 40.0616 13.4439C40.4103 13.3539 41.1775 13.0841 41.3768 12.9741C41.4664 12.9241 41.4864 12.8342 41.4764 12.7342C41.4365 12.1345 41.0181 11.7447 40.3207 11.3848L35.0004 8.66607Z" fill="#494949"/>
<path d="M30.5568 5.54748C30.4771 5.4975 30.3974 5.47751 30.3177 5.52748C30.1384 5.64743 29.5904 6.17719 29.3612 6.43707C29.1421 6.68696 29.0823 6.82689 29.0823 7.22671V14.8932C29.0823 15.6329 29.2317 16.1527 29.71 16.4425C29.7897 16.4925 29.8694 16.5125 29.9491 16.4625C30.1284 16.3426 30.6764 15.8128 30.9055 15.5529C31.1247 15.303 31.1845 15.1631 31.1845 14.7633V7.09677C31.1845 6.35711 31.035 5.83734 30.5568 5.54748Z" fill="#494949"/>
<path d="M44.4655 5.54748C44.3858 5.4975 44.3061 5.47751 44.2264 5.52748C44.0471 5.64743 43.4991 6.17719 43.2699 6.43707C43.0507 6.68696 42.991 6.82689 42.991 7.22671V14.8932C42.991 15.6329 43.1404 16.1527 43.6186 16.4425C43.6983 16.4925 43.7781 16.5125 43.8578 16.4625C44.0371 16.3426 44.5851 15.8128 44.8142 15.5529C45.0334 15.303 45.0932 15.1631 45.0932 14.7633V7.09677C45.0932 6.35711 44.9437 5.83734 44.4655 5.54748Z" fill="#494949"/>
<path d="M5.9181 8.66607C5.54946 8.47616 5.38009 8.46616 5.04134 8.55612C4.69263 8.64608 3.92547 8.91596 3.72621 9.02591C3.62658 9.07588 3.61662 9.16584 3.62658 9.2658C3.66643 9.86553 4.08488 10.2553 4.7823 10.6152L10.1026 13.3339C10.4712 13.5239 10.6406 13.5439 10.9794 13.4439C11.3281 13.3539 12.0952 13.0841 12.2945 12.9741C12.3842 12.9241 12.4041 12.8342 12.3941 12.7342C12.3543 12.1345 11.9358 11.7447 11.2384 11.3848L5.9181 8.66607Z" fill="#494949"/>
<path d="M1.47454 5.54748C1.39484 5.4975 1.31513 5.47751 1.23543 5.52748C1.05609 5.64743 0.50812 6.17719 0.278968 6.43707C0.0597788 6.68696 0 6.82689 0 7.22671V14.8932C0 15.6329 0.149447 16.1527 0.627677 16.4425C0.707382 16.4925 0.787087 16.5125 0.866792 16.4625C1.04613 16.3426 1.5941 15.8128 1.82325 15.5529C2.04244 15.303 2.10222 15.1631 2.10222 14.7633V7.09677C2.10222 6.35711 1.95277 5.83734 1.47454 5.54748Z" fill="#494949"/>
<path d="M15.383 5.54748C15.3033 5.4975 15.2236 5.47751 15.1439 5.52748C14.9645 5.64743 14.4166 6.17719 14.1874 6.43707C13.9682 6.68696 13.9084 6.82689 13.9084 7.22671V14.8932C13.9084 15.6329 14.0579 16.1527 14.5361 16.4425C14.6158 16.4925 14.6955 16.5125 14.7752 16.4625C14.9546 16.3426 15.5025 15.8128 15.7317 15.5529C15.9509 15.303 16.0107 15.1631 16.0107 14.7633V7.09677C16.0107 6.35711 15.8612 5.83734 15.383 5.54748Z" fill="#494949"/>
<path d="M69.5727 17.4821H60.7952V2.37892C60.7952 1.04952 59.7491 0 58.424 0C57.0989 0 56.0527 1.04952 56.0527 2.37892V19.4312C56.0527 20.7606 57.0989 21.8101 58.424 21.8101H69.5727C70.7683 21.8101 71.7247 20.8505 71.7247 19.6511C71.7247 18.4516 70.7683 17.492 69.5727 17.492V17.4821Z" fill="#FA2828"/>
<path d="M77.7025 0C76.3774 0 75.3313 1.04952 75.3313 2.37892V19.6111C75.3313 20.9405 76.3774 21.99 77.7025 21.99C79.0276 21.99 80.0738 20.9405 80.0738 19.6111V2.37892C80.0738 1.04952 79.0276 0 77.7025 0Z" fill="#FA2828"/>
<path d="M102.262 0C100.966 0 99.9204 1.04952 99.9204 2.34893V13.4939L90.7842 1.44934C90.1366 0.619718 89.4591 0.0599727 88.3233 0.0599727H87.8351C86.51 0.0599727 85.4639 1.1095 85.4639 2.43889V19.6411C85.4639 20.9405 86.51 21.99 87.8052 21.99C89.1004 21.99 90.1465 20.9405 90.1465 19.6411V8.05634L99.6314 20.5307C100.279 21.3603 100.957 21.92 102.092 21.92H102.242C103.567 21.92 104.613 20.8705 104.613 19.5411V2.34893C104.613 1.04952 103.567 0 102.272 0H102.262Z" fill="#FA2828"/>
<path d="M119.388 11.015L126.293 4.08814C127.229 3.14857 127.229 1.66924 126.293 0.729668C125.356 -0.209905 123.882 -0.209905 122.945 0.729668L114.467 9.2358V2.37892C114.467 1.04952 113.42 0 112.095 0C110.77 0 109.724 1.04952 109.724 2.37892V19.6111C109.724 20.9405 110.77 21.99 112.095 21.99C113.42 21.99 114.467 20.9405 114.467 19.6111V12.7942L122.945 21.3003C123.882 22.2399 125.356 22.2399 126.293 21.3003C127.229 20.3607 127.229 18.8814 126.293 17.9418L119.388 11.015Z" fill="#FA2828"/>
</svg>
