<svg width="24" height="24" viewBox="0 0 24 24" fill="#242428" xmlns="http://www.w3.org/2000/svg">
<path fill-rule="evenodd" clip-rule="evenodd" d="M11.6637 3.13003C11.8544 2.95666 12.1456 2.95666 12.3363 3.13003L17.8363 8.13003C18.0407 8.31578 18.0557 8.63201 17.87 8.83634C17.6842 9.04067 17.368 9.05572 17.1637 8.86997L12 4.17573L6.83634 8.86997C6.63201 9.05572 6.31579 9.04067 6.13003 8.83634C5.94428 8.63201 5.95934 8.31578 6.16367 8.13003L11.6637 3.13003Z"/>
<path fill-rule="evenodd" clip-rule="evenodd" d="M12 4C12.2761 4 12.5 4.22386 12.5 4.5V19.5C12.5 19.7761 12.2761 20 12 20C11.7239 20 11.5 19.7761 11.5 19.5V4.5C11.5 4.22386 11.7239 4 12 4Z"/>
</svg>
