<svg width="218" height="25" viewBox="0 0 218 25" fill="none" xmlns="http://www.w3.org/2000/svg">
<g clip-path="url(#clip0_624_13773)">
<path d="M146.068 21.2027C145.151 20.5638 144.668 19.0604 145.585 17.8094C145.937 17.3262 146.502 17.0148 147.099 16.9396C148 16.8215 148.591 17.1007 148.993 17.3799C150.778 18.6792 152.726 19.4792 155.016 19.4792C157.138 19.4792 158.413 18.647 158.413 17.2832V17.2188C158.413 15.9195 157.605 15.2537 153.67 14.255C148.928 13.047 145.867 11.7477 145.867 7.12484V7.06041C145.867 2.82954 149.297 0.0322266 154.104 0.0322266C156.964 0.0322266 159.455 0.767797 161.577 2.09934C162.114 2.41075 162.657 3.04968 162.716 3.95706C162.825 5.62149 161.414 6.79196 159.77 6.4376C159.493 6.37854 159.243 6.27115 158.988 6.12619C157.274 5.12753 155.656 4.56377 154.045 4.56377C152.059 4.56377 151.017 5.46041 151.017 6.5933V6.65773C151.017 8.18793 152.026 8.68726 156.096 9.71813C160.871 10.9477 163.563 12.6497 163.563 16.7087V16.7732C163.563 21.4014 159.998 23.9946 154.918 23.9946C151.825 23.9946 148.694 23.0604 146.068 21.1973V21.2027Z" fill="#4D4D4D"/>
<path d="M165.43 20.3705L173.64 2.02953C174.21 0.762416 175.257 0 176.668 0H176.972C178.383 0 179.392 0.767785 179.968 2.02953L188.178 20.3705C188.346 20.7356 188.449 21.0685 188.449 21.4013C188.449 22.7651 187.375 23.8658 185.991 23.8658C184.781 23.8658 183.972 23.1678 183.5 22.0993L181.921 18.4376H171.562L169.912 22.2658C169.473 23.2644 168.599 23.8658 167.524 23.8658C166.179 23.8658 165.137 22.8027 165.137 21.4711C165.137 21.106 165.272 20.7409 165.441 20.3705H165.43ZM179.995 13.9114L176.733 6.22282L173.472 13.9114H180H179.995Z" fill="#4D4D4D"/>
<path d="M191.358 2.7974C191.358 1.36384 192.503 0.236326 193.946 0.236326H194.516C195.628 0.236326 196.399 0.800085 196.871 1.56787L203.128 11.6511L209.423 1.53029C209.96 0.665856 210.704 0.230957 211.745 0.230957H212.315C213.764 0.230957 214.904 1.36384 214.904 2.79203V21.3048C214.904 22.7383 213.759 23.8659 212.315 23.8659C210.872 23.8659 209.759 22.7008 209.759 21.3048V9.68599L205.217 16.6122C204.68 17.4122 204.007 17.9115 203.063 17.9115C202.119 17.9115 201.446 17.4122 200.909 16.6122L196.432 9.788V21.3692C196.432 22.7652 195.287 23.8659 193.876 23.8659C192.465 23.8659 191.352 22.7652 191.352 21.3692V2.7974H191.358Z" fill="#4D4D4D"/>
</g>
<path d="M21.4225 10.7734C20.966 10.7734 20.803 10.8389 20.5204 11.1006C20.227 11.3732 19.6074 12.0056 19.4661 12.2128C19.4009 12.3109 19.4227 12.3982 19.4879 12.4963C19.8139 13.0633 20.4226 13.2269 21.2704 13.2269H27.7808C28.2373 13.2269 28.4003 13.1614 28.6829 12.8997C28.9764 12.638 29.5959 11.9947 29.7372 11.7875C29.8024 11.6894 29.7807 11.6022 29.7155 11.504C29.3894 10.937 28.7808 10.7734 27.933 10.7734H21.4225Z" fill="#FA2828"/>
<path d="M38.1824 9.45425C37.7802 9.24707 37.5954 9.23617 37.2259 9.3343C36.8455 9.43244 36.0086 9.72685 35.7912 9.8468C35.6825 9.90132 35.6717 9.99946 35.6825 10.1085C35.726 10.7627 36.1825 11.188 36.9433 11.5806L42.7473 14.5465C43.1494 14.7537 43.3342 14.7755 43.7037 14.6664C44.0841 14.5683 44.921 14.2739 45.1384 14.1539C45.2362 14.0994 45.258 14.0013 45.2471 13.8922C45.2036 13.238 44.7471 12.8127 43.9863 12.4202L38.1824 9.45425Z" fill="#494949"/>
<path d="M33.3348 6.05192C33.2478 5.9974 33.1609 5.9756 33.0739 6.03012C32.8783 6.16097 32.2805 6.73888 32.0305 7.02239C31.7914 7.295 31.7262 7.44765 31.7262 7.88382V16.2473C31.7262 17.0542 31.8892 17.6212 32.4109 17.9374C32.4979 17.992 32.5848 18.0138 32.6718 17.9592C32.8674 17.8284 33.4652 17.2505 33.7152 16.967C33.9543 16.6944 34.0195 16.5417 34.0195 16.1055V7.74206C34.0195 6.93516 33.8565 6.36814 33.3348 6.05192Z" fill="#494949"/>
<path d="M48.5078 6.05192C48.4208 5.9974 48.3339 5.9756 48.2469 6.03012C48.0513 6.16097 47.4535 6.73888 47.2035 7.02239C46.9644 7.295 46.8992 7.44765 46.8992 7.88382V16.2473C46.8992 17.0542 47.0622 17.6212 47.5839 17.9374C47.6709 17.992 47.7578 18.0138 47.8448 17.9592C48.0404 17.8284 48.6382 17.2505 48.8882 16.967C49.1273 16.6944 49.1925 16.5417 49.1925 16.1055V7.74206C49.1925 6.93516 49.0295 6.36814 48.5078 6.05192Z" fill="#494949"/>
<path d="M6.45616 9.45425C6.05401 9.24707 5.86924 9.23617 5.4997 9.3343C5.11929 9.43244 4.28239 9.72685 4.06501 9.8468C3.95632 9.90132 3.94545 9.99946 3.95632 10.1085C3.9998 10.7627 4.45629 11.188 5.21711 11.5806L11.0211 14.5465C11.4232 14.7537 11.608 14.7755 11.9775 14.6664C12.358 14.5683 13.1949 14.2739 13.4122 14.1539C13.5101 14.0994 13.5318 14.0013 13.5209 13.8922C13.4775 13.238 13.021 12.8127 12.2601 12.4202L6.45616 9.45425Z" fill="#494949"/>
<path d="M1.60859 6.05192C1.52164 5.9974 1.43469 5.9756 1.34774 6.03012C1.1521 6.16097 0.554312 6.73888 0.304328 7.02239C0.0652132 7.295 0 7.44765 0 7.88382V16.2473C0 17.0542 0.163033 17.6212 0.684739 17.9374C0.77169 17.992 0.858641 18.0138 0.945592 17.9592C1.14123 17.8284 1.73902 17.2505 1.989 16.967C2.22812 16.6944 2.29333 16.5417 2.29333 16.1055V7.74207C2.29333 6.93516 2.1303 6.36814 1.60859 6.05192Z" fill="#494949"/>
<path d="M16.7816 6.05192C16.6946 5.9974 16.6077 5.9756 16.5207 6.03012C16.3251 6.16097 15.7273 6.73888 15.4773 7.02239C15.2382 7.295 15.173 7.44765 15.173 7.88382V16.2473C15.173 17.0542 15.336 17.6212 15.8577 17.9374C15.9447 17.992 16.0316 18.0138 16.1186 17.9592C16.3142 17.8284 16.912 17.2505 17.162 16.967C17.4011 16.6944 17.4663 16.5417 17.4663 16.1055V7.74206C17.4663 6.93516 17.3033 6.36814 16.7816 6.05192Z" fill="#494949"/>
<path d="M75.8975 19.0713H66.322V2.59518C66.322 1.14493 65.1808 0 63.7352 0C62.2897 0 61.1484 1.14493 61.1484 2.59518V21.1976C61.1484 22.6479 62.2897 23.7928 63.7352 23.7928H75.8975C77.2018 23.7928 78.2452 22.746 78.2452 21.4375C78.2452 20.129 77.2018 19.0822 75.8975 19.0822V19.0713Z" fill="#FA2828"/>
<path d="M84.7665 0C83.3209 0 82.1797 1.14493 82.1797 2.59518V21.3939C82.1797 22.8442 83.3209 23.9891 84.7665 23.9891C86.212 23.9891 87.3533 22.8442 87.3533 21.3939V2.59518C87.3533 1.14493 86.212 0 84.7665 0Z" fill="#FA2828"/>
<path d="M111.558 0C110.145 0 109.004 1.14493 109.004 2.56247V14.7206L99.0373 1.5811C98.3308 0.676056 97.5918 0.0654248 96.3527 0.0654248H95.8201C94.3746 0.0654248 93.2333 1.21036 93.2333 2.66061V21.4266C93.2333 22.8442 94.3746 23.9891 95.7875 23.9891C97.2005 23.9891 98.3417 22.8442 98.3417 21.4266V8.78873L108.689 22.3971C109.395 23.3021 110.134 23.9128 111.373 23.9128H111.537C112.982 23.9128 114.123 22.7678 114.123 21.3176V2.56247C114.123 1.14493 112.982 0 111.569 0H111.558Z" fill="#FA2828"/>
<path d="M130.242 12.0164L137.774 4.45979C138.796 3.4348 138.796 1.82099 137.774 0.796002C136.752 -0.228987 135.144 -0.228987 134.122 0.796002L124.873 10.0754V2.59518C124.873 1.14493 123.731 0 122.286 0C120.84 0 119.699 1.14493 119.699 2.59518V21.3939C119.699 22.8442 120.84 23.9891 122.286 23.9891C123.731 23.9891 124.873 22.8442 124.873 21.3939V13.9573L134.122 23.2367C135.144 24.2617 136.752 24.2617 137.774 23.2367C138.796 22.2117 138.796 20.5979 137.774 19.5729L130.242 12.0164Z" fill="#FA2828"/>
<defs>
<clipPath id="clip0_624_13773">
<rect width="72" height="24" fill="white" transform="translate(145.091)"/>
</clipPath>
</defs>
</svg>
