<svg width="128" height="30" viewBox="0 0 128 30" fill="none" xmlns="http://www.w3.org/2000/svg">
<path d="M0.000154017 3.43817C-0.00392238 3.01815 0.0729571 2.60151 0.226285 2.21264C0.379613 1.82377 0.606308 1.47048 0.893104 1.17347C1.1799 0.876453 1.52103 0.641674 1.89652 0.482883C2.27201 0.324092 2.67432 0.244479 3.07989 0.248701H11.4425C18.1241 0.248701 22.1644 4.35001 22.1644 10.275V10.3579C22.1644 17.0684 17.1255 20.554 10.844 20.554H6.16344V26.5618C6.13535 27.3888 5.79839 28.1723 5.22353 28.747C4.64868 29.3218 3.88084 29.643 3.0818 29.643C2.28276 29.643 1.51492 29.3218 0.940068 28.747C0.365216 28.1723 0.0282424 27.3888 0.000154017 26.5618V3.43817ZM11.0537 14.8856C14.1372 14.8856 15.9363 12.9829 15.9363 10.4961V10.4132C15.9363 7.55133 14.0305 6.01975 10.9355 6.01975H6.16344V14.8856H11.0537Z" fill="#FA2828"/>
<path d="M21.1848 25.4013L30.9462 2.56973C31.6246 0.990781 32.852 0.039464 34.5481 0.039464H34.9064C36.5873 0.039464 37.7879 0.994729 38.4702 2.56973L48.2316 25.4013C48.4256 25.8003 48.5348 26.2378 48.5518 26.6842C48.5573 27.0849 48.4859 27.4828 48.3417 27.8546C48.1974 28.2265 47.9833 28.565 47.7116 28.8504C47.4399 29.1358 47.1162 29.3624 46.7592 29.517C46.4022 29.6717 46.0191 29.7513 45.6321 29.7513C44.1913 29.7513 43.2308 28.8829 42.6705 27.5566L40.7876 22.9974H28.4648L26.5057 27.7618C26.2771 28.3471 25.8844 28.8479 25.3782 29.1997C24.8721 29.5516 24.2757 29.7382 23.6661 29.7355C23.2892 29.7366 22.9158 29.6599 22.5679 29.5098C22.2199 29.3597 21.9043 29.1393 21.6396 28.8615C21.3748 28.5836 21.1662 28.2539 21.026 27.8916C20.8857 27.5293 20.8166 27.1416 20.8227 26.7513C20.8502 26.2799 20.9736 25.8198 21.1848 25.4013ZM38.5083 17.3684L34.6281 7.79604L30.748 17.3684H38.5083Z" fill="#FA2828"/>
<path d="M55.0696 18.3158L46.0247 5.59342C45.5375 4.94065 45.2698 4.14078 45.2624 3.31578C45.2684 2.90439 45.3529 2.49831 45.5113 2.12097C45.6696 1.74362 45.8986 1.40251 46.1849 1.11733C46.4713 0.83215 46.8093 0.608547 47.1796 0.459452C47.5499 0.310357 47.945 0.238722 48.3422 0.248676C49.741 0.248676 50.6291 1.03815 51.3914 2.19473L58.1912 12.3474L65.113 2.11183C65.8754 0.951308 66.7939 0.205249 68.0746 0.205249C68.4744 0.183624 68.874 0.249305 69.2477 0.398027C69.6213 0.546749 69.9606 0.775193 70.2435 1.06852C70.5264 1.36184 70.7465 1.7135 70.8896 2.10066C71.0328 2.48781 71.0957 2.90181 71.0743 3.31578C71.0351 4.12844 70.7571 4.90932 70.2777 5.55394L61.2329 18.1855V26.5579C61.2329 27.4038 60.9084 28.215 60.3308 28.8132C59.7533 29.4113 58.9699 29.7474 58.1531 29.7474C57.3363 29.7474 56.553 29.4113 55.9754 28.8132C55.3979 28.215 55.0734 27.4038 55.0734 26.5579L55.0696 18.3158Z" fill="#FA2828"/>
<path d="M71.2611 15.0829V15C71.2611 6.75395 77.2605 0 85.8631 0C90.0558 0 92.9069 1.16053 95.2243 2.94079C95.5981 3.23926 95.9007 3.6226 96.1089 4.06128C96.317 4.49996 96.4252 4.98226 96.425 5.47105C96.424 5.88306 96.3441 6.29078 96.1899 6.67059C96.0357 7.0504 95.8103 7.39475 95.5267 7.6837C95.243 7.97264 94.9069 8.20043 94.5377 8.35387C94.1685 8.50732 93.7735 8.58338 93.3757 8.57764C92.7147 8.57106 92.0717 8.35324 91.5347 7.95395C89.9075 6.61882 87.8934 5.89019 85.8174 5.88553C81.0949 5.88553 77.695 9.94341 77.695 14.9171V15C77.695 19.9737 81.0148 24.1145 85.8174 24.1145C88.4169 24.1145 90.1359 23.2855 91.8968 21.8368C92.1812 21.5723 92.514 21.3695 92.8755 21.2407C93.2369 21.1118 93.6197 21.0594 94.001 21.0866C94.3824 21.1139 94.7546 21.2201 95.0956 21.3992C95.4366 21.5782 95.7393 21.8262 95.986 22.1287C96.2326 22.4312 96.4181 22.7819 96.5314 23.16C96.6446 23.5382 96.6834 23.936 96.6455 24.3299C96.6075 24.7239 96.4935 25.1059 96.3103 25.4533C96.127 25.8008 95.8783 26.1066 95.5788 26.3526C93.0594 28.6342 90.0978 30 85.6154 30C77.3824 30 71.2611 23.4119 71.2611 15.0829Z" fill="#FA2828"/>
<path d="M98.2317 15.0829V15C98.2317 6.75395 104.513 0 113.158 0C121.802 0 128 6.67104 128 14.9171V15C128 23.2461 121.719 30 113.078 30C104.437 30 98.2317 23.329 98.2317 15.0829ZM121.558 15.0829V15C121.558 10.0263 118.037 5.88553 113.078 5.88553C108.119 5.88553 104.673 9.94341 104.673 14.9171V15C104.673 19.9737 108.195 24.1145 113.158 24.1145C118.12 24.1145 121.555 20.0566 121.555 15.0829H121.558Z" fill="#FA2828"/>
</svg>
