<svg width="46" height="46" viewBox="0 0 46 46" fill="#cfd0d7" xmlns="http://www.w3.org/2000/svg">
<path d="M23 8C24.2856 8 25.5423 8.38122 26.6112 9.09545C27.6801 9.80968 28.5133 10.8248 29.0052 12.0126C29.4972 13.2003 29.6259 14.5072 29.3751 15.7681C29.1243 17.029 28.5052 18.1872 27.5962 19.0962C26.6872 20.0052 25.529 20.6243 24.2681 20.8751C23.0072 21.1259 21.7003 20.9972 20.5126 20.5052C19.3248 20.0132 18.3097 19.1801 17.5954 18.1112C16.8812 17.0423 16.5 15.7856 16.5 14.5C16.5026 12.7769 17.1883 11.1251 18.4067 9.90673C19.6251 8.68831 21.2769 8.00264 23 8ZM23 6C21.3189 6 19.6755 6.49852 18.2777 7.43251C16.8798 8.3665 15.7904 9.69402 15.147 11.2472C14.5037 12.8004 14.3354 14.5094 14.6633 16.1583C14.9913 17.8071 15.8008 19.3217 16.9896 20.5104C18.1783 21.6992 19.6929 22.5087 21.3417 22.8367C22.9906 23.1646 24.6996 22.9963 26.2528 22.353C27.806 21.7096 29.1335 20.6202 30.0675 19.2223C31.0015 17.8245 31.5 16.1811 31.5 14.5C31.4974 12.2465 30.601 10.086 29.0075 8.49252C27.414 6.89903 25.2535 6.00265 23 6Z"/>
<path d="M39 40C38.7348 40 38.4804 39.8946 38.2929 39.7071C38.1054 39.5196 38 39.2652 38 39V36.35C37.9947 33.8718 37.0079 31.4967 35.2556 29.7444C33.5033 27.9921 31.1281 27.0053 28.65 27H17.35C14.8719 27.0053 12.4967 27.9921 10.7444 29.7444C8.99206 31.4967 8.00528 33.8718 8 36.35V39C8 39.2652 7.89464 39.5196 7.70711 39.7071C7.51957 39.8946 7.26522 40 7 40C6.73478 40 6.48043 39.8946 6.29289 39.7071C6.10536 39.5196 6 39.2652 6 39V36.35C6.00265 33.3406 7.19929 30.4552 9.32726 28.3273C11.4552 26.1993 14.3406 25.0026 17.35 25H28.65C31.6594 25.0026 34.5448 26.1993 36.6727 28.3273C38.8007 30.4552 39.9974 33.3406 40 36.35V39C40 39.2652 39.8946 39.5196 39.7071 39.7071C39.5196 39.8946 39.2652 40 39 40Z"/>
</svg>
