<svg width="38" height="13" viewBox="0 0 38 13" fill="none" xmlns="http://www.w3.org/2000/svg">
<path d="M0.841991 11.4849C0.346978 11.1388 0.0862902 10.3245 0.581304 9.64688C0.771693 9.38514 1.07632 9.21646 1.39852 9.17574C1.88474 9.11176 2.20401 9.26299 2.42076 9.41422C3.38443 10.118 4.43596 10.5514 5.67203 10.5514C6.8173 10.5514 7.50563 10.1006 7.50563 9.36187V9.32697C7.50563 8.62317 7.0692 8.26254 4.94562 7.72161C2.38561 7.06724 0.733615 6.36344 0.733615 3.85941V3.82451C0.733615 1.53279 2.58479 0.0175781 5.17995 0.0175781C6.72357 0.0175781 8.06801 0.416012 9.21328 1.13726C9.50326 1.30595 9.79617 1.65203 9.82839 2.14353C9.88697 3.04509 9.12541 3.6791 8.2379 3.48715C8.08852 3.45516 7.95378 3.397 7.81611 3.31847C6.89053 2.77753 6.01766 2.47216 5.14773 2.47216C4.07569 2.47216 3.51331 2.95785 3.51331 3.57149V3.60639C3.51331 4.43525 4.05811 4.70572 6.25492 5.26411C8.8325 5.93011 10.2853 6.85203 10.2853 9.05069V9.08559C10.2853 11.5925 8.36092 12.9972 5.61931 12.9972C3.94974 12.9972 2.25966 12.4912 0.841991 11.482V11.4849Z" fill="#FA2828"/>
<path d="M11.2928 11.034L15.7245 1.09933C16.0321 0.412975 16.5974 0 17.3589 0H17.523C18.2845 0 18.8293 0.415884 19.1398 1.09933L23.5715 11.034C23.6623 11.2318 23.718 11.4121 23.718 11.5924C23.718 12.3311 23.138 12.9273 22.3911 12.9273C21.7379 12.9273 21.3015 12.5492 21.0466 11.9705L20.1943 9.98702H14.6027L13.7122 12.0606C13.475 12.6016 13.0034 12.9273 12.4235 12.9273C11.697 12.9273 11.1347 12.3515 11.1347 11.6302C11.1347 11.4324 11.2079 11.2347 11.2987 11.034H11.2928ZM19.1545 7.53535L17.3941 3.37069L15.6337 7.53535H19.1574H19.1545Z" fill="#FA2828"/>
<path d="M25.2878 1.51516C25.2878 0.738647 25.9059 0.127908 26.685 0.127908H26.9925C27.593 0.127908 28.0089 0.433277 28.2638 0.849161L31.641 6.31091L35.0387 0.828803C35.3287 0.36057 35.73 0.125 36.2924 0.125H36.5999C37.382 0.125 37.9971 0.738647 37.9971 1.51225V11.54C37.9971 12.3165 37.379 12.9272 36.5999 12.9272C35.8208 12.9272 35.2203 12.2961 35.2203 11.54V5.24648L32.7687 8.99816C32.4787 9.43149 32.1155 9.70196 31.6058 9.70196C31.0962 9.70196 30.733 9.43149 30.443 8.99816L28.0265 5.30173V11.5749C28.0265 12.331 27.4085 12.9272 26.6469 12.9272C25.8854 12.9272 25.2849 12.331 25.2849 11.5749V1.51516H25.2878Z" fill="#FA2828"/>
</svg>
