<svg width="100" height="100" viewBox="0 0 100 100" fill="#a7acb6" xmlns="http://www.w3.org/2000/svg">
<path fill-rule="evenodd" clip-rule="evenodd" d="M75 77C72.0333 77 69.1332 76.1203 66.6665 74.4721C64.1997 72.8238 62.2771 70.4811 61.1418 67.7403C60.0065 64.9994 59.7095 61.9834 60.2882 59.0737C60.867 56.164 62.2956 53.4912 64.3934 51.3934C66.4912 49.2956 69.164 47.867 72.0737 47.2882C74.9834 46.7095 77.9994 47.0065 80.7403 48.1418C83.4811 49.2771 85.8238 51.1997 87.4721 53.6665C89.1203 56.1332 90 59.0333 90 62C90 65.9783 88.4197 69.7936 85.6067 72.6067C82.7936 75.4197 78.9783 77 75 77ZM75 49C72.4289 49 69.9154 49.7625 67.7776 51.1909C67.4505 51.4095 67.1344 51.6422 66.8301 51.888C68.0018 53.1717 68.9426 54.6506 69.609 56.2594C70.363 58.0794 70.751 60.0301 70.751 62.0001C70.751 63.97 70.363 65.9207 69.609 67.7407C68.9426 69.3495 68.0018 70.8284 66.8302 72.1121C68.4616 73.4301 70.3935 74.3384 72.4638 74.7502C74.9856 75.2518 77.5995 74.9944 79.9749 74.0105C81.1316 73.5313 82.2065 72.8904 83.1699 72.1121C81.9983 70.8284 81.0575 69.3495 80.391 67.7407C79.6371 65.9207 79.249 63.97 79.249 62.0001C79.249 60.0301 79.6371 58.0794 80.391 56.2594C81.0575 54.6506 81.9983 53.1717 83.1699 51.888C80.8679 50.028 77.987 49 75 49ZM65.3756 70.739C66.3804 69.6323 67.188 68.3593 67.7613 66.9753C68.4147 65.3979 68.751 63.7073 68.751 62.0001C68.751 60.2928 68.4147 58.6022 67.7613 57.0249C67.188 55.6409 66.3804 54.3678 65.3755 53.2611C64.3747 54.3633 63.5653 55.6351 62.9896 57.0251C62.0056 59.4005 61.7482 62.0145 62.2498 64.5362C62.7106 66.8528 63.793 68.9961 65.3756 70.739ZM85.8091 69.2224C85.4508 69.7587 85.0545 70.2654 84.6245 70.739C83.6196 69.6323 82.8121 68.3592 82.2388 66.9753C81.5854 65.3979 81.249 63.7073 81.249 62.0001C81.249 60.2928 81.5854 58.6022 82.2388 57.0249C82.8121 55.6409 83.6196 54.3678 84.6245 53.2611C86.7916 55.6476 88 58.7615 88 62C88 64.5712 87.2376 67.0846 85.8091 69.2224Z"/>
<path d="M42 50C41.7348 50 41.4804 49.8946 41.2929 49.7071C41.1054 49.5196 41 49.2652 41 49V37C41 36.7348 41.1054 36.4804 41.2929 36.2929C41.4804 36.1054 41.7348 36 42 36C42.2652 36 42.5196 36.1054 42.7071 36.2929C42.8946 36.4804 43 36.7348 43 37V49C43 49.2652 42.8946 49.5196 42.7071 49.7071C42.5196 49.8946 42.2652 50 42 50Z"/>
<path d="M42 56C41.7348 56 41.4804 55.8946 41.2929 55.7071C41.1054 55.5196 41 55.2652 41 55V53C41 52.7348 41.1054 52.4804 41.2929 52.2929C41.4804 52.1054 41.7348 52 42 52C42.2652 52 42.5196 52.1054 42.7071 52.2929C42.8946 52.4804 43 52.7348 43 53V55C43 55.2652 42.8946 55.5196 42.7071 55.7071C42.5196 55.8946 42.2652 56 42 56Z"/>
<path d="M56 70H13C12.2044 70 11.4413 69.6839 10.8787 69.1213C10.3161 68.5587 10 67.7957 10 67V53.73C10.0025 53.2921 10.1486 52.8671 10.416 52.5202C10.6833 52.1734 11.0571 51.9239 11.48 51.81C12.7684 51.4778 13.9098 50.7268 14.7248 49.675C15.5398 48.6233 15.9821 47.3305 15.9821 46C15.9821 44.6695 15.5398 43.3767 14.7248 42.325C13.9098 41.2732 12.7684 40.5222 11.48 40.19C11.0571 40.0761 10.6833 39.8266 10.416 39.4798C10.1486 39.1329 10.0025 38.7079 10 38.27V25C10 24.2044 10.3161 23.4413 10.8787 22.8787C11.4413 22.3161 12.2044 22 13 22H71C71.7957 22 72.5587 22.3161 73.1213 22.8787C73.6839 23.4413 74 24.2044 74 25V42C74 42.2652 73.8946 42.5196 73.7071 42.7071C73.5196 42.8946 73.2652 43 73 43C72.7348 43 72.4804 42.8946 72.2929 42.7071C72.1054 42.5196 72 42.2652 72 42V25C72 24.7348 71.8946 24.4804 71.7071 24.2929C71.5196 24.1054 71.2652 24 71 24H13C12.7348 24 12.4804 24.1054 12.2929 24.2929C12.1054 24.4804 12 24.7348 12 25V38.27C13.712 38.7175 15.2273 39.7199 16.3088 41.1204C17.3904 42.5209 17.9771 44.2405 17.9771 46.01C17.9771 47.7795 17.3904 49.4991 16.3088 50.8996C15.2273 52.3001 13.712 53.3025 12 53.75V67C12 67.2652 12.1054 67.5196 12.2929 67.7071C12.4804 67.8946 12.7348 68 13 68H56C56.2652 68 56.5196 68.1054 56.7071 68.2929C56.8946 68.4804 57 68.7348 57 69C57 69.2652 56.8946 69.5196 56.7071 69.7071C56.5196 69.8946 56.2652 70 56 70Z"/>
</svg>