<svg width="24" height="24" viewBox="0 0 24 24" fill="#242428" xmlns="http://www.w3.org/2000/svg">
<path d="M17.0005 15.0001C16.5305 15.002 16.0676 15.1143 15.6489 15.3279C15.2303 15.5416 14.8678 15.8506 14.5905 16.2301L7.86049 12.87C8.04738 12.3051 8.04738 11.695 7.86049 11.1301L14.5905 7.77004C15.0156 8.34343 15.6312 8.7465 16.3268 8.90679C17.0223 9.06708 17.7522 8.9741 18.3854 8.64458C19.0185 8.31507 19.5135 7.77061 19.7813 7.10897C20.0491 6.44733 20.0722 5.71187 19.8465 5.03472C19.6208 4.35756 19.161 3.78308 18.5498 3.41445C17.9386 3.04582 17.2159 2.9072 16.5117 3.02349C15.8074 3.13978 15.1677 3.50334 14.7075 4.04891C14.2472 4.59447 13.9965 5.28628 14.0005 6.00005C14.0064 6.29515 14.0535 6.58798 14.1405 6.87005L7.41049 10.2301C7.03712 9.71911 6.51173 9.3393 5.90947 9.14498C5.30721 8.95066 4.65891 8.95177 4.05731 9.14815C3.45572 9.34453 2.93163 9.72613 2.56001 10.2384C2.18839 10.7506 1.98828 11.3672 1.98828 12.0001C1.98828 12.6329 2.18839 13.2495 2.56001 13.7617C2.93163 14.274 3.45572 14.6556 4.05731 14.8519C4.65891 15.0483 5.30721 15.0494 5.90947 14.8551C6.51173 14.6608 7.03712 14.281 7.41049 13.77L14.1405 17.1301C14.0535 17.4121 14.0064 17.7049 14.0005 18.0001C14.0005 18.5934 14.1764 19.1734 14.5061 19.6668C14.8357 20.1601 15.3043 20.5446 15.8524 20.7717C16.4006 20.9987 17.0038 21.0582 17.5858 20.9424C18.1677 20.8266 18.7023 20.5409 19.1218 20.1214C19.5414 19.7018 19.8271 19.1673 19.9428 18.5853C20.0586 18.0034 19.9992 17.4002 19.7721 16.852C19.5451 16.3038 19.1606 15.8353 18.6672 15.5056C18.1739 15.176 17.5938 15.0001 17.0005 15.0001ZM17.0005 4.00005C17.3961 4.00005 17.7827 4.11735 18.1116 4.33712C18.4405 4.55688 18.6969 4.86922 18.8483 5.23467C18.9996 5.60012 19.0392 6.00226 18.9621 6.39022C18.8849 6.77818 18.6944 7.13456 18.4147 7.41427C18.135 7.69397 17.7786 7.88446 17.3907 7.96163C17.0027 8.0388 16.6006 7.99917 16.2351 7.8478C15.8697 7.69642 15.5573 7.44009 15.3376 7.1112C15.1178 6.7823 15.0005 6.39561 15.0005 6.00005C15.0005 5.46962 15.2112 4.96091 15.5863 4.58584C15.9613 4.21076 16.4701 4.00005 17.0005 4.00005ZM5.00049 14.0001C4.60493 14.0001 4.21824 13.8827 3.88934 13.663C3.56044 13.4432 3.3041 13.1309 3.15273 12.7654C3.00135 12.4 2.96175 11.9978 3.03893 11.6099C3.1161 11.2219 3.30657 10.8655 3.58627 10.5858C3.86598 10.3061 4.22234 10.1156 4.61031 10.0385C4.99827 9.9613 5.4004 10.0009 5.76585 10.1523C6.13131 10.3037 6.44366 10.56 6.66342 10.8889C6.88318 11.2178 7.00049 11.6045 7.00049 12.0001C7.00049 12.5305 6.78978 13.0392 6.4147 13.4143C6.03963 13.7893 5.53092 14.0001 5.00049 14.0001ZM17.0005 20C16.6049 20 16.2182 19.8827 15.8893 19.663C15.5604 19.4432 15.3041 19.1309 15.1527 18.7654C15.0014 18.4 14.9618 17.9978 15.0389 17.6099C15.1161 17.2219 15.3066 16.8655 15.5863 16.5858C15.866 16.3061 16.2223 16.1156 16.6103 16.0385C16.9983 15.9613 17.4004 16.0009 17.7659 16.1523C18.1313 16.3037 18.4437 16.56 18.6634 16.8889C18.8832 17.2178 19.0005 17.6045 19.0005 18.0001C19.0005 18.5305 18.7898 19.0392 18.4147 19.4143C18.0396 19.7893 17.5309 20 17.0005 20Z"/>
</svg>
