<svg width="18" height="18" viewBox="0 0 18 18" fill="#242428" xmlns="http://www.w3.org/2000/svg">
<path d="M13.2367 10.9203L15.2351 17.0103C15.2861 17.1619 15.2874 17.3258 15.2387 17.4782C15.19 17.6306 15.0939 17.7634 14.9644 17.8572C14.8349 17.951 14.6789 18.0009 14.5191 17.9997C14.3592 17.9985 14.2039 17.9461 14.076 17.8503L9 14.0603L3.96399 17.8503C3.836 17.9461 3.68076 17.9985 3.52093 17.9997C3.36109 18.0009 3.20506 17.951 3.0756 17.8572C2.94614 17.7634 2.85004 17.6306 2.80134 17.4782C2.75265 17.3258 2.75391 17.1619 2.80494 17.0103L4.80335 10.9203L0.306928 7.5603C0.178911 7.46791 0.0837759 7.33697 0.0354762 7.18658C-0.0128236 7.0362 -0.0117821 6.87429 0.0384645 6.72455C0.0887111 6.57481 0.18553 6.44503 0.314734 6.35431C0.443939 6.26358 0.59879 6.21662 0.756583 6.22028H6.38212L8.29057 0.510315C8.34099 0.362064 8.4365 0.233316 8.56373 0.142151C8.69096 0.0509854 8.84355 0.00195312 9.00003 0.00195312C9.15651 0.00195312 9.30904 0.0509854 9.43627 0.142151C9.5635 0.233316 9.65901 0.362064 9.70943 0.510315L11.6179 6.22028H17.2435C17.4013 6.21662 17.5561 6.26358 17.6853 6.35431C17.8145 6.44503 17.9113 6.57481 17.9615 6.72455C18.0118 6.87429 18.0128 7.0362 17.9645 7.18658C17.9162 7.33697 17.8211 7.46791 17.6931 7.5603L13.2367 10.9203Z"/>
</svg>
