<svg width="136" height="24" viewBox="0 0 136 24" fill="#242428" xmlns="http://www.w3.org/2000/svg">
<path d="M17.6 14.5249L20.32 22.684C20.3891 22.8856 20.3912 23.1039 20.3263 23.3069C20.2613 23.5099 20.1327 23.6867 19.9592 23.8115C19.7857 23.9362 19.5765 24.0023 19.3624 23.9999C19.1484 23.9976 18.9407 23.9269 18.77 23.7984L12 18.7039L5.23 23.7586C5.06189 23.88 4.85997 23.9463 4.65227 23.9482C4.44457 23.9502 4.24139 23.8878 4.07097 23.7697C3.90055 23.6515 3.77135 23.4835 3.70128 23.2889C3.63121 23.0944 3.62377 22.8829 3.67998 22.684L6.39998 14.5647L0.39998 10.0872C0.232073 9.96186 0.108067 9.78717 0.0454872 9.58783C-0.017093 9.3885 -0.0150547 9.17462 0.051316 8.9765C0.117687 8.77839 0.245003 8.60606 0.415269 8.48396C0.585535 8.36185 0.790103 8.29614 0.999986 8.29614H8.49999L11.05 0.684316C11.1157 0.485246 11.243 0.311916 11.4136 0.189035C11.5842 0.066155 11.7894 0 12 0C12.2106 0 12.4158 0.066155 12.5864 0.189035C12.757 0.311916 12.8842 0.485246 12.95 0.684316L15.5 8.29614H23C23.2099 8.29614 23.4144 8.36185 23.5847 8.48396C23.755 8.60606 23.8823 8.77839 23.9487 8.9765C24.015 9.17462 24.0171 9.3885 23.9545 9.58783C23.8919 9.78717 23.7679 9.96186 23.6 10.0872L17.6 14.5249Z"/>
<path d="M45.6 14.5249L48.32 22.684C48.3891 22.8856 48.3912 23.1039 48.3263 23.3069C48.2613 23.5099 48.1327 23.6867 47.9592 23.8115C47.7857 23.9362 47.5765 24.0023 47.3624 23.9999C47.1484 23.9976 46.9407 23.9269 46.77 23.7984L40 18.7039L33.23 23.7586C33.0619 23.88 32.86 23.9463 32.6523 23.9482C32.4446 23.9502 32.2414 23.8878 32.071 23.7697C31.9006 23.6515 31.7713 23.4835 31.7013 23.2889C31.6312 23.0944 31.6238 22.8829 31.68 22.684L34.4 14.5647L28.4 10.0872C28.2321 9.96186 28.1081 9.78717 28.0455 9.58783C27.9829 9.3885 27.9849 9.17462 28.0513 8.9765C28.1177 8.77839 28.245 8.60606 28.4153 8.48396C28.5855 8.36185 28.7901 8.29614 29 8.29614H36.5L39.05 0.684316C39.1157 0.485246 39.243 0.311916 39.4136 0.189035C39.5842 0.066155 39.7894 0 40 0C40.2106 0 40.4158 0.066155 40.5864 0.189035C40.757 0.311916 40.8842 0.485246 40.95 0.684316L43.5 8.29614H51C51.2099 8.29614 51.4144 8.36185 51.5847 8.48396C51.755 8.60606 51.8823 8.77839 51.9487 8.9765C52.015 9.17462 52.0171 9.3885 51.9545 9.58783C51.8919 9.78717 51.7679 9.96186 51.6 10.0872L45.6 14.5249Z"/>
<path d="M73.6 14.5249L76.32 22.684C76.3891 22.8856 76.3912 23.1039 76.3263 23.3069C76.2613 23.5099 76.1327 23.6867 75.9592 23.8115C75.7857 23.9362 75.5765 24.0023 75.3624 23.9999C75.1484 23.9976 74.9407 23.9269 74.77 23.7984L68 18.7039L61.23 23.7586C61.0619 23.88 60.86 23.9463 60.6523 23.9482C60.4446 23.9502 60.2414 23.8878 60.071 23.7697C59.9006 23.6515 59.7713 23.4835 59.7013 23.2889C59.6312 23.0944 59.6238 22.8829 59.68 22.684L62.4 14.5647L56.4 10.0872C56.2321 9.96186 56.1081 9.78717 56.0455 9.58783C55.9829 9.3885 55.9849 9.17462 56.0513 8.9765C56.1177 8.77839 56.245 8.60606 56.4153 8.48396C56.5855 8.36185 56.7901 8.29614 57 8.29614H64.5L67.05 0.684316C67.1157 0.485246 67.243 0.311916 67.4136 0.189035C67.5842 0.066155 67.7894 0 68 0C68.2106 0 68.4158 0.066155 68.5864 0.189035C68.757 0.311916 68.8842 0.485246 68.95 0.684316L71.5 8.29614H79C79.2099 8.29614 79.4144 8.36185 79.5847 8.48396C79.755 8.60606 79.8823 8.77839 79.9487 8.9765C80.015 9.17462 80.0171 9.3885 79.9545 9.58783C79.8919 9.78717 79.7679 9.96186 79.6 10.0872L73.6 14.5249Z"/>
<path d="M101.6 14.5249L104.32 22.684C104.389 22.8856 104.391 23.1039 104.326 23.3069C104.261 23.5099 104.133 23.6867 103.959 23.8115C103.786 23.9362 103.576 24.0023 103.362 23.9999C103.148 23.9976 102.941 23.9269 102.77 23.7984L96 18.7039L89.23 23.7586C89.0619 23.88 88.86 23.9463 88.6523 23.9482C88.4446 23.9502 88.2414 23.8878 88.071 23.7697C87.9006 23.6515 87.7713 23.4835 87.7013 23.2889C87.6312 23.0944 87.6238 22.8829 87.68 22.684L90.4 14.5647L84.4 10.0872C84.2321 9.96186 84.1081 9.78717 84.0455 9.58783C83.9829 9.3885 83.9849 9.17462 84.0513 8.9765C84.1177 8.77839 84.245 8.60606 84.4153 8.48396C84.5855 8.36185 84.7901 8.29614 85 8.29614H92.5L95.05 0.684316C95.1157 0.485246 95.243 0.311916 95.4136 0.189035C95.5842 0.066155 95.7894 0 96 0C96.2106 0 96.4158 0.066155 96.5864 0.189035C96.757 0.311916 96.8842 0.485246 96.95 0.684316L99.5 8.29614H107C107.21 8.29614 107.414 8.36185 107.585 8.48396C107.755 8.60606 107.882 8.77839 107.949 8.9765C108.015 9.17462 108.017 9.3885 107.955 9.58783C107.892 9.78717 107.768 9.96186 107.6 10.0872L101.6 14.5249Z"/>
<path d="M129.6 14.5249L132.32 22.684C132.389 22.8856 132.391 23.1039 132.326 23.3069C132.261 23.5099 132.133 23.6867 131.959 23.8115C131.786 23.9362 131.576 24.0023 131.362 23.9999C131.148 23.9976 130.941 23.9269 130.77 23.7984L124 18.7039L117.23 23.7586C117.062 23.88 116.86 23.9463 116.652 23.9482C116.445 23.9502 116.241 23.8878 116.071 23.7697C115.901 23.6515 115.771 23.4835 115.701 23.2889C115.631 23.0944 115.624 22.8829 115.68 22.684L118.4 14.5647L112.4 10.0872C112.232 9.96186 112.108 9.78717 112.045 9.58783C111.983 9.3885 111.985 9.17462 112.051 8.9765C112.118 8.77839 112.245 8.60606 112.415 8.48396C112.586 8.36185 112.79 8.29614 113 8.29614H120.5L123.05 0.684316C123.116 0.485246 123.243 0.311916 123.414 0.189035C123.584 0.066155 123.789 0 124 0C124.211 0 124.416 0.066155 124.586 0.189035C124.757 0.311916 124.884 0.485246 124.95 0.684316L127.5 8.29614H135C135.21 8.29614 135.414 8.36185 135.585 8.48396C135.755 8.60606 135.882 8.77839 135.949 8.9765C136.015 9.17462 136.017 9.3885 135.955 9.58783C135.892 9.78717 135.768 9.96186 135.6 10.0872L129.6 14.5249Z"/>
</svg>
