<svg width="82" height="14" viewBox="0 0 82 14" fill="#242428" xmlns="http://www.w3.org/2000/svg">
<path d="M10.2 8.47803L11.83 13.343C11.8631 13.4437 11.8634 13.5523 11.8309 13.6532C11.7984 13.754 11.7348 13.8419 11.6492 13.9043C11.5635 13.9666 11.4604 14.0001 11.3545 14C11.2486 13.9999 11.1455 13.9661 11.06 13.9036L7 10.9005L2.94 13.9036C2.85453 13.9661 2.75139 13.9999 2.64551 14C2.53963 14.0001 2.43646 13.9666 2.35083 13.9043C2.2652 13.8419 2.20157 13.754 2.16907 13.6532C2.13657 13.5523 2.13687 13.4437 2.16998 13.343L3.79999 8.47803L0.200012 5.79532C0.116059 5.73229 0.0540555 5.64441 0.0227654 5.54415C-0.00852466 5.44388 -0.00755127 5.3363 0.0256341 5.23664C0.0588194 5.13699 0.122508 5.05032 0.207641 4.98889C0.292774 4.92747 0.395058 4.89444 0.499999 4.89444H5L6.53003 0.329803C6.56506 0.233179 6.62892 0.149665 6.71301 0.0906683C6.7971 0.0316719 6.89731 0 7 0C7.10269 0 7.2029 0.0316719 7.28699 0.0906683C7.37108 0.149665 7.43494 0.233179 7.46997 0.329803L9 4.89444H13.5C13.6049 4.89444 13.7072 4.92747 13.7924 4.98889C13.8775 5.05032 13.9412 5.13699 13.9744 5.23664C14.0075 5.3363 14.0085 5.44388 13.9772 5.54415C13.9459 5.64441 13.8839 5.73229 13.8 5.79532L10.2 8.47803Z"/>
<path d="M44.2 8.47803L45.83 13.343C45.8631 13.4437 45.8634 13.5523 45.8309 13.6532C45.7984 13.754 45.7348 13.8419 45.6492 13.9043C45.5635 13.9666 45.4604 14.0001 45.3545 14C45.2486 13.9999 45.1455 13.9661 45.06 13.9036L41 10.9005L36.94 13.9036C36.8545 13.9661 36.7514 13.9999 36.6455 14C36.5396 14.0001 36.4365 13.9666 36.3508 13.9043C36.2652 13.8419 36.2016 13.754 36.1691 13.6532C36.1366 13.5523 36.1369 13.4437 36.17 13.343L37.8 8.47803L34.2 5.79532C34.1161 5.73229 34.0541 5.64441 34.0228 5.54415C33.9915 5.44388 33.9924 5.3363 34.0256 5.23664C34.0588 5.13699 34.1225 5.05032 34.2076 4.98889C34.2928 4.92747 34.3951 4.89444 34.5 4.89444H39L40.53 0.329803C40.5651 0.233179 40.6289 0.149665 40.713 0.0906683C40.7971 0.0316719 40.8973 0 41 0C41.1027 0 41.2029 0.0316719 41.287 0.0906683C41.3711 0.149665 41.4349 0.233179 41.47 0.329803L43 4.89444H47.5C47.6049 4.89444 47.7072 4.92747 47.7924 4.98889C47.8775 5.05032 47.9412 5.13699 47.9744 5.23664C48.0075 5.3363 48.0085 5.44388 47.9772 5.54415C47.9459 5.64441 47.8839 5.73229 47.8 5.79532L44.2 8.47803Z"/>
<path d="M27.2 8.47803L28.83 13.343C28.8631 13.4437 28.8634 13.5523 28.8309 13.6532C28.7984 13.754 28.7348 13.8419 28.6492 13.9043C28.5635 13.9666 28.4604 14.0001 28.3545 14C28.2486 13.9999 28.1455 13.9661 28.06 13.9036L24 10.9005L19.94 13.9036C19.8545 13.9661 19.7514 13.9999 19.6455 14C19.5396 14.0001 19.4365 13.9666 19.3508 13.9043C19.2652 13.8419 19.2016 13.754 19.1691 13.6532C19.1366 13.5523 19.1369 13.4437 19.17 13.343L20.8 8.47803L17.2 5.79532C17.1161 5.73229 17.0541 5.64441 17.0228 5.54415C16.9915 5.44388 16.9924 5.3363 17.0256 5.23664C17.0588 5.13699 17.1225 5.05032 17.2076 4.98889C17.2928 4.92747 17.3951 4.89444 17.5 4.89444H22L23.53 0.329803C23.5651 0.233179 23.6289 0.149665 23.713 0.0906683C23.7971 0.0316719 23.8973 0 24 0C24.1027 0 24.2029 0.0316719 24.287 0.0906683C24.3711 0.149665 24.4349 0.233179 24.47 0.329803L26 4.89444H30.5C30.6049 4.89444 30.7072 4.92747 30.7924 4.98889C30.8775 5.05032 30.9412 5.13699 30.9744 5.23664C31.0075 5.3363 31.0085 5.44388 30.9772 5.54415C30.9459 5.64441 30.8839 5.73229 30.8 5.79532L27.2 8.47803Z"/>
<path d="M61.2 8.47803L62.83 13.343C62.8631 13.4437 62.8634 13.5523 62.8309 13.6532C62.7984 13.754 62.7348 13.8419 62.6492 13.9043C62.5635 13.9666 62.4604 14.0001 62.3545 14C62.2486 13.9999 62.1455 13.9661 62.06 13.9036L58 10.9005L53.94 13.9036C53.8545 13.9661 53.7514 13.9999 53.6455 14C53.5396 14.0001 53.4365 13.9666 53.3508 13.9043C53.2652 13.8419 53.2016 13.754 53.1691 13.6532C53.1366 13.5523 53.1369 13.4437 53.17 13.343L54.8 8.47803L51.2 5.79532C51.1161 5.73229 51.0541 5.64441 51.0228 5.54415C50.9915 5.44388 50.9924 5.3363 51.0256 5.23664C51.0588 5.13699 51.1225 5.05032 51.2076 4.98889C51.2928 4.92747 51.3951 4.89444 51.5 4.89444H56L57.53 0.329803C57.5651 0.233179 57.6289 0.149665 57.713 0.0906683C57.7971 0.0316719 57.8973 0 58 0C58.1027 0 58.2029 0.0316719 58.287 0.0906683C58.3711 0.149665 58.4349 0.233179 58.47 0.329803L60 4.89444H64.5C64.6049 4.89444 64.7072 4.92747 64.7924 4.98889C64.8775 5.05032 64.9412 5.13699 64.9744 5.23664C65.0075 5.3363 65.0085 5.44388 64.9772 5.54415C64.9459 5.64441 64.8839 5.73229 64.8 5.79532L61.2 8.47803Z"/>
<path d="M78.2 8.47803L79.83 13.343C79.8631 13.4437 79.8634 13.5523 79.8309 13.6532C79.7984 13.754 79.7348 13.8419 79.6492 13.9043C79.5635 13.9666 79.4604 14.0001 79.3545 14C79.2486 13.9999 79.1455 13.9661 79.06 13.9036L75 10.9005L70.94 13.9036C70.8545 13.9661 70.7514 13.9999 70.6455 14C70.5396 14.0001 70.4365 13.9666 70.3508 13.9043C70.2652 13.8419 70.2016 13.754 70.1691 13.6532C70.1366 13.5523 70.1369 13.4437 70.17 13.343L71.8 8.47803L68.2 5.79532C68.1161 5.73229 68.0541 5.64441 68.0228 5.54415C67.9915 5.44388 67.9924 5.3363 68.0256 5.23664C68.0588 5.13699 68.1225 5.05032 68.2076 4.98889C68.2928 4.92747 68.3951 4.89444 68.5 4.89444H73L74.53 0.329803C74.5651 0.233179 74.6289 0.149665 74.713 0.0906683C74.7971 0.0316719 74.8973 0 75 0C75.1027 0 75.2029 0.0316719 75.287 0.0906683C75.3711 0.149665 75.4349 0.233179 75.47 0.329803L77 4.89444H81.5C81.6049 4.89444 81.7072 4.92747 81.7924 4.98889C81.8775 5.05032 81.9412 5.13699 81.9744 5.23664C82.0075 5.3363 82.0085 5.44388 81.9772 5.54415C81.9459 5.64441 81.8839 5.73229 81.8 5.79532L78.2 8.47803Z"/>
</svg>
