<svg width="12" height="12" viewBox="0 0 12 12" fill="none" xmlns="http://www.w3.org/2000/svg">
<path fill-rule="evenodd" clip-rule="evenodd" d="M11 6C11 8.76142 8.76142 11 6 11C3.23858 11 1 8.76142 1 6C1 3.23858 3.23858 1 6 1C8.76142 1 11 3.23858 11 6ZM12 6C12 9.31371 9.31371 12 6 12C2.68629 12 0 9.31371 0 6C0 2.68629 2.68629 0 6 0C9.31371 0 12 2.68629 12 6ZM6 2.5C6.27614 2.5 6.5 2.72386 6.5 3L5.64433 6.35143C5.59744 6.30398 5.56198 6.24949 5.53794 6.19139C5.51349 6.13244 5.5 6.06779 5.5 6V3C5.5 2.72386 5.72386 2.5 6 2.5ZM6.5 3L5.64671 6.35382L7.64645 8.35355C7.84171 8.54882 8.15829 8.54882 8.35355 8.35355C8.54882 8.15829 8.54882 7.84171 8.35355 7.64645L6.5 5.79289V3Z" fill="#242428"/>
</svg>
