<svg width="24" height="24" viewBox="0 0 24 24" fill="none" xmlns="http://www.w3.org/2000/svg">
<circle cx="12" cy="12" r="12" fill="#242428"/>
<path fill-rule="evenodd" clip-rule="evenodd" d="M11.3566 15.6318C11.4865 15.7511 11.6625 15.8182 11.8462 15.8182C12.0298 15.8182 12.2058 15.7511 12.3357 15.6318C12.4655 15.5124 12.5385 15.3506 12.5385 15.1818V13.9855C12.539 13.8845 12.5656 13.7851 12.6162 13.6955C12.6667 13.6058 12.7398 13.5286 12.8292 13.47L14.1308 12.6109C14.7091 12.2266 15.1801 11.7216 15.505 11.1376C15.83 10.5535 15.9996 9.90691 16 9.2509V9.13636C16 8.03933 15.5259 6.98723 14.682 6.21151C13.8381 5.4358 12.6935 5 11.5 5C10.3065 5 9.16194 5.4358 8.31802 6.21151C7.47411 6.98723 7 8.03933 7 9.13636V9.45455C7 9.62332 7.07295 9.78517 7.20278 9.90451C7.33262 10.0239 7.5087 10.0909 7.69231 10.0909C7.87592 10.0909 8.052 10.0239 8.18183 9.90451C8.31167 9.78517 8.38462 9.62332 8.38462 9.45455V9.13636C8.38462 8.37688 8.71285 7.64851 9.29709 7.11147C9.88134 6.57443 10.6737 6.27273 11.5 6.27273C12.3263 6.27273 13.1187 6.57443 13.7029 7.11147C14.2872 7.64851 14.6154 8.37688 14.6154 9.13636V9.2509C14.6152 9.70466 14.4978 10.1519 14.2727 10.5557C14.0476 10.9595 13.7213 11.3084 13.3208 11.5736L12.0192 12.4391C11.7521 12.6154 11.5343 12.8476 11.3839 13.1165C11.2334 13.3853 11.1546 13.6831 11.1538 13.9855V15.1818C11.1538 15.3506 11.2268 15.5124 11.3566 15.6318ZM11.3566 18.8136C11.4865 18.9329 11.6625 19 11.8462 19C12.0298 19 12.2058 18.9329 12.3357 18.8136C12.4655 18.6943 12.5385 18.5324 12.5385 18.3636V17.7273C12.5385 17.5585 12.4655 17.3966 12.3357 17.2773C12.2058 17.158 12.0298 17.0909 11.8462 17.0909C11.6625 17.0909 11.4865 17.158 11.3566 17.2773C11.2268 17.3966 11.1538 17.5585 11.1538 17.7273V18.3636C11.1538 18.5324 11.2268 18.6943 11.3566 18.8136Z" fill="white"/>
</svg>
