<svg width="60" height="60" viewBox="0 0 60 60" fill="none" xmlns="http://www.w3.org/2000/svg">
<g filter="url(#filter0_d_718_5731)">
<circle cx="30" cy="26" r="20" fill="white" fill-opacity="0.95" shape-rendering="crispEdges"/>
<circle cx="30" cy="26" r="19.5" stroke="#ECEDF2" shape-rendering="crispEdges"/>
</g>
<path fill-rule="evenodd" clip-rule="evenodd" d="M29.6637 17.13C29.8544 16.9567 30.1456 16.9567 30.3363 17.13L35.8363 22.13C36.0407 22.3158 36.0557 22.632 35.87 22.8363C35.6842 23.0407 35.368 23.0557 35.1637 22.87L30 18.1757L24.8363 22.87C24.632 23.0557 24.3158 23.0407 24.13 22.8363C23.9443 22.632 23.9593 22.3158 24.1637 22.13L29.6637 17.13Z" fill="#242428"/>
<path fill-rule="evenodd" clip-rule="evenodd" d="M30 18C30.2761 18 30.5 18.2239 30.5 18.5V33.5C30.5 33.7761 30.2761 34 30 34C29.7239 34 29.5 33.7761 29.5 33.5V18.5C29.5 18.2239 29.7239 18 30 18Z" fill="#242428"/>
<defs>
<filter id="filter0_d_718_5731" x="0" y="0" width="60" height="60" filterUnits="userSpaceOnUse" color-interpolation-filters="sRGB">
<feFlood flood-opacity="0" result="BackgroundImageFix"/>
<feColorMatrix in="SourceAlpha" type="matrix" values="0 0 0 0 0 0 0 0 0 0 0 0 0 0 0 0 0 0 127 0" result="hardAlpha"/>
<feOffset dy="4"/>
<feGaussianBlur stdDeviation="5"/>
<feComposite in2="hardAlpha" operator="out"/>
<feColorMatrix type="matrix" values="0 0 0 0 0 0 0 0 0 0 0 0 0 0 0 0 0 0 0.08 0"/>
<feBlend mode="normal" in2="BackgroundImageFix" result="effect1_dropShadow_718_5731"/>
<feBlend mode="normal" in="SourceGraphic" in2="effect1_dropShadow_718_5731" result="shape"/>
</filter>
</defs>
</svg>
