<svg width="32" height="32" viewBox="0 0 32 32" fill="none" xmlns="http://www.w3.org/2000/svg">
<circle cx="16" cy="16" r="16" fill="#54A6DB"/>
<path d="M8 21.528C9.50412 22.4935 11.257 23.0048 13.0467 23C14.3142 23.0038 15.5692 22.7504 16.7352 22.2554C17.9011 21.7603 18.9534 21.034 19.828 20.1207C20.7026 19.2074 21.3811 18.1262 21.822 16.9432C22.263 15.7602 22.4572 14.5002 22.3928 13.24C23.0235 12.7689 23.5673 12.1923 24 11.536C23.3976 11.8031 22.7583 11.9783 22.1035 12.056C22.7931 11.6478 23.3079 11.0015 23.55 10.24C22.9034 10.6211 22.1971 10.8915 21.4606 11.04C21.1516 10.7117 20.7782 10.45 20.3635 10.2711C19.9488 10.0922 19.5017 9.99993 19.0497 10C18.5561 10.0015 18.0691 10.1131 17.6245 10.3267C17.1799 10.5402 16.789 10.8502 16.4806 11.234C16.1723 11.6177 15.9542 12.0654 15.8425 12.5441C15.7308 13.0227 15.7284 13.5202 15.8353 14C14.5248 13.9345 13.2429 13.5951 12.0729 13.0037C10.9029 12.4124 9.87116 11.5825 9.0447 10.568C8.62117 11.2905 8.49094 12.1468 8.68065 12.9617C8.87037 13.7766 9.36569 14.4886 10.0653 14.952C9.54169 14.9353 9.02949 14.7955 8.57057 14.544C8.5595 15.3088 8.81792 16.0532 9.30092 16.648C9.78392 17.2429 10.461 17.6504 11.2145 17.8C10.7297 17.9312 10.2211 17.9504 9.72778 17.856C9.93637 18.509 10.3456 19.0803 10.8979 19.4894C11.4501 19.8985 12.1174 20.1246 12.8056 20.136C11.448 21.2072 9.72304 21.7068 8 21.528Z" fill="white"/>
</svg>
