<svg width="32" height="32" viewBox="0 0 32 32" fill="none" xmlns="http://www.w3.org/2000/svg">
<circle cx="16" cy="16" r="16" fill="#CFD0D7"/>
<path d="M8 21.028C9.50412 21.9935 11.257 22.5048 13.0467 22.5C14.3142 22.5038 15.5692 22.2504 16.7352 21.7554C17.9011 21.2603 18.9534 20.534 19.828 19.6207C20.7026 18.7074 21.3811 17.6262 21.822 16.4432C22.263 15.2602 22.4572 14.0002 22.3928 12.74C23.0235 12.2689 23.5673 11.6923 24 11.036C23.3976 11.3031 22.7583 11.4783 22.1035 11.556C22.7931 11.1478 23.3079 10.5015 23.55 9.74001C22.9034 10.1211 22.1971 10.3915 21.4606 10.54C21.1516 10.2117 20.7782 9.94996 20.3635 9.77107C19.9488 9.59218 19.5017 9.49993 19.0497 9.5C18.5561 9.50149 18.0691 9.61311 17.6245 9.82666C17.1799 10.0402 16.789 10.3502 16.4806 10.734C16.1723 11.1177 15.9542 11.5654 15.8425 12.0441C15.7308 12.5227 15.7284 13.0202 15.8353 13.5C14.5248 13.4345 13.2429 13.0951 12.0729 12.5037C10.9029 11.9124 9.87116 11.0825 9.0447 10.068C8.62117 10.7905 8.49094 11.6468 8.68065 12.4617C8.87037 13.2766 9.36569 13.9886 10.0653 14.452C9.54169 14.4353 9.02949 14.2955 8.57057 14.044C8.5595 14.8088 8.81792 15.5532 9.30092 16.148C9.78392 16.7429 10.461 17.1504 11.2145 17.3C10.7297 17.4312 10.2211 17.4504 9.72778 17.356C9.93637 18.009 10.3456 18.5803 10.8979 18.9894C11.4501 19.3985 12.1174 19.6246 12.8056 19.636C11.448 20.7072 9.72304 21.2068 8 21.028Z" fill="white"/>
</svg>
