<svg width="32" height="32" viewBox="0 0 32 32" fill="none" xmlns="http://www.w3.org/2000/svg">
<circle cx="16" cy="16" r="15.5" fill="white" stroke="#ECEDF2"/>
<path fill-rule="evenodd" clip-rule="evenodd" d="M15.4397 18.1917C15.519 18.2421 15.6113 18.268 15.7053 18.2662C15.7988 18.2635 15.89 18.2366 15.97 18.1881C16.0501 18.1396 16.1162 18.0713 16.162 17.9896C16.1976 17.9292 16.2205 17.8622 16.2296 17.7926C16.2387 17.7231 16.2336 17.6524 16.2148 17.5849C16.1959 17.5173 16.1637 17.4543 16.1199 17.3995C16.0762 17.3448 16.0219 17.2994 15.9602 17.2662C15.5274 17.027 15.1561 16.6903 14.8756 16.2827C14.5951 15.8751 14.4132 15.4077 14.3441 14.9175C14.2751 14.4274 14.3209 13.9278 14.4778 13.4584C14.6348 12.989 14.8986 12.5626 15.2485 12.2129L17.5006 9.95756C18.1103 9.37918 18.9182 9.05683 19.758 9.05683C20.5978 9.05683 21.4057 9.37918 22.0154 9.95756C22.3125 10.2541 22.5483 10.6064 22.7091 10.9943C22.87 11.3823 22.9528 11.7982 22.9528 12.2182C22.9528 12.6383 22.87 13.0542 22.7091 13.4421C22.5483 13.8301 22.3125 14.1824 22.0154 14.4789L20.1351 16.3513C20.0351 16.4514 19.9789 16.5873 19.9789 16.7289C19.9789 16.8706 20.0351 17.0064 20.1351 17.1066C20.2351 17.2067 20.3708 17.263 20.5122 17.263C20.6537 17.263 20.7893 17.2067 20.8894 17.1066L22.7591 15.2236C23.5537 14.4259 24 13.345 24 12.2182C24 11.0914 23.5537 10.0106 22.7591 9.21289C21.9532 8.43479 20.8774 8 19.758 8C18.6386 8 17.5628 8.43479 16.7569 9.21289L14.5048 11.4682C13.7102 12.266 13.2639 13.3468 13.2639 14.4736C13.2639 15.6004 13.7102 16.6812 14.5048 17.4789C14.7801 17.7609 15.095 18.001 15.4397 18.1917ZM9.88348 23.2795C10.5813 23.7478 11.402 23.9986 12.242 24C12.8009 23.999 13.3542 23.8877 13.8701 23.6723C14.3859 23.4568 14.8543 23.1416 15.2484 22.7446L17.5005 20.4893C18.2952 19.6916 18.7414 18.6108 18.7414 17.484C18.7414 16.3572 18.2952 15.2763 17.5005 14.4786C17.2122 14.18 16.8788 13.9287 16.5125 13.7339C16.4511 13.7004 16.3838 13.6793 16.3142 13.6718C16.2447 13.6644 16.1744 13.6707 16.1073 13.6905C16.0403 13.7103 15.9777 13.743 15.9233 13.787C15.8689 13.8309 15.8236 13.8852 15.7902 13.9467C15.7567 14.0082 15.7356 14.0756 15.7282 14.1452C15.7207 14.2149 15.727 14.2853 15.7468 14.3525C15.7665 14.4196 15.7993 14.4822 15.8432 14.5367C15.887 14.5912 15.9412 14.6366 16.0026 14.6701C16.4423 14.9046 16.8209 15.2391 17.1081 15.6467C17.3954 16.0543 17.5832 16.5236 17.6565 17.017C17.7299 17.5105 17.6867 18.0142 17.5304 18.4879C17.3742 18.9616 17.1093 19.392 16.7569 19.7446L14.5047 22C13.895 22.5784 13.0871 22.9007 12.2473 22.9007C11.4075 22.9007 10.5996 22.5784 9.98989 22C9.69278 21.7035 9.45704 21.3511 9.29619 20.9632C9.13533 20.5753 9.05253 20.1594 9.05253 19.7393C9.05253 19.3193 9.13533 18.9033 9.29619 18.5154C9.45704 18.1275 9.69278 17.7751 9.98989 17.4786L11.8702 15.6063C11.9197 15.5567 11.959 15.4978 11.9858 15.433C12.0126 15.3682 12.0264 15.2988 12.0264 15.2286C12.0264 15.1585 12.0126 15.089 11.9858 15.0242C11.959 14.9594 11.9197 14.9005 11.8702 14.851C11.8207 14.8014 11.7619 14.762 11.6972 14.7352C11.6325 14.7083 11.5631 14.6945 11.4931 14.6945C11.423 14.6945 11.3537 14.7083 11.289 14.7352C11.2243 14.762 11.1655 14.8014 11.1159 14.851L9.24626 16.7339C8.65196 17.3284 8.24693 18.086 8.08235 18.9109C7.91778 19.7358 8.00104 20.5911 8.32162 21.3686C8.64219 22.1462 9.1857 22.8111 9.88348 23.2795Z" fill="#62676C"/>
</svg>
