<svg width="40" height="40" viewBox="0 0 40 40" fill="none" xmlns="http://www.w3.org/2000/svg">
<rect x="20" width="28" height="28" rx="6" transform="rotate(45 20 0)" fill="#F8F9FA"/>
<path d="M16.3086 21.4277L17.874 16.1367H19.5898L17.0264 23.5332H15.584L13 16.1367H14.7227L16.3086 21.4277Z" fill="#A7ACB6"/>
<path d="M24.7783 21.5234C24.7783 21.2272 24.6553 21.0016 24.4092 20.8467C24.1676 20.6917 23.7643 20.555 23.1992 20.4365C22.6341 20.318 22.1624 20.1676 21.7842 19.9854C20.9548 19.5843 20.54 19.0033 20.54 18.2422C20.54 17.6042 20.8089 17.071 21.3467 16.6426C21.8844 16.2142 22.568 16 23.3975 16C24.2816 16 24.9948 16.2188 25.5371 16.6562C26.084 17.0938 26.3574 17.6611 26.3574 18.3584H24.6963C24.6963 18.0394 24.5778 17.7751 24.3408 17.5654C24.1038 17.3512 23.7894 17.2441 23.3975 17.2441C23.0329 17.2441 22.7344 17.3285 22.502 17.4971C22.2741 17.6657 22.1602 17.8913 22.1602 18.1738C22.1602 18.429 22.2673 18.6273 22.4814 18.7686C22.6956 18.9098 23.1286 19.0534 23.7803 19.1992C24.432 19.3405 24.9424 19.5114 25.3115 19.7119C25.6852 19.9079 25.9609 20.1449 26.1387 20.4229C26.321 20.7008 26.4121 21.0381 26.4121 21.4346C26.4121 22.0999 26.1364 22.64 25.585 23.0547C25.0335 23.4648 24.3112 23.6699 23.418 23.6699C22.8118 23.6699 22.2718 23.5605 21.7979 23.3418C21.3239 23.123 20.9548 22.8223 20.6904 22.4395C20.4261 22.0566 20.2939 21.6442 20.2939 21.2021H21.9072C21.93 21.5941 22.0781 21.8971 22.3516 22.1113C22.625 22.321 22.9873 22.4258 23.4385 22.4258C23.876 22.4258 24.2087 22.3438 24.4365 22.1797C24.6644 22.0111 24.7783 21.7923 24.7783 21.5234Z" fill="#A7ACB6"/>
</svg>
