<svg width="351" height="248" viewBox="0 0 351 248" fill="none" xmlns="http://www.w3.org/2000/svg">
<path d="M339.809 167.8H302.117C295.953 167.8 290.925 162.744 290.925 156.6C290.925 150.456 295.978 145.4 302.117 145.4H339.809C345.973 145.4 351 140.344 351 134.2C351 128.056 345.947 123 339.809 123H42.2645C36.1004 123 31.0731 128.056 31.0731 134.2C31.0731 140.344 36.1257 145.4 42.2645 145.4H103.097C109.261 145.4 114.288 150.456 114.288 156.6C114.288 162.744 109.236 167.8 103.097 167.8H42.2645H11.1914C5.02728 167.8 0 172.856 0 179C0 185.144 5.05254 190.2 11.1914 190.2H72.0492C78.2133 190.2 83.2406 195.256 83.2406 201.4C83.2406 207.544 78.1881 212.6 72.0492 212.6H11.1914C5.02728 212.6 0 217.656 0 223.8C0 229.944 5.05254 235 11.1914 235H308.761C314.925 235 319.952 229.944 319.952 223.8C319.952 217.656 314.9 212.6 308.761 212.6H271.069C264.905 212.6 259.877 207.544 259.877 201.4C259.877 195.256 264.93 190.2 271.069 190.2H339.809C345.973 190.2 351 185.144 351 179C351 172.856 345.947 167.8 339.809 167.8Z" fill="#EFF2F6"/>
<g clip-path="url(#clip0_1_3)">
<path d="M121.266 218.361C115.343 218.361 110.513 213.479 110.513 207.493L102.261 101.781C102.261 95.8826 107.092 91.0009 113.043 91.0009H119.253V85.6833C119.253 82.7775 121.582 80.4238 124.457 80.4238H163.587C166.462 80.4238 168.791 82.7775 168.791 85.6833V91.0009H255.015C260.966 91.0009 265.796 95.8826 265.796 101.898L257.545 207.377C257.545 213.479 252.714 218.361 246.763 218.361H121.266Z" fill="white"/>
<path d="M163.558 81.9058C165.628 81.9058 167.325 83.6202 167.325 85.7123V92.4828H254.986C260.103 92.4828 264.244 96.6671 264.301 101.81L256.078 207.29V207.406V207.523C256.078 212.724 251.881 216.937 246.763 216.937H121.266C116.119 216.937 111.95 212.695 111.95 207.523V207.29L103.699 101.781C103.756 96.6381 107.925 92.4537 113.014 92.4537H120.662V85.7123C120.662 83.6202 122.358 81.9058 124.428 81.9058H163.558ZM163.558 79H124.428C120.777 79 117.787 81.993 117.787 85.7123V89.577H113.014C106.287 89.548 100.824 95.0689 100.824 101.898L109.075 207.493C109.075 214.293 114.538 219.814 121.266 219.814H246.734C253.462 219.814 258.925 214.293 258.925 207.493L267.176 101.898C267.176 95.098 261.713 89.577 254.986 89.577H170.171V85.7123C170.171 82.022 167.21 79 163.529 79H163.558Z" fill="black"/>
<path d="M130.466 210.69C125.521 210.69 121.496 206.622 121.496 201.624L114.452 111.399C114.452 106.518 118.477 102.45 123.422 102.45H244.578C249.523 102.45 253.548 106.518 253.548 111.516L246.504 201.508C246.504 206.622 242.479 210.69 237.534 210.69H130.466Z" fill="white"/>
<path d="M244.578 103.873C248.689 103.873 252.053 107.244 252.111 111.399L245.095 201.362V201.479V201.595C245.095 205.808 241.703 209.208 237.563 209.208H130.466C126.297 209.208 122.933 205.779 122.933 201.595V201.362L115.889 111.399C115.947 107.244 119.311 103.873 123.422 103.873H244.578ZM244.578 100.968H123.451C117.701 100.968 113.043 105.675 113.043 111.487L120.087 201.595C120.087 207.406 124.745 212.114 130.495 212.114H237.534C243.284 212.114 247.942 207.406 247.942 201.595L254.986 111.487C254.986 105.675 250.328 100.968 244.578 100.968Z" fill="black"/>
<path d="M130.466 215.019C125.521 215.019 121.496 210.951 121.496 205.953L114.452 115.729C114.452 110.847 118.477 106.779 123.422 106.779H244.578C249.523 106.779 253.548 110.847 253.548 115.845L246.504 205.837C246.504 210.951 242.479 215.019 237.534 215.019H130.466Z" fill="white"/>
<path d="M244.578 108.232C248.689 108.232 252.053 111.603 252.111 115.758L245.095 205.721V205.837V205.953C245.095 210.167 241.703 213.567 237.563 213.567H130.466C126.297 213.567 122.933 210.138 122.933 205.953V205.721L115.889 115.758C115.947 111.603 119.311 108.232 123.422 108.232H244.578ZM244.578 105.326H123.451C117.701 105.326 113.043 110.034 113.043 115.845L120.087 205.953C120.087 211.765 124.745 216.472 130.495 216.472H237.534C243.284 216.472 247.942 211.765 247.942 205.953L254.986 115.845C254.986 110.034 250.328 105.326 244.578 105.326Z" fill="black"/>
<path d="M118.391 246.547C112.152 246.547 107.063 241.404 107.063 235.098L98.4375 124.534C98.4375 118.344 103.526 113.201 109.765 113.201H258.235C264.474 113.201 269.562 118.344 269.562 124.65L260.937 234.982C260.937 241.404 255.848 246.547 249.609 246.547H118.391Z" fill="white"/>
<path d="M258.235 114.654C263.64 114.654 268.067 119.071 268.125 124.534L259.5 234.866V234.982V235.098C259.5 240.619 255.072 245.094 249.609 245.094H118.391C112.928 245.094 108.5 240.619 108.5 235.098V234.866L99.8751 124.534C99.9326 119.071 104.36 114.654 109.765 114.654H258.235ZM258.235 111.748H109.765C102.721 111.748 97 117.531 97 124.65L105.625 235.098C105.625 242.218 111.347 248 118.391 248H249.609C256.653 248 262.375 242.218 262.375 235.098L271 124.65C271 117.531 265.279 111.748 258.235 111.748Z" fill="black"/>
<path d="M165.5 185C167.433 185 169 182.761 169 180C169 177.239 167.433 175 165.5 175C163.567 175 162 177.239 162 180C162 182.761 163.567 185 165.5 185Z" fill="black"/>
<path d="M201.5 185C203.433 185 205 182.761 205 180C205 177.239 203.433 175 201.5 175C199.567 175 198 177.239 198 180C198 182.761 199.567 185 201.5 185Z" fill="black"/>
<path d="M212 196C210.533 207.238 198.337 216 183.467 216C168.598 216 156.663 207.397 155 196.319" stroke="black" stroke-width="3" stroke-linecap="round" stroke-linejoin="round"/>
</g>
<path d="M78.32 0.999999L72.68 22.24L67.12 0.999999H59.56L53.96 22.32L48.36 0.999999H40.56L49.96 33.6H57.32L63.16 13.16L69 33.6H76.36L85.76 0.999999H78.32ZM93.2081 33.6H117.808V27.28H100.488V20.28H116.048V13.96H100.488V7.32H117.448V0.999999H93.2081V33.6ZM126.7 0.999999V33.6H150.26V27.16H133.98V0.999999H126.7ZM173.263 34.4C182.303 34.4 188.863 28.24 189.863 21.68H182.503C181.943 24.64 178.103 27.72 173.423 27.72C167.503 27.72 163.103 23.32 163.103 17.28C163.103 11.2 167.503 6.84 173.423 6.84C178.103 6.84 181.423 9.32 182.183 12.44H189.543C188.223 5.56 182.223 0.159998 173.263 0.159998C163.223 0.159998 155.823 7.4 155.823 17.28C155.823 27.16 163.223 34.4 173.263 34.4ZM214.22 34.4C224.34 34.4 231.82 27.16 231.82 17.28C231.82 7.4 224.34 0.159998 214.22 0.159998C204.1 0.159998 196.62 7.4 196.62 17.28C196.62 27.16 204.1 34.4 214.22 34.4ZM214.22 27.84C208.3 27.84 203.9 23.4 203.9 17.28C203.9 11.12 208.3 6.72 214.22 6.72C220.14 6.72 224.54 11.12 224.54 17.28C224.54 23.4 220.14 27.84 214.22 27.84ZM240.146 33.6H247.426V15.72L254.986 28.24H259.386L266.946 15.72V33.6H274.226V0.999999H268.426L257.186 19.24L245.946 0.999999H240.146V33.6ZM283.989 33.6H308.589V27.28H291.269V20.28H306.829V13.96H291.269V7.32H308.229V0.999999H283.989V33.6Z" fill="black"/>
<defs>
<clipPath id="clip0_1_3">
<rect width="174" height="169" fill="white" transform="translate(97 79)"/>
</clipPath>
</defs>
</svg>
